<svg width="257" height="257" viewBox="0 0 257 257" fill="none" xmlns="http://www.w3.org/2000/svg">
<g clip-path="url(#clip0_502_434)">
<rect width="256" height="256" transform="translate(0.601074 0.0346375)" fill="#31AA54"/>
<g filter="url(#filter0_b_502_434)">
<path d="M-253.426 -177.696C-253.745 -178.667 -252.894 -179.618 -251.894 -179.409L330.076 -57.7674C331.076 -57.5585 331.474 -56.3458 330.793 -55.5845L-65.4543 387.568C-66.135 388.329 -67.3845 388.068 -67.7035 387.098L-253.426 -177.696Z" fill="url(#paint0_linear_502_434)" fill-opacity="0.4"/>
</g>
<g filter="url(#filter1_b_502_434)">
<path d="M557.437 -131.7C558.412 -132.005 559.351 -131.14 559.128 -130.144L410.042 535.114C409.819 536.111 408.601 536.492 407.849 535.8L-93.7084 74.1541C-94.4597 73.4625 -94.1807 72.2169 -93.2062 71.9119L557.437 -131.7Z" fill="url(#paint1_linear_502_434)" fill-opacity="0.4"/>
</g>
<g filter="url(#filter2_dd_502_434)">
<path d="M190.184 64.0346C181.277 64.0346 173.913 69.4686 170.231 77.1969L132.817 157.861C131.986 159.793 130.204 162.932 128.66 162.932C127.235 162.932 125.454 159.793 124.503 157.861L87.0901 77.1969C83.4082 69.4686 76.0443 64.0346 67.1364 64.0346L45.4011 64.0346L104.668 180.804C110.488 192.276 122.603 192.034 128.779 192.034C137.331 192.034 147.308 191.551 152.534 180.804L211.801 64.0346L190.184 64.0346Z" fill="white"/>
</g>
</g>
<defs>
<filter id="filter0_b_502_434" x="-257.494" y="-183.438" width="592.626" height="575.449" filterUnits="userSpaceOnUse" color-interpolation-filters="sRGB">
<feFlood flood-opacity="0" result="BackgroundImageFix"/>
<feGaussianBlur in="BackgroundImageFix" stdDeviation="2"/>
<feComposite in2="SourceAlpha" operator="in" result="effect1_backgroundBlur_502_434"/>
<feBlend mode="normal" in="SourceGraphic" in2="effect1_backgroundBlur_502_434" result="shape"/>
</filter>
<filter id="filter1_b_502_434" x="-98.1371" y="-135.762" width="661.298" height="675.914" filterUnits="userSpaceOnUse" color-interpolation-filters="sRGB">
<feFlood flood-opacity="0" result="BackgroundImageFix"/>
<feGaussianBlur in="BackgroundImageFix" stdDeviation="2"/>
<feComposite in2="SourceAlpha" operator="in" result="effect1_backgroundBlur_502_434"/>
<feBlend mode="normal" in="SourceGraphic" in2="effect1_backgroundBlur_502_434" result="shape"/>
</filter>
<filter id="filter2_dd_502_434" x="41.4212" y="60.7181" width="174.36" height="135.96" filterUnits="userSpaceOnUse" color-interpolation-filters="sRGB">
<feFlood flood-opacity="0" result="BackgroundImageFix"/>
<feColorMatrix in="SourceAlpha" type="matrix" values="0 0 0 0 0 0 0 0 0 0 0 0 0 0 0 0 0 0 127 0" result="hardAlpha"/>
<feOffset dy="0.663317"/>
<feGaussianBlur stdDeviation="1.98995"/>
<feComposite in2="hardAlpha" operator="out"/>
<feColorMatrix type="matrix" values="0 0 0 0 0.09 0 0 0 0 0.21 0 0 0 0 0.124 0 0 0 0.4 0"/>
<feBlend mode="normal" in2="BackgroundImageFix" result="effect1_dropShadow_502_434"/>
<feColorMatrix in="SourceAlpha" type="matrix" values="0 0 0 0 0 0 0 0 0 0 0 0 0 0 0 0 0 0 127 0" result="hardAlpha"/>
<feOffset dy="0.663317"/>
<feGaussianBlur stdDeviation="0.663317"/>
<feComposite in2="hardAlpha" operator="out"/>
<feColorMatrix type="matrix" values="0 0 0 0 0.06 0 0 0 0 0.14 0 0 0 0 0.0826667 0 0 0 0.16 0"/>
<feBlend mode="normal" in2="effect1_dropShadow_502_434" result="effect2_dropShadow_502_434"/>
<feBlend mode="normal" in="SourceGraphic" in2="effect2_dropShadow_502_434" result="shape"/>
</filter>
<linearGradient id="paint0_linear_502_434" x1="-113.37" y1="482.226" x2="202.201" y2="-140.769" gradientUnits="userSpaceOnUse">
<stop stop-color="#1F7A39" stop-opacity="0"/>
<stop offset="1" stop-color="#47D16E"/>
</linearGradient>
<linearGradient id="paint1_linear_502_434" x1="-201.097" y1="17.9337" x2="520.564" y2="313.159" gradientUnits="userSpaceOnUse">
<stop offset="0.436837" stop-color="#47D16E"/>
<stop offset="1" stop-color="#1F7A39" stop-opacity="0"/>
</linearGradient>
<clipPath id="clip0_502_434">
<rect width="256" height="256" fill="white" transform="translate(0.601074 0.0346375)"/>
</clipPath>
</defs>
</svg>
