<svg width="21" height="20" viewBox="0 0 21 20" fill="none" xmlns="http://www.w3.org/2000/svg">
<g clip-path="url(#clip0_117_3282)">
<path d="M3.2137 6.52148H3.16247C2.5057 6.52148 1.97021 7.05868 1.97021 7.71374V12.9046C1.97021 13.5622 2.5057 14.0977 3.16247 14.0977H3.21457C3.87133 14.0977 4.40682 13.5605 4.40682 12.9046V7.7137C4.40595 7.05868 3.86963 6.52148 3.2137 6.52148Z" fill="white"/>
<path d="M4.97729 14.9082C4.97729 15.5111 5.47006 16.0022 6.07302 16.0022H7.24393V18.806C7.24393 19.4645 7.78112 20 8.43618 20H8.48742C9.14505 20 9.68137 19.4637 9.68137 18.806V16.0022H11.3177V18.806C11.3177 19.4645 11.8566 20 12.5117 20H12.5621C13.2197 20 13.7552 19.4637 13.7552 18.806V16.0022H14.9269C15.529 16.0022 16.0218 15.5111 16.0218 14.9082V6.71191H4.97729V14.9082Z" fill="white"/>
<path d="M13.2505 1.74139L14.1806 0.305763C14.2404 0.215215 14.2139 0.0914091 14.1225 0.0324557C14.032 -0.0273291 13.9082 -0.00254417 13.8492 0.090538L12.885 1.57574C12.1617 1.27938 11.3537 1.11286 10.5005 1.11286C9.64645 1.11286 8.84023 1.27938 8.11517 1.57574L7.15267 0.090538C7.09376 -0.00254417 6.96904 -0.0273291 6.87766 0.0324557C6.78628 0.0913695 6.7598 0.215215 6.81958 0.305763L7.75048 1.74139C6.07227 2.56385 4.94067 4.11394 4.94067 5.89204C4.94067 6.00136 4.94752 6.10897 4.95691 6.21571H16.0449C16.0543 6.10897 16.0603 6.00136 16.0603 5.89204C16.0603 4.11394 14.9279 2.56385 13.2505 1.74139ZM7.92984 4.31206C7.63519 4.31206 7.39605 4.07462 7.39605 3.77914C7.39605 3.48366 7.63519 3.24706 7.92984 3.24706C8.22619 3.24706 8.46362 3.48362 8.46362 3.77914C8.46362 4.07466 8.22448 4.31206 7.92984 4.31206ZM13.0703 4.31206C12.7757 4.31206 12.5366 4.07462 12.5366 3.77914C12.5366 3.48366 12.7757 3.24706 13.0703 3.24706C13.3658 3.24706 13.6033 3.48362 13.6033 3.77914C13.6033 4.07462 13.3658 4.31206 13.0703 4.31206Z" fill="white"/>
<path d="M17.8367 6.52148H17.7872C17.1305 6.52148 16.5933 7.05868 16.5933 7.71374V12.9046C16.5933 13.5622 17.1313 14.0977 17.7872 14.0977H17.8376C18.4952 14.0977 19.0299 13.5605 19.0299 12.9046V7.7137C19.0299 7.05868 18.4935 6.52148 17.8367 6.52148Z" fill="white"/>
</g>
<defs>
<clipPath id="clip0_117_3282">
<rect width="20" height="20" fill="white" transform="translate(0.5)"/>
</clipPath>
</defs>
</svg>
