<svg width="21" height="20" viewBox="0 0 21 20" fill="none" xmlns="http://www.w3.org/2000/svg">
<path d="M14.349 0C14.3956 0 14.4421 0 14.4913 0C14.6055 1.41044 14.0671 2.46432 13.4128 3.22751C12.7708 3.98542 11.8917 4.7205 10.4699 4.60897C10.375 3.21872 10.9142 2.24301 11.5676 1.48158C12.1736 0.771967 13.2846 0.140517 14.349 0Z" fill="white"/>
<path d="M18.6532 14.6805C18.6532 14.6946 18.6532 14.7069 18.6532 14.7201C18.2536 15.9303 17.6836 16.9675 16.988 17.93C16.3531 18.8038 15.575 19.9798 14.1856 19.9798C12.9851 19.9798 12.1876 19.2078 10.9572 19.1868C9.65568 19.1657 8.93992 19.8323 7.74991 20C7.61379 20 7.47766 20 7.34417 20C6.47033 19.8735 5.7651 19.1815 5.25134 18.5579C3.73639 16.7154 2.5657 14.3354 2.3479 11.2897C2.3479 10.9911 2.3479 10.6934 2.3479 10.3948C2.44011 8.21499 3.49926 6.44272 4.90707 5.58381C5.65006 5.12712 6.67144 4.73807 7.80875 4.91196C8.29617 4.98749 8.79413 5.15435 9.23061 5.31946C9.64426 5.47842 10.1615 5.76033 10.6516 5.7454C10.9836 5.73574 11.3138 5.56273 11.6484 5.44065C12.6285 5.08673 13.5893 4.68098 14.8557 4.87156C16.3777 5.10166 17.4579 5.7779 18.1254 6.82124C16.8379 7.64063 15.82 8.87542 15.9939 10.9841C16.1485 12.8995 17.2621 14.0201 18.6532 14.6805Z" fill="white"/>
</svg>
