<svg width="26" height="23" viewBox="0 0 26 23" fill="none" xmlns="http://www.w3.org/2000/svg">
<path d="M16.0031 17.5797L14.3245 19.0757V12.643C14.3245 12.3378 14.1874 12.0451 13.9434 11.8293C13.6994 11.6135 13.3684 11.4922 13.0233 11.4922C12.6782 11.4922 12.3472 11.6135 12.1032 11.8293C11.8592 12.0451 11.7221 12.3378 11.7221 12.643V19.0757L10.0435 17.5797C9.92216 17.4724 9.77812 17.3873 9.61961 17.3292C9.46109 17.2712 9.29119 17.2413 9.11961 17.2413C8.94803 17.2413 8.77813 17.2712 8.61961 17.3292C8.46109 17.3873 8.31706 17.4724 8.19573 17.5797C8.07441 17.687 7.97817 17.8144 7.91251 17.9546C7.84684 18.0947 7.81305 18.245 7.81305 18.3967C7.81305 18.5485 7.84684 18.6987 7.91251 18.8389C7.97817 18.9791 8.07441 19.1065 8.19573 19.2138L12.0994 22.666C12.2232 22.7708 12.3691 22.8529 12.5288 22.9077C12.6846 22.9686 12.853 23 13.0233 23C13.1936 23 13.362 22.9686 13.5178 22.9077C13.6775 22.8529 13.8234 22.7708 13.9472 22.666L17.8509 19.2138C18.0959 18.9971 18.2336 18.7032 18.2336 18.3967C18.2336 18.0903 18.0959 17.7964 17.8509 17.5797C17.6059 17.363 17.2735 17.2413 16.927 17.2413C16.5805 17.2413 16.2482 17.363 16.0031 17.5797ZM21.3772 4.84088C20.5822 3.22523 19.21 1.88469 17.471 1.02467C15.732 0.164659 13.7221 -0.167384 11.7494 0.0794257C9.77657 0.326235 7.9497 1.13828 6.5487 2.39113C5.1477 3.64398 4.24986 5.26851 3.99275 7.0158C2.75213 7.27854 1.66383 7.93506 0.93451 8.86067C0.20519 9.78628 -0.114353 10.9165 0.0365632 12.0368C0.18748 13.157 0.798345 14.1892 1.75315 14.9374C2.70796 15.6856 3.94022 16.0976 5.21591 16.0952C5.56102 16.0952 5.89199 15.974 6.13602 15.7582C6.38005 15.5424 6.51714 15.2497 6.51714 14.9445C6.51714 14.6393 6.38005 14.3466 6.13602 14.1308C5.89199 13.915 5.56102 13.7937 5.21591 13.7937C4.52569 13.7937 3.86374 13.5512 3.37569 13.1196C2.88763 12.688 2.61344 12.1026 2.61344 11.4922C2.61344 10.8818 2.88763 10.2964 3.37569 9.86481C3.86374 9.4332 4.52569 9.19072 5.21591 9.19072C5.56102 9.19072 5.89199 9.06948 6.13602 8.85367C6.38005 8.63786 6.51714 8.34516 6.51714 8.03997C6.52046 6.67895 7.06924 5.36304 8.06596 4.32601C9.06268 3.28899 10.4428 2.59801 11.9612 2.37582C13.4795 2.15364 15.0378 2.41464 16.3591 3.11246C17.6804 3.81028 18.6793 4.89973 19.1781 6.18726C19.2525 6.385 19.3862 6.56117 19.565 6.69696C19.7437 6.83275 19.9608 6.92307 20.1931 6.95826C21.0598 7.10311 21.8455 7.50326 22.4221 8.09352C22.9988 8.68377 23.3324 9.42934 23.3686 10.2087C23.4048 10.9881 23.1415 11.7554 22.6216 12.3855C22.1017 13.0156 21.3557 13.4714 20.5054 13.6786C20.3396 13.7164 20.1839 13.7827 20.0471 13.8737C19.9103 13.9647 19.7952 14.0786 19.7082 14.209C19.6212 14.3394 19.5641 14.4836 19.5401 14.6335C19.5161 14.7834 19.5258 14.936 19.5685 15.0826C19.6112 15.2291 19.6862 15.3669 19.7891 15.4878C19.892 15.6088 20.0208 15.7107 20.1682 15.7876C20.3156 15.8645 20.4787 15.915 20.6482 15.9362C20.8177 15.9574 20.9903 15.9489 21.156 15.9111C22.5254 15.5911 23.7393 14.8846 24.6134 13.899C25.4875 12.9133 25.974 11.7024 25.999 10.4499C26.024 9.19754 25.5862 7.97212 24.7521 6.95978C23.9179 5.94744 22.733 5.20348 21.3772 4.84088Z" fill="#4593FC"/>
</svg>
