<svg width="28" height="29" viewBox="0 0 28 29" fill="none" xmlns="http://www.w3.org/2000/svg">
<path fill-rule="evenodd" clip-rule="evenodd" d="M5.8335 5.44787C5.52408 5.44787 5.22733 5.57078 5.00854 5.78957C4.78975 6.00837 4.66683 6.30511 4.66683 6.61453V22.9479C4.66683 23.2573 4.78975 23.554 5.00854 23.7728C5.22733 23.9916 5.52408 24.1145 5.8335 24.1145H22.1668C22.4762 24.1145 22.773 23.9916 22.9918 23.7728C23.2106 23.554 23.3335 23.2573 23.3335 22.9479V16.8077C23.3335 16.4983 23.4564 16.2015 23.6752 15.9827C23.894 15.7639 24.1907 15.641 24.5002 15.641C24.8096 15.641 25.1063 15.7639 25.3251 15.9827C25.5439 16.2015 25.6668 16.4983 25.6668 16.8077V22.9479C25.6668 23.8761 25.2981 24.7664 24.6417 25.4227C23.9853 26.0791 23.0951 26.4479 22.1668 26.4479H5.8335C4.90524 26.4479 4.015 26.0791 3.35862 25.4227C2.70225 24.7664 2.3335 23.8761 2.3335 22.9479V6.61453C2.3335 5.68627 2.70225 4.79604 3.35862 4.13966C4.015 3.48328 4.90524 3.11453 5.8335 3.11453H11.6867C11.9961 3.11453 12.2928 3.23745 12.5116 3.45624C12.7304 3.67503 12.8533 3.97178 12.8533 4.2812C12.8533 4.59062 12.7304 4.88736 12.5116 5.10616C12.2928 5.32495 11.9961 5.44787 11.6867 5.44787H5.8335Z" fill="black"/>
<path fill-rule="evenodd" clip-rule="evenodd" d="M24.9798 3.78186C25.1898 3.99246 25.3078 4.27776 25.3078 4.57519C25.3078 4.87262 25.1898 5.15792 24.9798 5.36852L14.7458 15.6189C14.6418 15.7229 14.5183 15.8055 14.3824 15.8618C14.2464 15.9181 14.1008 15.9471 13.9536 15.9471C13.8065 15.9471 13.6608 15.9181 13.5249 15.8618C13.389 15.8055 13.2655 15.7229 13.1615 15.6189C12.9514 15.4083 12.8335 15.123 12.8335 14.8255C12.8335 14.5281 12.9514 14.2428 13.1615 14.0322L23.3966 3.78186C23.6066 3.57205 23.8914 3.45419 24.1882 3.45419C24.4851 3.45419 24.7698 3.57205 24.9798 3.78186Z" fill="black"/>
<path fill-rule="evenodd" clip-rule="evenodd" d="M24.5467 3.11453C25.165 3.11453 25.6667 3.6162 25.6667 4.23687V10.1145C25.6667 10.734 25.1183 11.2812 24.5 11.2812C23.8817 11.2812 23.3333 10.734 23.3333 10.1145V5.44787H18.6667C18.0483 5.44787 17.5 4.9007 17.5 4.2812C17.5 3.6617 18.0017 3.11453 18.62 3.11453H24.5467Z" fill="black"/>
</svg>
