<svg width="256" height="256" viewBox="0 0 256 256" fill="none" xmlns="http://www.w3.org/2000/svg">
<g clip-path="url(#clip0_709_1265)">
<rect width="256" height="256" fill="#AA3133"/>
<g filter="url(#filter0_b_709_1265)">
<path d="M-254.027 -177.731C-254.346 -178.701 -253.495 -179.653 -252.495 -179.444L329.475 -57.802C330.474 -57.5931 330.873 -56.3804 330.192 -55.6192L-66.0553 387.534C-66.736 388.295 -67.9856 388.034 -68.3045 387.064L-254.027 -177.731Z" fill="url(#paint0_linear_709_1265)" fill-opacity="0.4"/>
</g>
<g filter="url(#filter1_b_709_1265)">
<path d="M556.836 -131.735C557.811 -132.04 558.75 -131.175 558.527 -130.178L409.441 535.079C409.218 536.076 408 536.457 407.248 535.765L-94.3094 74.1195C-95.0607 73.4279 -94.7818 72.1823 -93.8072 71.8773L556.836 -131.735Z" fill="url(#paint1_linear_709_1265)" fill-opacity="0.4"/>
</g>
<g filter="url(#filter2_dd_709_1265)">
<path d="M159.344 94.9654C154.794 94.9654 151.032 97.7672 149.151 101.752L130.04 143.344C129.615 144.341 128.705 145.96 127.917 145.96C127.188 145.96 126.278 144.341 125.793 143.344L106.682 101.752C104.801 97.7672 101.039 94.9654 96.489 94.9654L85.3862 94.9654L115.661 155.175C118.634 161.09 124.822 160.965 127.977 160.965C132.345 160.965 137.442 160.716 140.111 155.175L170.386 94.9654L159.344 94.9654Z" fill="white"/>
</g>
<path d="M53.7612 127.09C53.7612 180.34 78.8862 206.965 129.136 206.965C178.47 206.965 203.136 180.34 203.136 127.09C203.136 74.507 178.47 48.2154 129.136 48.2154C78.8862 48.2154 53.7612 74.507 53.7612 127.09ZM39.3862 127.84C39.3862 67.257 69.3028 36.9654 129.136 36.9654C188.053 36.9654 217.511 67.257 217.511 127.84C217.511 188.09 188.053 218.215 129.136 218.215C69.3028 218.215 39.3862 188.09 39.3862 127.84Z" fill="white"/>
</g>
<defs>
<filter id="filter0_b_709_1265" x="-255.421" y="-180.8" width="587.279" height="570.103" filterUnits="userSpaceOnUse" color-interpolation-filters="sRGB">
<feFlood flood-opacity="0" result="BackgroundImageFix"/>
<feGaussianBlur in="BackgroundImageFix" stdDeviation="0.663317"/>
<feComposite in2="SourceAlpha" operator="in" result="effect1_backgroundBlur_709_1265"/>
<feBlend mode="normal" in="SourceGraphic" in2="effect1_backgroundBlur_709_1265" result="shape"/>
</filter>
<filter id="filter1_b_709_1265" x="-96.0648" y="-133.123" width="655.951" height="670.567" filterUnits="userSpaceOnUse" color-interpolation-filters="sRGB">
<feFlood flood-opacity="0" result="BackgroundImageFix"/>
<feGaussianBlur in="BackgroundImageFix" stdDeviation="0.663317"/>
<feComposite in2="SourceAlpha" operator="in" result="effect1_backgroundBlur_709_1265"/>
<feBlend mode="normal" in="SourceGraphic" in2="effect1_backgroundBlur_709_1265" result="shape"/>
</filter>
<filter id="filter2_dd_709_1265" x="81.4063" y="91.6488" width="92.9598" height="73.9598" filterUnits="userSpaceOnUse" color-interpolation-filters="sRGB">
<feFlood flood-opacity="0" result="BackgroundImageFix"/>
<feColorMatrix in="SourceAlpha" type="matrix" values="0 0 0 0 0 0 0 0 0 0 0 0 0 0 0 0 0 0 127 0" result="hardAlpha"/>
<feOffset dy="0.663317"/>
<feGaussianBlur stdDeviation="1.98995"/>
<feComposite in2="hardAlpha" operator="out"/>
<feColorMatrix type="matrix" values="0 0 0 0 0.09 0 0 0 0 0.21 0 0 0 0 0.124 0 0 0 0.4 0"/>
<feBlend mode="normal" in2="BackgroundImageFix" result="effect1_dropShadow_709_1265"/>
<feColorMatrix in="SourceAlpha" type="matrix" values="0 0 0 0 0 0 0 0 0 0 0 0 0 0 0 0 0 0 127 0" result="hardAlpha"/>
<feOffset dy="0.663317"/>
<feGaussianBlur stdDeviation="0.663317"/>
<feComposite in2="hardAlpha" operator="out"/>
<feColorMatrix type="matrix" values="0 0 0 0 0.06 0 0 0 0 0.14 0 0 0 0 0.0826667 0 0 0 0.16 0"/>
<feBlend mode="normal" in2="effect1_dropShadow_709_1265" result="effect2_dropShadow_709_1265"/>
<feBlend mode="normal" in="SourceGraphic" in2="effect2_dropShadow_709_1265" result="shape"/>
</filter>
<linearGradient id="paint0_linear_709_1265" x1="-113.971" y1="482.192" x2="201.6" y2="-140.803" gradientUnits="userSpaceOnUse">
<stop stop-color="#7A1F20" stop-opacity="0"/>
<stop offset="1" stop-color="#D1474A"/>
</linearGradient>
<linearGradient id="paint1_linear_709_1265" x1="-201.698" y1="17.8991" x2="519.963" y2="313.124" gradientUnits="userSpaceOnUse">
<stop offset="0.436837" stop-color="#D1474A"/>
<stop offset="1" stop-color="#7A1F20" stop-opacity="0"/>
</linearGradient>
<clipPath id="clip0_709_1265">
<rect width="256" height="256" fill="white"/>
</clipPath>
</defs>
</svg>
