<svg width="257" height="257" viewBox="0 0 257 257" fill="none" xmlns="http://www.w3.org/2000/svg">
<g clip-path="url(#clip0_502_409)">
<rect x="0.607452" y="0.0346375" width="256" height="256" rx="64" fill="white"/>
<path d="M188.917 18.168L159.242 45.1866C173.056 49.3593 185.771 56.5474 196.469 66.232C233.93 100.365 233.93 155.704 196.469 189.837C168.821 215.011 126.09 231.032 68.2981 237.901L97.9728 210.883C84.1589 206.71 71.444 199.522 60.7461 189.837C23.2848 155.704 23.0608 100.568 60.7461 66.232C88.3941 41.0586 131.135 25.0373 188.927 18.168H188.917ZM128.607 85.368C102.101 85.368 80.6074 104.461 80.6074 128.035C80.6074 151.608 102.101 170.701 128.607 170.701C155.114 170.701 176.607 151.608 176.607 128.035C176.607 104.461 155.114 85.368 128.607 85.368Z" fill="#3E97FF"/>
</g>
<defs>
<clipPath id="clip0_502_409">
<rect x="0.607452" y="0.0346375" width="256" height="256" rx="64" fill="white"/>
</clipPath>
</defs>
</svg>
