<svg width="25" height="24" viewBox="0 0 25 24" fill="none" xmlns="http://www.w3.org/2000/svg">
<circle cx="12.7527" cy="12" r="12" fill="#DBDFE9"/>
<path d="M12.7528 11.85C14.7533 11.85 16.375 10.2366 16.375 8.24629C16.375 6.25602 14.7533 4.64258 12.7528 4.64258C10.7523 4.64258 9.13062 6.25602 9.13062 8.24629C9.13062 10.2366 10.7523 11.85 12.7528 11.85Z" fill="#999BA0"/>
<path d="M14.6392 13.3516H10.8661C8.67768 13.3516 6.86658 15.1535 6.86658 17.3307C6.86658 17.8562 7.09296 18.3067 7.54574 18.532C8.2249 18.9073 9.73415 19.3577 12.7526 19.3577C15.7712 19.3577 17.2804 18.9073 17.9595 18.532C18.3368 18.3067 18.6387 17.8562 18.6387 17.3307C18.6387 15.0784 16.8276 13.3516 14.6392 13.3516Z" fill="#999BA0"/>
</svg>
