<svg width="21" height="20" viewBox="0 0 21 20" fill="none" xmlns="http://www.w3.org/2000/svg">
<rect x="0.67627" y="0.000976562" width="20" height="20" rx="4" fill="#F14156"/>
<path d="M17.6619 12.8468L14.6177 11.3257V6.04944C14.6177 5.11277 13.8551 4.35011 12.9184 4.35011H12.6563V3.80658C12.6563 3.17927 12.145 2.66797 11.5177 2.66797H9.83554C9.20823 2.66797 8.69693 3.17927 8.69693 3.80658V4.35011H8.43483C7.49816 4.35011 6.7355 5.11277 6.7355 6.04944V7.38356L4.20691 6.12034C3.92118 5.97855 3.57315 6.09456 3.43136 6.37814C3.28957 6.66387 3.40558 7.0119 3.68916 7.15369L6.73335 8.67471V8.68115L7.88915 9.25905V9.25261L13.4619 12.039V12.0454L14.6177 12.6233V12.6169L17.1442 13.8823C17.2258 13.9231 17.3117 13.9424 17.402 13.9424C17.6233 13.9424 17.8209 13.82 17.9197 13.6223C18.0637 13.3387 17.9476 12.9907 17.6619 12.8468ZM8.43483 5.50592H9.27483H12.0784H12.9184C13.217 5.50592 13.4619 5.74868 13.4619 6.04944V10.7478L7.8913 7.96146V6.04944C7.8913 5.74868 8.13406 5.50592 8.43483 5.50592ZM11.5005 4.35011H9.85273V3.82377H11.4984V4.35011H11.5005Z" fill="white"/>
<path d="M13.462 15.635C13.462 15.9337 13.2193 16.1786 12.9185 16.1786H8.43493C8.13631 16.1786 7.8914 15.9358 7.8914 15.635V9.84743L6.7356 9.26953V15.635C6.7356 16.5717 7.49825 17.3344 8.43493 17.3344H12.9185C13.8552 17.3344 14.6178 16.5717 14.6178 15.635V13.2117L13.462 12.6338V15.635Z" fill="white"/>
</svg>
