<svg width="20" height="20" viewBox="0 0 20 20" fill="none" xmlns="http://www.w3.org/2000/svg">
<rect width="20" height="20" rx="4" fill="#3E97FF"/>
<path d="M8.65723 13.8672H11.8083V14.7266H8.65723V13.8672Z" fill="white"/>
<path d="M8.65723 10.4697H11.8083V11.3291H8.65723V10.4697Z" fill="white"/>
<path d="M8.65723 6.81738H11.8083V7.67676H8.65723V6.81738Z" fill="white"/>
<path d="M13.0973 4.38574H12.3812V3.95605C12.3812 3.24564 11.8025 2.66699 11.0921 2.66699H9.37337C8.66296 2.66699 8.08431 3.24564 8.08431 3.95605V4.38574H7.36816C6.65775 4.38574 6.0791 4.96439 6.0791 5.6748V16.0446C6.0791 16.755 6.65775 17.3337 7.36816 17.3337H13.0973C13.8077 17.3337 14.3864 16.755 14.3864 16.0446V13.7472V6.25345V5.6748C14.3864 4.96439 13.8077 4.38574 13.0973 4.38574ZM12.6676 15.1566C12.6676 15.3943 12.4757 15.5863 12.238 15.5863H8.22754C7.98978 15.5863 7.79785 15.3943 7.79785 15.1566V13.4378C7.79785 13.2001 7.98978 13.0081 8.22754 13.0081H12.238C12.4757 13.0081 12.6676 13.2001 12.6676 13.4378V15.1566ZM12.6676 11.7592C12.6676 11.9969 12.4757 12.1889 12.238 12.1889H8.22754C7.98978 12.1889 7.79785 11.9969 7.79785 11.7592V10.0404C7.79785 9.80267 7.98978 9.61074 8.22754 9.61074H12.238C12.4757 9.61074 12.6676 9.80267 12.6676 10.0404V11.7592ZM12.6676 8.10684C12.6676 8.3446 12.4757 8.53652 12.238 8.53652H8.22754C7.98978 8.53652 7.79785 8.3446 7.79785 8.10684V6.38809C7.79785 6.15033 7.98978 5.9584 8.22754 5.9584H12.238C12.4757 5.9584 12.6676 6.15033 12.6676 6.38809V8.10684Z" fill="white"/>
</svg>
