<svg width="42" height="43" viewBox="0 0 42 43" fill="none" xmlns="http://www.w3.org/2000/svg">
<rect y="0.5" width="42" height="42" rx="21" fill="#EEF6FF"/>
<g clip-path="url(#clip0_5867_18908)">
<path d="M21.4832 13.3333H31.5002C31.8096 13.3333 32.1063 13.4562 32.3251 13.675C32.5439 13.8938 32.6668 14.1906 32.6668 14.5V30.8333C32.6668 31.1427 32.5439 31.4395 32.3251 31.6583C32.1063 31.8771 31.8096 32 31.5002 32H10.5002C10.1907 32 9.894 31.8771 9.6752 31.6583C9.45641 31.4395 9.3335 31.1427 9.3335 30.8333V12.1667C9.3335 11.8572 9.45641 11.5605 9.6752 11.3417C9.894 11.1229 10.1907 11 10.5002 11H19.1498L21.4832 13.3333ZM19.8335 26.1667V28.5H22.1668V26.1667H19.8335ZM16.995 20.1152L19.284 20.5737C19.349 20.2487 19.5049 19.9488 19.7336 19.709C19.9623 19.4691 20.2544 19.2991 20.576 19.2188C20.8975 19.1385 21.2353 19.1512 21.5499 19.2553C21.8646 19.3594 22.1432 19.5508 22.3533 19.8071C22.5634 20.0633 22.6965 20.374 22.737 20.703C22.7774 21.0319 22.7237 21.3656 22.5819 21.6652C22.4401 21.9648 22.2162 22.2179 21.9362 22.3952C21.6562 22.5725 21.3316 22.6666 21.0002 22.6667H19.8335V25H21.0002C21.7734 24.9998 22.5307 24.78 23.1839 24.3662C23.8371 23.9525 24.3594 23.3617 24.6901 22.6628C25.0207 21.9638 25.1461 21.1853 25.0517 20.4179C24.9572 19.6504 24.6468 18.9256 24.1565 18.3277C23.6663 17.7297 23.0163 17.2833 22.2823 17.0403C21.5482 16.7972 20.7603 16.7676 20.01 16.9549C19.2598 17.1421 18.5782 17.5385 18.0444 18.098C17.5107 18.6575 17.1468 19.357 16.995 20.1152Z" fill="#3E97FF"/>
</g>
<defs>
<clipPath id="clip0_5867_18908">
<rect width="28" height="28" fill="white" transform="translate(7 7.5)"/>
</clipPath>
</defs>
</svg>
