<svg width="74" height="73" viewBox="0 0 74 73" fill="none" xmlns="http://www.w3.org/2000/svg">
<g clip-path="url(#clip0_2736_19691)">
<path d="M20.3274 47.9326H52.8552V52.8664H20.3274V47.9326Z" fill="#E1462B"/>
<path d="M14.072 62.7344H59.1105V67.6682H14.072V62.7344Z" fill="#E1462B"/>
<path d="M36.5912 8.46191L7.81665 72.6012H14.072L36.5912 20.7964L59.1104 72.6012H65.3658L36.5912 8.46191Z" fill="#FC8535"/>
<path d="M42.8466 7.22876C42.8466 10.6346 40.0458 13.396 36.5913 13.396C33.1368 13.396 30.3359 10.6346 30.3359 7.22876C30.3359 3.82293 33.1368 1.06152 36.5913 1.06152C40.0458 1.06152 42.8466 3.82293 42.8466 7.22876Z" fill="#195C85"/>
<path d="M25.5217 11.5825C22.8943 7.43467 24.4698 3.94873 25.6708 2.68457L27.4948 4.37213L26.5828 3.52835L27.5034 4.36189C27.4172 4.45825 25.4044 6.74145 27.6439 10.275L25.5217 11.5825Z" fill="#DD3E46"/>
<path d="M19.1553 15.0638C16.1712 7.21384 19.1101 1.91146 19.2378 1.69043L21.4174 2.89918L20.3276 2.29511L21.421 2.89316C21.3184 3.07806 18.9439 7.47823 21.4998 14.1953L19.1553 15.0638Z" fill="#DD3E46"/>
<path d="M12.8639 18.6492C9.97504 8.01308 12.7912 0.899083 12.9109 0.601562L15.2328 1.52183L14.0722 1.0617L15.2347 1.51822C15.2084 1.58447 12.6207 8.22027 15.2805 18.0101L12.8639 18.6492Z" fill="#DD3E46"/>
<path d="M47.661 11.5825L45.5339 10.275C47.8119 6.68243 45.7044 4.39441 45.683 4.37213L47.5071 2.68457C48.7129 3.94873 50.2908 7.43467 47.661 11.5825Z" fill="#DD3E46"/>
<path d="M54.0276 15.0643L51.6831 14.2006C54.239 7.48349 51.8645 3.08392 51.7619 2.89842L53.9452 1.69629C54.0728 1.9119 57.0111 7.21428 54.0276 15.0643Z" fill="#DD3E46"/>
<path d="M60.319 18.6492L57.9023 18.0101C60.578 8.16124 57.9769 1.58687 57.9494 1.52183L60.2713 0.601562C60.3917 0.899083 63.2078 8.01308 60.319 18.6492Z" fill="#DD3E46"/>
</g>
<defs>
<clipPath id="clip0_2736_19691">
<rect width="73.0286" height="72" fill="white" transform="translate(0 0.601562)"/>
</clipPath>
</defs>
</svg>
