<svg width="64" height="65" viewBox="0 0 64 65" fill="none" xmlns="http://www.w3.org/2000/svg">
<g filter="url(#filter0_d_5710_41768)">
<rect x="8" y="8.73047" width="48" height="48" rx="24" fill="white" shape-rendering="crispEdges"/>
<rect x="11" y="11.7305" width="42" height="42" rx="21" fill="#FEF5E1"/>
<path fill-rule="evenodd" clip-rule="evenodd" d="M38.9997 21.0625H24.9997C24.6903 21.0625 24.3935 21.1854 24.1747 21.4042C23.9559 21.623 23.833 21.9197 23.833 22.2292V43.2292C23.833 43.5386 23.9559 43.8353 24.1747 44.0541C24.3935 44.2729 24.6903 44.3958 24.9997 44.3958H38.9997C39.3091 44.3958 39.6058 44.2729 39.8246 44.0541C40.0434 43.8353 40.1663 43.5386 40.1663 43.2292V22.2292C40.1663 21.9197 40.0434 21.623 39.8246 21.4042C39.6058 21.1854 39.3091 21.0625 38.9997 21.0625ZM31.1747 38.9042C31.3935 38.6854 31.6903 38.5625 31.9997 38.5625C32.3091 38.5625 32.6058 38.6854 32.8246 38.9042C33.0434 39.123 33.1663 39.4197 33.1663 39.7292C33.1663 40.0386 33.0434 40.3353 32.8246 40.5541C32.6058 40.7729 32.3091 40.8958 31.9997 40.8958C31.6903 40.8958 31.3935 40.7729 31.1747 40.5541C30.9559 40.3353 30.833 40.0386 30.833 39.7292C30.833 39.4197 30.9559 39.123 31.1747 38.9042ZM31.282 30.7483H27.6975L31.9989 26.4469L36.3003 30.7483L32.7158 30.7483L32.7158 35.7666H31.282L31.282 30.7483Z" fill="#E78500"/>
</g>
<defs>
<filter id="filter0_d_5710_41768" x="2" y="4.23047" width="60" height="60" filterUnits="userSpaceOnUse" color-interpolation-filters="sRGB">
<feFlood flood-opacity="0" result="BackgroundImageFix"/>
<feColorMatrix in="SourceAlpha" type="matrix" values="0 0 0 0 0 0 0 0 0 0 0 0 0 0 0 0 0 0 127 0" result="hardAlpha"/>
<feOffset dy="1.5"/>
<feGaussianBlur stdDeviation="3"/>
<feComposite in2="hardAlpha" operator="out"/>
<feColorMatrix type="matrix" values="0 0 0 0 0.319531 0 0 0 0 0.319531 0 0 0 0 0.319531 0 0 0 0.16 0"/>
<feBlend mode="normal" in2="BackgroundImageFix" result="effect1_dropShadow_5710_41768"/>
<feBlend mode="normal" in="SourceGraphic" in2="effect1_dropShadow_5710_41768" result="shape"/>
</filter>
</defs>
</svg>
