<svg width="25" height="25" viewBox="0 0 25 25" fill="none" xmlns="http://www.w3.org/2000/svg">
<g clip-path="url(#clip0_3733_792)">
<path fill-rule="evenodd" clip-rule="evenodd" d="M16.3862 4.03291C14.2503 3.5319 12.0275 3.5319 9.89162 4.03291C7.07099 4.69454 4.86861 6.89691 4.20698 9.71755C3.70597 11.8535 3.70597 14.0763 4.20698 16.2122C4.86861 19.0328 7.07099 21.2352 9.89162 21.8968C12.0275 22.3978 14.2503 22.3978 16.3862 21.8968C19.2069 21.2352 21.4093 19.0328 22.0708 16.2122C22.5719 14.0763 22.5719 11.8535 22.0708 9.71755C21.4093 6.89692 19.2069 4.69454 16.3862 4.03291ZM9.50516 2.38532C11.8952 1.82468 14.3827 1.82468 16.7727 2.38532C20.2191 3.19373 22.9101 5.88469 23.7185 9.33108C24.2791 11.7211 24.2791 14.2086 23.7185 16.5986C22.9101 20.045 20.2191 22.736 16.7727 23.5444C14.3827 24.105 11.8952 24.105 9.50516 23.5444C6.05877 22.736 3.3678 20.045 2.5594 16.5987C1.99876 14.2086 1.99876 11.7211 2.5594 9.33107C3.3678 5.88469 6.05877 3.19373 9.50516 2.38532Z" fill="#3E97FF"/>
<path d="M9.81616 12.9646C9.81616 13.5877 9.2972 14.0928 8.65701 14.0928C8.01683 14.0928 7.49786 13.5877 7.49786 12.9646C7.49786 12.3415 8.01683 11.8364 8.65701 11.8364C9.2972 11.8364 9.81616 12.3415 9.81616 12.9646Z" fill="#3E97FF"/>
<path d="M14.2982 12.9646C14.2982 13.5877 13.7792 14.0928 13.139 14.0928C12.4989 14.0928 11.9799 13.5877 11.9799 12.9646C11.9799 12.3415 12.4989 11.8364 13.139 11.8364C13.7792 11.8364 14.2982 12.3415 14.2982 12.9646Z" fill="#3E97FF"/>
<path d="M18.78 12.9646C18.78 13.5877 18.261 14.0928 17.6209 14.0928C16.9806 14.0928 16.4617 13.5877 16.4617 12.9646C16.4617 12.3415 16.9806 11.8364 17.6209 11.8364C18.261 11.8364 18.78 12.3415 18.78 12.9646Z" fill="#3E97FF"/>
</g>
<defs>
<clipPath id="clip0_3733_792">
<rect width="24" height="24" fill="white" transform="translate(0.888916 0.714844)"/>
</clipPath>
</defs>
</svg>
