<svg width="25" height="25" viewBox="0 0 25 25" fill="none" xmlns="http://www.w3.org/2000/svg">
<path fill-rule="evenodd" clip-rule="evenodd" d="M12.6891 7.58776C9.36826 7.58776 6.66576 10.2903 6.66576 13.6111V21.7927H18.7124V13.6111C18.7124 10.2903 16.0099 7.58776 12.6891 7.58776ZM5.01404 13.6111C5.01404 9.37804 8.45604 5.93604 12.6891 5.93604C16.9222 5.93604 20.3641 9.37804 20.3641 13.6111V23.4444H5.01404V13.6111Z" fill="#3E97FF"/>
<path fill-rule="evenodd" clip-rule="evenodd" d="M3.05396 22.6183C3.05396 22.1622 3.42371 21.7925 3.87982 21.7925H21.4983C21.9544 21.7925 22.3242 22.1622 22.3242 22.6183C22.3242 23.0745 21.9544 23.4442 21.4983 23.4442H3.87982C3.42371 23.4442 3.05396 23.0745 3.05396 22.6183Z" fill="#3E97FF"/>
<path fill-rule="evenodd" clip-rule="evenodd" d="M9.90308 15.6808C9.90308 15.2247 10.2729 14.855 10.7289 14.855H14.649C15.1052 14.855 15.4749 15.2247 15.4749 15.6808C15.4749 16.137 15.1052 16.5067 14.649 16.5067H10.7289C10.2729 16.5067 9.90308 16.137 9.90308 15.6808Z" fill="#3E97FF"/>
<path fill-rule="evenodd" clip-rule="evenodd" d="M12.689 1.97168C13.1451 1.97168 13.5149 2.34143 13.5149 2.79755V3.78858C13.5149 4.2447 13.1451 4.61445 12.689 4.61445C12.2329 4.61445 11.8632 4.2447 11.8632 3.78858V2.79755C11.8632 2.34143 12.2329 1.97168 12.689 1.97168Z" fill="#3E97FF"/>
<path fill-rule="evenodd" clip-rule="evenodd" d="M6.03675 4.08889C6.41822 3.83882 6.93012 3.94534 7.1802 4.32679L7.82992 5.31783C8.07993 5.69928 7.97343 6.21123 7.59201 6.4613C7.21052 6.71137 6.69862 6.60487 6.44854 6.22338L5.79885 5.23236C5.54879 4.8509 5.6553 4.33896 6.03675 4.08889Z" fill="#3E97FF"/>
<path fill-rule="evenodd" clip-rule="evenodd" d="M19.3414 4.08889C19.7229 4.33896 19.8294 4.8509 19.5793 5.23236L18.9296 6.22338C18.6796 6.60487 18.1676 6.71137 17.7862 6.4613C17.4047 6.21123 17.2982 5.69928 17.5482 5.31783L18.1979 4.32679C18.448 3.94534 18.96 3.83882 19.3414 4.08889Z" fill="#3E97FF"/>
</svg>
