<svg width="28" height="28" viewBox="0 0 28 28" fill="none" xmlns="http://www.w3.org/2000/svg">
<circle cx="14" cy="14" r="12" fill="#F9F9F9"/>
<circle cx="14" cy="14" r="12.6667" stroke="white" stroke-opacity="0.7" stroke-width="1.33333"/>
<path d="M14.0001 13.848C16.0006 13.848 17.6223 12.2346 17.6223 10.2443C17.6223 8.25406 16.0006 6.64062 14.0001 6.64062C11.9996 6.64062 10.3779 8.25406 10.3779 10.2443C10.3779 12.2346 11.9996 13.848 14.0001 13.848Z" fill="#999BA0"/>
<path d="M15.8866 15.3496H12.1135C9.92505 15.3496 8.11395 17.1516 8.11395 19.3287C8.11395 19.8543 8.34034 20.3048 8.79312 20.53C9.47227 20.9054 10.9815 21.3558 14 21.3558C17.0185 21.3558 18.5277 20.9054 19.2069 20.53C19.5842 20.3048 19.8861 19.8543 19.8861 19.3287C19.8861 17.0764 18.075 15.3496 15.8866 15.3496Z" fill="#999BA0"/>
</svg>
