<svg width="25" height="25" viewBox="0 0 25 25" fill="none" xmlns="http://www.w3.org/2000/svg">
<path d="M15.089 13.665H8.08899C7.67899 13.665 7.33899 13.325 7.33899 12.915C7.33899 12.505 7.67899 12.165 8.08899 12.165H15.089C15.499 12.165 15.839 12.505 15.839 12.915C15.839 13.325 15.499 13.665 15.089 13.665Z" fill="#3E97FF"/>
<path d="M12.469 17.665H8.08899C7.67899 17.665 7.33899 17.325 7.33899 16.915C7.33899 16.505 7.67899 16.165 8.08899 16.165H12.469C12.879 16.165 13.219 16.505 13.219 16.915C13.219 17.325 12.879 17.665 12.469 17.665Z" fill="#3E97FF"/>
<path d="M14.089 7.46484H10.089C9.12899 7.46484 7.33899 7.46484 7.33899 4.71484C7.33899 1.96484 9.12899 1.96484 10.089 1.96484H14.089C15.049 1.96484 16.839 1.96484 16.839 4.71484C16.839 5.67484 16.839 7.46484 14.089 7.46484ZM10.089 3.46484C9.09899 3.46484 8.83899 3.46484 8.83899 4.71484C8.83899 5.96484 9.09899 5.96484 10.089 5.96484H14.089C15.339 5.96484 15.339 5.70484 15.339 4.71484C15.339 3.46484 15.079 3.46484 14.089 3.46484H10.089Z" fill="#3E97FF"/>
<path d="M15.089 23.4648H9.08899C3.46899 23.4648 2.33899 20.8848 2.33899 16.7148V10.7148C2.33899 6.15478 3.98899 4.20478 8.04899 3.99478C8.44899 3.97478 8.81899 4.28478 8.83899 4.70478C8.85899 5.12478 8.53899 5.46478 8.12899 5.48478C5.28899 5.64478 3.83899 6.49478 3.83899 10.7148V16.7148C3.83899 20.4148 4.56899 21.9648 9.08899 21.9648H15.089C19.609 21.9648 20.339 20.4148 20.339 16.7148V10.7148C20.339 6.49478 18.889 5.64478 16.049 5.48478C15.639 5.46478 15.319 5.10478 15.339 4.69478C15.359 4.28478 15.719 3.96478 16.129 3.98478C20.189 4.20478 21.839 6.15478 21.839 10.7048V16.7048C21.839 20.8848 20.709 23.4648 15.089 23.4648Z" fill="#3E97FF"/>
</svg>
