<svg width="72" height="73" viewBox="0 0 72 73" fill="none" xmlns="http://www.w3.org/2000/svg">
<g clip-path="url(#clip0_2736_19682)">
<path d="M18.3725 8.3877H52.6677C54.0205 8.3877 55.1173 9.49936 55.1173 10.8705V70.4567C55.1173 71.8278 54.0205 72.9394 52.6677 72.9394H18.3725C17.0197 72.9394 15.9229 71.8278 15.9229 70.4567V10.8705C15.9229 9.49936 17.0197 8.3877 18.3725 8.3877Z" fill="#55B56A"/>
<path d="M25.7214 0.939453H45.3186C46.6714 0.939453 47.7683 2.05112 47.7683 3.42221V8.38773H23.2717V3.42221C23.2717 2.05112 24.3686 0.939453 25.7214 0.939453Z" fill="#195C85"/>
<path d="M20.822 60.5254H50.2179V67.9737H20.822V60.5254Z" fill="#FDBD40"/>
<path d="M20.822 48.1123H50.2179V55.5606H20.822V48.1123Z" fill="#FDBD40"/>
<path d="M20.822 35.6982H50.2179V43.1465H20.822V35.6982Z" fill="#FDBD40"/>
<path d="M22.0468 19.5606H19.5972V12.1123H28.171V14.5951H22.0468V19.5606Z" fill="white"/>
<path d="M30.6206 12.1123H35.5199V14.5951H30.6206V12.1123Z" fill="white"/>
</g>
<defs>
<clipPath id="clip0_2736_19682">
<rect width="71.04" height="72" fill="white" transform="translate(0 0.939453)"/>
</clipPath>
</defs>
</svg>
