<svg width="30" height="34" viewBox="0 0 30 34" fill="none" xmlns="http://www.w3.org/2000/svg">
<path fill-rule="evenodd" clip-rule="evenodd" d="M20.0002 0.293457L29.9999 10.2932L29.9999 32.2934C29.9999 33.0297 29.403 33.6267 28.6666 33.6267H4.66658C3.9302 33.6267 3.33325 33.0297 3.33325 32.2934V1.62679C3.33325 0.89041 3.9302 0.293457 4.66658 0.293457H20.0002Z" fill="#F1F5F9"/>
<path d="M20 10.2934L30 10.2934L20 0.293457L20 10.2934Z" fill="#DDE4EE"/>
<rect y="14.9595" width="24" height="12" rx="0.666666" fill="#709C38"/>
<path d="M4.308 20.5595H5.58C5.804 20.5595 5.988 20.5061 6.132 20.3995C6.276 20.2928 6.348 20.1195 6.348 19.8795C6.348 19.7461 6.324 19.6368 6.276 19.5515C6.228 19.4661 6.164 19.3995 6.084 19.3515C6.004 19.3035 5.91067 19.2715 5.804 19.2555C5.70267 19.2341 5.596 19.2235 5.484 19.2235H4.308V20.5595ZM3.052 18.2475H5.74C6.012 18.2475 6.26 18.2715 6.484 18.3195C6.708 18.3675 6.9 18.4475 7.06 18.5595C7.22 18.6661 7.34267 18.8101 7.428 18.9915C7.51867 19.1728 7.564 19.3968 7.564 19.6635C7.564 19.9515 7.49733 20.1915 7.364 20.3835C7.236 20.5755 7.044 20.7328 6.788 20.8555C7.14 20.9568 7.40133 21.1355 7.572 21.3915C7.748 21.6421 7.836 21.9461 7.836 22.3035C7.836 22.5915 7.78 22.8421 7.668 23.0555C7.556 23.2635 7.404 23.4341 7.212 23.5675C7.02533 23.7008 6.80933 23.7995 6.564 23.8635C6.324 23.9275 6.076 23.9595 5.82 23.9595H3.052V18.2475ZM4.308 22.9835H5.652C5.77467 22.9835 5.892 22.9728 6.004 22.9515C6.116 22.9248 6.21467 22.8848 6.3 22.8315C6.38533 22.7728 6.452 22.6955 6.5 22.5995C6.55333 22.5035 6.58 22.3808 6.58 22.2315C6.58 21.9381 6.49733 21.7301 6.332 21.6075C6.16667 21.4795 5.948 21.4155 5.676 21.4155H4.308V22.9835ZM8.68481 18.2475H10.4528L11.7888 22.1755H11.8048L13.0688 18.2475H14.8368V23.9595H13.6608V19.9115H13.6448L12.2448 23.9595H11.2768L9.87681 19.9515H9.86081V23.9595H8.68481V18.2475ZM17.1986 20.9355H18.1746C18.3186 20.9355 18.4573 20.9248 18.5906 20.9035C18.724 20.8821 18.8413 20.8421 18.9426 20.7835C19.044 20.7195 19.124 20.6315 19.1826 20.5195C19.2466 20.4075 19.2786 20.2608 19.2786 20.0795C19.2786 19.8981 19.2466 19.7515 19.1826 19.6395C19.124 19.5275 19.044 19.4421 18.9426 19.3835C18.8413 19.3195 18.724 19.2768 18.5906 19.2555C18.4573 19.2341 18.3186 19.2235 18.1746 19.2235H17.1986V20.9355ZM15.9426 18.2475H18.5186C18.876 18.2475 19.18 18.3008 19.4306 18.4075C19.6813 18.5088 19.884 18.6448 20.0386 18.8155C20.1986 18.9861 20.3133 19.1808 20.3826 19.3995C20.4573 19.6181 20.4946 19.8448 20.4946 20.0795C20.4946 20.3088 20.4573 20.5355 20.3826 20.7595C20.3133 20.9781 20.1986 21.1728 20.0386 21.3435C19.884 21.5141 19.6813 21.6528 19.4306 21.7595C19.18 21.8608 18.876 21.9115 18.5186 21.9115H17.1986V23.9595H15.9426V18.2475Z" fill="white"/>
</svg>
