<svg width="60" height="61" viewBox="0 0 60 61" fill="none" xmlns="http://www.w3.org/2000/svg">
<g filter="url(#filter0_d_6362_20997)">
<rect x="6" y="5" width="48" height="48" rx="24" fill="white" shape-rendering="crispEdges"/>
<rect x="9" y="8" width="42" height="42" rx="21" fill="#EEF6FF"/>
<g clip-path="url(#clip0_6362_20997)">
<path d="M31.1665 30.1654V36.6812L33.2992 34.5485L34.95 36.1994L29.9999 41.1484L25.0497 36.1994L26.7005 34.5485L28.8332 36.6812V30.1654H31.1665ZM29.9999 17.332C32.003 17.3321 33.9363 18.0683 35.4321 19.4007C36.9279 20.733 37.882 22.5686 38.1129 24.5584C39.5645 24.9542 40.8309 25.8477 41.6906 27.0825C42.5504 28.3173 42.9489 29.815 42.8164 31.3138C42.684 32.8126 42.029 34.2172 40.966 35.2821C39.903 36.3471 38.4996 37.0045 37.001 37.1397L36.9999 34.832C37.0017 32.997 36.2829 31.2347 34.9983 29.9244C33.7136 28.6141 31.9658 27.8606 30.1312 27.8262C28.2965 27.7918 26.5216 28.4792 25.1888 29.7404C23.8559 31.0016 23.0715 32.7358 23.0045 34.5695L22.9999 34.832V37.1397C21.5012 37.0047 20.0977 36.3474 19.0345 35.2826C17.9714 34.2178 17.3163 32.8132 17.1837 31.3143C17.0511 29.8155 17.4494 28.3177 18.3091 27.0828C19.1688 25.8478 20.4352 24.9543 21.8869 24.5584C22.1175 22.5685 23.0715 20.7328 24.5674 19.4004C26.0633 18.068 27.9967 17.3319 29.9999 17.332Z" fill="#3E97FF"/>
</g>
</g>
<defs>
<filter id="filter0_d_6362_20997" x="0" y="0.5" width="60" height="60" filterUnits="userSpaceOnUse" color-interpolation-filters="sRGB">
<feFlood flood-opacity="0" result="BackgroundImageFix"/>
<feColorMatrix in="SourceAlpha" type="matrix" values="0 0 0 0 0 0 0 0 0 0 0 0 0 0 0 0 0 0 127 0" result="hardAlpha"/>
<feOffset dy="1.5"/>
<feGaussianBlur stdDeviation="3"/>
<feComposite in2="hardAlpha" operator="out"/>
<feColorMatrix type="matrix" values="0 0 0 0 0.319531 0 0 0 0 0.319531 0 0 0 0 0.319531 0 0 0 0.16 0"/>
<feBlend mode="normal" in2="BackgroundImageFix" result="effect1_dropShadow_6362_20997"/>
<feBlend mode="normal" in="SourceGraphic" in2="effect1_dropShadow_6362_20997" result="shape"/>
</filter>
<clipPath id="clip0_6362_20997">
<rect width="28" height="28" fill="white" transform="translate(16 15)"/>
</clipPath>
</defs>
</svg>
