<svg width="32" height="33" viewBox="0 0 32 33" fill="none" xmlns="http://www.w3.org/2000/svg">
<rect x="0.0627441" y="0.972656" width="31.9081" height="32" rx="8" fill="#3E97FF"/>
<path d="M16.6236 7.88232L6.65234 16.8823H9.64372V24.8823H23.6035V16.8823H26.5949L16.6236 7.88232ZM16.6236 13.3823C18.9569 13.3823 21.0708 14.3123 22.6064 15.8223L21.4098 17.0023C20.1933 15.7923 18.4982 15.0523 16.6236 15.0523C14.749 15.0523 13.0539 15.7923 11.8374 17.0023L10.6409 15.8223C12.1764 14.3123 14.2903 13.3823 16.6236 13.3823ZM16.6236 16.7123C18.0196 16.7123 19.2859 17.2723 20.2133 18.1823L19.0167 19.3523C18.4085 18.7523 17.5609 18.3823 16.6236 18.3823C15.6863 18.3823 14.8388 18.7523 14.2305 19.3523L13.034 18.1823C13.9613 17.2723 15.2276 16.7123 16.6236 16.7123ZM16.6236 20.0523C17.5609 20.0523 18.3187 20.7923 18.3187 21.7123C18.3187 22.6323 17.5609 23.3823 16.6236 23.3823C15.6863 23.3823 14.9285 22.6323 14.9285 21.7123C14.9285 20.7923 15.6863 20.0523 16.6236 20.0523Z" fill="white"/>
</svg>
