<svg width="20" height="20" viewBox="0 0 20 20" fill="none" xmlns="http://www.w3.org/2000/svg">
<g clip-path="url(#clip0_6410_30436)">
<path d="M10.0001 18.3346C5.39758 18.3346 1.66675 14.6038 1.66675 10.0013C1.66675 5.3988 5.39758 1.66797 10.0001 1.66797C14.6026 1.66797 18.3334 5.3988 18.3334 10.0013C18.3334 14.6038 14.6026 18.3346 10.0001 18.3346ZM10.0001 16.668C11.7682 16.668 13.4639 15.9656 14.7141 14.7153C15.9644 13.4651 16.6667 11.7694 16.6667 10.0013C16.6667 8.23319 15.9644 6.5375 14.7141 5.28726C13.4639 4.03701 11.7682 3.33464 10.0001 3.33464C8.23197 3.33464 6.53628 4.03701 5.28604 5.28726C4.03579 6.5375 3.33341 8.23319 3.33341 10.0013C3.33341 11.7694 4.03579 13.4651 5.28604 14.7153C6.53628 15.9656 8.23197 16.668 10.0001 16.668ZM9.16675 5.83464H10.8334V7.5013H9.16675V5.83464ZM9.16675 9.16797H10.8334V14.168H9.16675V9.16797Z" fill="#3E97FF"/>
</g>
<defs>
<clipPath id="clip0_6410_30436">
<rect width="20" height="20" fill="white"/>
</clipPath>
</defs>
</svg>
