<svg width="32" height="33" viewBox="0 0 32 33" fill="none" xmlns="http://www.w3.org/2000/svg">
<rect x="0.0627441" y="0.802734" width="31.9081" height="32" rx="8" fill="#3E97FF"/>
<path d="M13.0718 8.29932H8.06348V9.33483H13.0718V8.29932Z" fill="white"/>
<path d="M23.0452 24.3589H8.08838V26.2627H23.0452V24.3589Z" fill="white"/>
<path d="M23.9701 10.2891V16.2938H15.0371V10.2891H6.07935V23.5498H25.0085V10.2891H23.9701ZM11.462 16.4376H7.42502V15.3254H11.3723V16.4376H11.462ZM11.462 14.7265H7.42502V13.6143H11.3723V14.7265H11.462ZM11.462 13.0155H7.42502V11.8294H11.3723V13.0155H11.462Z" fill="white"/>
<path d="M16.0166 8.29932V15.318H23.028V8.29932H16.0166ZM21.2872 11.2374L17.8571 14.6651H17.7735C17.7735 14.6651 17.7735 14.6651 17.6898 14.6651C17.6061 14.6651 17.6061 14.5835 17.6061 14.5835L18.861 12.2167H17.7735H17.6898V12.1351L19.2793 9.4419L19.363 9.36029H21.1199C21.1199 9.36029 21.2035 9.36029 21.2035 9.4419V9.52351L19.9486 11.1558H21.2035C21.2872 11.1558 21.2872 11.1558 21.2872 11.2374C21.2872 11.1558 21.2872 11.1558 21.2872 11.2374Z" fill="white"/>
</svg>
