<svg width="66" height="67" viewBox="0 0 66 67" fill="none" xmlns="http://www.w3.org/2000/svg">
<path d="M2.625 14.8145H63.375C63.9717 14.8145 64.544 15.0515 64.966 15.4735C65.3879 15.8954 65.625 16.4677 65.625 17.0645V55.3145H0.375V17.0645C0.375 16.4677 0.612053 15.8954 1.03401 15.4735C1.45597 15.0515 2.02826 14.8145 2.625 14.8145Z" fill="#5AC6AA"/>
<path d="M0.375 55.3145H65.625V62.0645H0.375V55.3145Z" fill="#394D5C"/>
<path d="M6 62.0645H17.25V66.5645H6V62.0645Z" fill="#7D8D9C"/>
<path d="M48.75 62.0645H60V66.5645H48.75V62.0645Z" fill="#7D8D9C"/>
<path d="M10.5 19.3145H28.5V55.3145H10.5V19.3145Z" fill="#72EDC5"/>
<path d="M15 23.8145H24V32.8145H15V23.8145Z" fill="#F4F4E6"/>
<path d="M28.5 19.3145H35.25V55.3145H28.5V19.3145Z" fill="#388E75"/>
<path d="M35.25 19.3145H57.75V55.3145H35.25V19.3145Z" fill="#72EDC5"/>
<path d="M6 22.6895H10.5V27.1895H6V22.6895Z" fill="#388E75"/>
<path d="M6 45.1895H10.5V49.6895H6V45.1895Z" fill="#388E75"/>
<path d="M45.375 23.8145H51L47.625 29.4395H53.25L45.375 39.5645V33.9395H39.75L45.375 23.8145Z" fill="#FCF05A"/>
<path d="M13.875 36.1895H25.125V38.4395H13.875V36.1895Z" fill="#FCF05A"/>
<path d="M13.875 40.6895H18.375V42.9395H13.875V40.6895Z" fill="#FCF05A"/>
<path d="M20.625 40.6895H25.125V42.9395H20.625V40.6895Z" fill="#FCF05A"/>
<path d="M53.25 51.9395H49.875V49.6895H52.125V44.0645H54.375V50.8145C54.375 51.1128 54.2565 51.399 54.0455 51.6099C53.8345 51.8209 53.5484 51.9395 53.25 51.9395Z" fill="#F4F4E6"/>
<path d="M45.375 49.6895H47.625V51.9395H45.375V49.6895Z" fill="#F4F4E6"/>
<path d="M40.875 49.6895H43.125V51.9395H40.875V49.6895Z" fill="#F4F4E6"/>
<path d="M36.375 5.81445H56.625V10.3145H36.375V5.81445Z" fill="#7D8D9C"/>
<path d="M38.625 10.3145H43.125V14.8145H38.625V10.3145Z" fill="#394D5C"/>
<path d="M49.875 10.3145H54.375V14.8145H49.875V10.3145Z" fill="#394D5C"/>
<path d="M58.875 9.18945H56.625V6.93945H58.875C59.1734 6.93945 59.4595 6.82093 59.6705 6.60995C59.8815 6.39897 60 6.11282 60 5.81445V0.189453H62.25V5.81445C62.25 6.70956 61.8944 7.568 61.2615 8.20094C60.6285 8.83387 59.7701 9.18945 58.875 9.18945Z" fill="#32B1CC"/>
</svg>
