<svg width="32" height="33" viewBox="0 0 32 33" fill="none" xmlns="http://www.w3.org/2000/svg">
<rect y="0.969727" width="31.9583" height="32" rx="8" fill="#F14156"/>
<g clip-path="url(#clip0_1765_51372)">
<path d="M11.4018 16.5471H20.5565C21.1391 16.5471 23.4694 16.131 23.4694 14.0503C23.4694 11.9697 21.1391 11.5536 20.5565 11.5536H11.6515C11.3186 12.5523 10.4031 13.2181 9.32119 13.2181C7.90637 13.2181 6.82445 12.1362 6.82445 10.7214C6.82445 9.30653 7.90637 8.22461 9.32119 8.22461C10.4031 8.22461 11.3186 8.89041 11.6515 9.88911H20.5565C22.4707 9.88911 25.1339 11.2207 25.1339 14.0503C25.1339 16.88 22.4707 18.2116 20.5565 18.2116H11.4018C10.8192 18.2116 8.48895 18.6277 8.48895 20.7083C8.48895 22.789 10.8192 23.2051 11.4018 23.2051H20.3069C20.6398 22.2064 21.5552 21.5406 22.6372 21.5406C24.052 21.5406 25.1339 22.6225 25.1339 24.0373C25.1339 25.4522 24.052 26.5341 22.6372 26.5341C21.5552 26.5341 20.6398 25.8683 20.3069 24.8696H11.4018C9.48764 24.8696 6.82445 23.538 6.82445 20.7083C6.82445 17.8787 9.48764 16.5471 11.4018 16.5471ZM9.32119 9.88911C8.82184 9.88911 8.48895 10.222 8.48895 10.7214C8.48895 11.2207 8.82184 11.5536 9.32119 11.5536C9.82054 11.5536 10.1534 11.2207 10.1534 10.7214C10.1534 10.222 9.82054 9.88911 9.32119 9.88911ZM22.6372 24.8696C23.1365 24.8696 23.4694 24.5367 23.4694 24.0373C23.4694 23.538 23.1365 23.2051 22.6372 23.2051C22.1378 23.2051 21.8049 23.538 21.8049 24.0373C21.8049 24.5367 22.1378 24.8696 22.6372 24.8696Z" fill="white"/>
</g>
<defs>
<clipPath id="clip0_1765_51372">
<rect width="19.974" height="19.974" fill="white" transform="translate(5.99219 7.39258)"/>
</clipPath>
</defs>
</svg>
