<svg width="20" height="21" viewBox="0 0 20 21" fill="none" xmlns="http://www.w3.org/2000/svg">
<path d="M15 2.76953H19C19.2652 2.76953 19.5196 2.87489 19.7071 3.06242C19.8946 3.24996 20 3.50431 20 3.76953V19.7695C20 20.0347 19.8946 20.2891 19.7071 20.4766C19.5196 20.6642 19.2652 20.7695 19 20.7695H1C0.734784 20.7695 0.48043 20.6642 0.292893 20.4766C0.105357 20.2891 0 20.0347 0 19.7695V3.76953C0 3.50431 0.105357 3.24996 0.292893 3.06242C0.48043 2.87489 0.734784 2.76953 1 2.76953H5V0.769531H7V2.76953H13V0.769531H15V2.76953ZM13 4.76953H7V6.76953H5V4.76953H2V8.76953H18V4.76953H15V6.76953H13V4.76953ZM18 10.7695H2V18.7695H18V10.7695Z" fill="#AFB1B6"/>
</svg>
