<svg width="20" height="21" viewBox="0 0 20 21" fill="none" xmlns="http://www.w3.org/2000/svg">
<rect y="0.0625" width="20" height="20" rx="4" fill="#D17800"/>
<path d="M10 12.3958C9.88465 12.3958 9.77187 12.43 9.67594 12.4941C9.58001 12.5582 9.50524 12.6493 9.46109 12.7559C9.41694 12.8625 9.40539 12.9798 9.4279 13.093C9.45041 13.2061 9.50596 13.3101 9.58754 13.3916C9.66912 13.4732 9.77306 13.5288 9.88622 13.5513C9.99938 13.5738 10.1167 13.5622 10.2233 13.5181C10.3298 13.4739 10.4209 13.3992 10.485 13.3033C10.5491 13.2073 10.5834 13.0945 10.5834 12.9792C10.5834 12.8245 10.5219 12.6761 10.4125 12.5667C10.3031 12.4573 10.1547 12.3958 10 12.3958ZM16.2242 13.2533L11.5284 5.08667C11.3766 4.81455 11.1549 4.58789 10.8862 4.43011C10.6175 4.27232 10.3116 4.18913 10 4.18913C9.68844 4.18913 9.3825 4.27232 9.11383 4.43011C8.84515 4.58789 8.62347 4.81455 8.47169 5.08667L3.80502 13.2533C3.64799 13.5182 3.5636 13.8198 3.5604 14.1276C3.55719 14.4355 3.63527 14.7388 3.78676 15.0069C3.93824 15.2749 4.15777 15.4983 4.42317 15.6544C4.68858 15.8104 4.99046 15.8937 5.29836 15.8958H14.7017C15.0121 15.8989 15.3176 15.8194 15.5871 15.6654C15.8566 15.5114 16.0803 15.2885 16.2353 15.0196C16.3902 14.7506 16.4708 14.4453 16.4689 14.1349C16.467 13.8246 16.3825 13.5203 16.2242 13.2533ZM15.215 14.42C15.1639 14.511 15.0893 14.5866 14.999 14.6389C14.9087 14.6912 14.806 14.7184 14.7017 14.7175H5.29836C5.194 14.7184 5.09133 14.6912 5.00104 14.6389C4.91075 14.5866 4.83615 14.511 4.78502 14.42C4.73382 14.3313 4.70687 14.2307 4.70687 14.1283C4.70687 14.0259 4.73382 13.9253 4.78502 13.8367L9.45169 5.67C9.50064 5.57445 9.57501 5.49426 9.66662 5.43827C9.75822 5.38227 9.86349 5.35264 9.97086 5.35264C10.0782 5.35264 10.1835 5.38227 10.2751 5.43827C10.3667 5.49426 10.4411 5.57445 10.49 5.67L15.1859 13.8367C15.2437 13.9241 15.277 14.0255 15.2821 14.1302C15.2873 14.2349 15.2641 14.339 15.215 14.4317V14.42ZM10 7.72917C9.84531 7.72917 9.69694 7.79063 9.58754 7.90002C9.47815 8.00942 9.41669 8.15779 9.41669 8.3125V10.6458C9.41669 10.8005 9.47815 10.9489 9.58754 11.0583C9.69694 11.1677 9.84531 11.2292 10 11.2292C10.1547 11.2292 10.3031 11.1677 10.4125 11.0583C10.5219 10.9489 10.5834 10.8005 10.5834 10.6458V8.3125C10.5834 8.15779 10.5219 8.00942 10.4125 7.90002C10.3031 7.79063 10.1547 7.72917 10 7.72917Z" fill="white"/>
</svg>
