<svg width="20" height="20" viewBox="0 0 20 20" fill="none" xmlns="http://www.w3.org/2000/svg">
<rect y="0.769226" width="20" height="18.4615" rx="4" fill="#DFAE00"/>
<path d="M16.1125 12.2982L13.4489 11.0697V6.8081C13.4489 6.05155 12.7815 5.43556 11.962 5.43556H11.7326V4.99656C11.7326 4.48988 11.2852 4.0769 10.7363 4.0769H9.26446C8.71556 4.0769 8.26817 4.48988 8.26817 4.99656V5.43556H8.03883C7.21924 5.43556 6.55192 6.05155 6.55192 6.8081V7.88565L4.3394 6.86536C4.08939 6.75083 3.78487 6.84453 3.6608 7.07358C3.53673 7.30436 3.63824 7.58546 3.88637 7.69998L6.55004 8.9285V8.93371L7.56137 9.40047V9.39527L12.4375 11.6458V11.651L13.4489 12.1178V12.1126L15.6595 13.1346C15.7309 13.1676 15.8061 13.1832 15.8851 13.1832C16.0787 13.1832 16.2516 13.0843 16.3381 12.9246C16.4641 12.6956 16.3625 12.4145 16.1125 12.2982ZM8.03883 6.36909H8.77383H11.227H11.962C12.2232 6.36909 12.4375 6.56517 12.4375 6.8081V10.603L7.56325 8.35242V6.8081C7.56325 6.56517 7.77566 6.36909 8.03883 6.36909ZM10.7213 5.43556H9.27949V5.01044H10.7194V5.43556H10.7213Z" fill="white"/>
<path d="M12.4376 14.5506C12.4376 14.7917 12.2251 14.9896 11.962 14.9896H8.03886C7.77756 14.9896 7.56327 14.7935 7.56327 14.5506V9.87595L6.55194 9.40918V14.5506C6.55194 15.3071 7.21927 15.9231 8.03886 15.9231H11.962C12.7816 15.9231 13.4489 15.3071 13.4489 14.5506V12.5933L12.4376 12.1265V14.5506Z" fill="white"/>
</svg>
