<svg width="18" height="18" viewBox="0 0 18 18" fill="none" xmlns="http://www.w3.org/2000/svg">
<path d="M9.00033 17.3327C4.39783 17.3327 0.666992 13.6018 0.666992 8.99935C0.666992 4.39685 4.39783 0.666016 9.00033 0.666016C13.6028 0.666016 17.3337 4.39685 17.3337 8.99935C17.3337 13.6018 13.6028 17.3327 9.00033 17.3327ZM9.00033 15.666C10.7684 15.666 12.4641 14.9636 13.7144 13.7134C14.9646 12.4632 15.667 10.7675 15.667 8.99935C15.667 7.23124 14.9646 5.53555 13.7144 4.2853C12.4641 3.03506 10.7684 2.33268 9.00033 2.33268C7.23222 2.33268 5.53652 3.03506 4.28628 4.2853C3.03604 5.53555 2.33366 7.23124 2.33366 8.99935C2.33366 10.7675 3.03604 12.4632 4.28628 13.7134C5.53652 14.9636 7.23222 15.666 9.00033 15.666ZM9.00033 7.82102L11.357 5.46352L12.5362 6.64268L10.1787 8.99935L12.5362 11.356L11.357 12.5352L9.00033 10.1777L6.64366 12.5352L5.46449 11.356L7.82199 8.99935L5.46449 6.64268L6.64366 5.46352L9.00033 7.82102Z" fill="#AFB1B6"/>
</svg>
