<svg width="23" height="20" viewBox="0 0 23 20" fill="none" xmlns="http://www.w3.org/2000/svg">
<rect x="0.415771" y="3.05176e-05" width="22.1234" height="20" rx="4" fill="#3E97FF"/>
<path d="M9.57183 5.03966H6.33081V5.64371H9.57183V5.03966Z" fill="white"/>
<path d="M16.0258 14.4078H6.34692V15.5183H16.0258V14.4078Z" fill="white"/>
<path d="M16.6245 6.20035V9.70313H10.8437V6.20035H5.04688V13.9358H17.2964V6.20035H16.6245ZM8.53016 9.78697H5.9177V9.1382H8.4721V9.78697H8.53016ZM8.53016 8.78886H5.9177V8.14008H8.4721V8.78886H8.53016ZM8.53016 7.79074H5.9177V7.09885H8.4721V7.79074H8.53016Z" fill="white"/>
<path d="M11.4775 5.03966V9.13392H16.0148V5.03966H11.4775ZM14.8883 6.75353L12.6686 8.75306H12.6145C12.6145 8.75306 12.6145 8.75306 12.5603 8.75306C12.5062 8.75306 12.5062 8.70545 12.5062 8.70545L13.3183 7.32483H12.6145H12.5603V7.27722L13.5889 5.70617L13.6431 5.65856H14.78C14.78 5.65856 14.8341 5.65856 14.8341 5.70617V5.75377L14.0221 6.70593H14.8341C14.8883 6.70593 14.8883 6.70593 14.8883 6.75353C14.8883 6.70593 14.8883 6.70593 14.8883 6.75353Z" fill="white"/>
</svg>
