<svg width="25" height="24" viewBox="0 0 25 24" fill="none" xmlns="http://www.w3.org/2000/svg">
<path d="M9.34087 2.5017C8.52454 2.29968 7.50413 2.09766 6.68781 2.09766C5.87148 2.09766 4.85107 2.29968 4.03474 2.5017C3.32046 2.60271 2.81025 3.20877 2.70821 3.91584C2.60617 4.72392 2.30005 6.34008 2.30005 7.45119C2.30005 8.5623 2.50413 9.97645 2.60617 10.9865C2.70821 11.6936 3.21842 12.2996 3.9327 12.4006C4.64699 12.6027 5.76944 12.7037 6.58576 12.7037C7.40209 12.7037 8.4225 12.5017 9.23883 12.4006C9.95311 12.2996 10.4633 11.6936 10.5653 10.9865C10.7694 9.97645 10.8714 8.5623 10.8714 7.45119C10.8714 6.34008 10.6673 4.72392 10.5653 3.91584C10.5653 3.20877 10.0551 2.60271 9.34087 2.5017Z" fill="#3E97FF"/>
<path d="M20.5654 11.5926C19.8511 11.3906 18.7287 11.2896 17.9124 11.2896C17.096 11.2896 16.0756 11.4916 15.2593 11.5926C14.545 11.6936 14.0348 12.2997 13.9328 13.0068C13.7287 14.0169 13.6266 15.431 13.6266 16.5421C13.6266 17.6532 13.8307 19.0673 13.9328 20.0774C14.0348 20.7844 14.545 21.3906 15.2593 21.4916C15.9736 21.6936 17.096 21.7945 17.9124 21.7945C18.7287 21.7945 19.7491 21.5926 20.5654 21.4916C21.2797 21.3906 21.7899 20.7844 21.8919 20.0774C22.096 19.0673 22.1981 17.6532 22.1981 16.5421C22.1981 15.431 22.096 14.0169 21.8919 13.0068C21.7899 12.2997 21.2797 11.6936 20.5654 11.5926Z" fill="#3E97FF"/>
<path d="M9.44291 15.6331C8.62658 15.4311 7.60617 15.3301 6.68781 15.3301C5.76944 15.3301 4.74903 15.5321 3.9327 15.6331C3.32046 15.7341 2.81025 16.2392 2.60617 16.8452C2.40209 17.5523 2.30005 18.1584 2.30005 18.6634C2.30005 19.1685 2.40209 19.6735 2.60617 20.4816C2.81025 21.0877 3.32046 21.4917 3.9327 21.6937C4.74903 21.8958 5.76944 21.9968 6.68781 21.9968C7.60617 21.9968 8.62658 21.7947 9.44291 21.6937C10.0551 21.5927 10.5653 21.0877 10.7694 20.4816C10.9735 19.7745 11.0755 19.1685 11.0755 18.6634C11.0755 18.1584 10.9735 17.6533 10.7694 16.8452C10.5653 16.1382 10.0551 15.7341 9.44291 15.6331Z" fill="#3E97FF"/>
<path d="M15.1571 8.36021C15.9735 8.56224 16.9939 8.66325 17.9122 8.66325C18.8306 8.66325 19.851 8.46123 20.6673 8.36021C21.2796 8.2592 21.7898 7.75415 21.9939 7.14809C22.198 6.44102 22.3 5.83496 22.3 5.32991C22.3 4.82486 22.198 4.31981 21.9939 3.51173C21.7898 2.90567 21.2796 2.50163 20.6673 2.29961C19.851 2.09759 18.8306 1.99658 17.9122 1.99658C16.9939 1.99658 15.9735 2.1986 15.1571 2.29961C14.5449 2.40062 14.0347 2.90567 13.8306 3.51173C13.6265 4.2188 13.5245 4.82486 13.5245 5.32991C13.5245 5.83496 13.6265 6.34001 13.8306 7.14809C14.0347 7.85516 14.5449 8.2592 15.1571 8.36021Z" fill="#3E97FF"/>
</svg>
