<svg width="42" height="43" viewBox="0 0 42 43" fill="none" xmlns="http://www.w3.org/2000/svg">
<rect y="0.5" width="42" height="42" rx="21" fill="#FFECF1"/>
<path d="M11.4135 10.7963L21 8.66602L30.5865 10.7963C30.8456 10.8539 31.0773 10.9981 31.2433 11.2052C31.4094 11.4122 31.5 11.6696 31.5 11.935V23.5865C31.4999 24.7389 31.2153 25.8734 30.6715 26.8894C30.1277 27.9053 29.3415 28.7713 28.3827 29.4105L21 34.3327L13.6173 29.4105C12.6587 28.7715 11.8725 27.9056 11.3287 26.8899C10.7849 25.8741 10.5003 24.7398 10.5 23.5877V11.935C10.5 11.6696 10.5906 11.4122 10.7567 11.2052C10.9227 10.9981 11.1544 10.8539 11.4135 10.7963ZM12.8333 12.8707V23.5865C12.8333 24.3547 13.023 25.111 13.3855 25.7884C13.7479 26.4657 14.272 27.043 14.9112 27.4692L21 31.5292L27.0888 27.4692C27.7278 27.0431 28.2518 26.466 28.6143 25.7889C28.9767 25.1118 29.1665 24.3557 29.1667 23.5877V12.8707L21 11.0577L12.8333 12.8707ZM21 20.3327C20.2265 20.3327 19.4846 20.0254 18.9376 19.4784C18.3906 18.9314 18.0833 18.1896 18.0833 17.416C18.0833 16.6425 18.3906 15.9006 18.9376 15.3536C19.4846 14.8066 20.2265 14.4993 21 14.4993C21.7735 14.4993 22.5154 14.8066 23.0624 15.3536C23.6094 15.9006 23.9167 16.6425 23.9167 17.416C23.9167 18.1896 23.6094 18.9314 23.0624 19.4784C22.5154 20.0254 21.7735 20.3327 21 20.3327ZM15.7815 26.166C15.9229 24.8808 16.5336 23.693 17.4966 22.8302C18.4596 21.9674 19.707 21.4903 21 21.4903C22.293 21.4903 23.5404 21.9674 24.5034 22.8302C25.4664 23.693 26.0771 24.8808 26.2185 26.166H15.7815Z" fill="#F14156"/>
</svg>
