<svg width="32" height="33" viewBox="0 0 32 33" fill="none" xmlns="http://www.w3.org/2000/svg">
<rect y="0.969727" width="31.9583" height="32" rx="8" fill="#E78500"/>
<g clip-path="url(#clip0_1765_51384)">
<path d="M14.2236 22.2822H17.7347V23.4541H14.2236V22.2822Z" fill="white"/>
<path d="M10.7126 24.8214C10.7126 26.0061 11.6751 26.9699 12.8582 26.9699H19.1001C20.2832 26.9699 21.2457 26.0061 21.2457 24.8214V20.2617L10.7126 14.9883V24.8214ZM13.0533 21.6964C13.0533 21.3729 13.3153 21.1105 13.6385 21.1105H18.3199C18.643 21.1105 18.905 21.3729 18.905 21.6964V24.0402C18.905 24.3638 18.643 24.6261 18.3199 24.6261H13.6385C13.3153 24.6261 13.0533 24.3638 13.0533 24.0402V21.6964Z" fill="white"/>
<path d="M21.2457 11.8525C21.2457 10.6679 20.2832 9.7041 19.1001 9.7041H12.8582C11.6751 9.7041 10.7126 10.6679 10.7126 11.8525V13.6779L21.2457 18.9513V11.8525Z" fill="white"/>
<path d="M6.87811 11.7579C6.48905 11.5631 6.03125 11.8464 6.03125 12.282C6.03125 12.504 6.15648 12.7069 6.35473 12.8061L10.7126 14.9879V13.6777L6.87811 11.7579Z" fill="white"/>
<path d="M25.6036 21.133L21.2457 18.9512V20.2614L25.0803 22.1812C25.4693 22.376 25.9271 22.0927 25.9271 21.6571C25.9271 21.4351 25.8019 21.2323 25.6036 21.133Z" fill="white"/>
<path d="M17.9298 7.75098C17.9298 7.31949 17.5804 6.96973 17.1495 6.96973H14.8088C14.3779 6.96973 14.0286 7.31949 14.0286 7.75098V8.53223H17.9298V7.75098Z" fill="white"/>
</g>
<defs>
<clipPath id="clip0_1765_51384">
<rect width="19.974" height="20" fill="white" transform="translate(5.99219 6.96973)"/>
</clipPath>
</defs>
</svg>
