<svg width="110" height="110" viewBox="0 0 110 110" fill="none" xmlns="http://www.w3.org/2000/svg">
<path d="M72.5475 100H37.4526C36.7532 100 36.0826 99.7223 35.5883 99.2276L10.7724 74.4119C10.2777 73.9174 10 73.2468 10 72.5475V37.4525C10 36.7532 10.2777 36.0826 10.7724 35.5881L35.5881 10.7724C36.0826 10.2777 36.7532 10 37.4526 10H72.5475C73.247 10 73.9176 10.2779 74.4119 10.7724L99.2276 35.5881C99.7221 36.0826 100 36.7532 100 37.4525V72.5474C100 73.2466 99.7223 73.9172 99.2276 74.4117L74.4121 99.2276C73.9176 99.7221 73.247 100 72.5475 100Z" fill="#E9F3FC"/>
<path d="M55 62.9102C50.6383 62.9102 47.0898 59.3617 47.0898 55V33.9062C47.0898 29.5446 50.6383 25.9961 55 25.9961C59.3617 25.9961 62.9102 29.5446 62.9102 33.9062V55C62.9102 59.3617 59.3617 62.9102 55 62.9102Z" fill="#A4BBDB"/>
<path d="M55 84.0039C50.6383 84.0039 47.0898 80.4554 47.0898 76.0938C47.0898 71.7321 50.6383 68.1836 55 68.1836C59.3617 68.1836 62.9102 71.7321 62.9102 76.0938C62.9102 80.4554 59.3617 84.0039 55 84.0039Z" fill="#A4BBDB"/>
</svg>
