<svg width="30" height="34" viewBox="0 0 30 34" fill="none" xmlns="http://www.w3.org/2000/svg">
<path fill-rule="evenodd" clip-rule="evenodd" d="M20.0002 0.333496L29.9999 10.3332L29.9999 32.3334C29.9999 33.0698 29.403 33.6667 28.6666 33.6667H4.66658C3.9302 33.6667 3.33325 33.0698 3.33325 32.3334V1.66683C3.33325 0.930449 3.9302 0.333496 4.66658 0.333496H20.0002Z" fill="#F1F5F9"/>
<path d="M20 10.3335L30 10.3335L20 0.333496L20 10.3335Z" fill="#DDE4EE"/>
<rect y="14.9995" width="24" height="12" rx="0.666666" fill="#13B35C"/>
<path d="M10.952 21.0075L9.112 18.2875H10.568L11.688 20.1115L12.848 18.2875H14.224L12.392 21.0155L14.384 23.9995H12.888L11.64 22.0235L10.368 23.9995H8.96L10.952 21.0075Z" fill="white"/>
</svg>
