<svg width="25" height="24" viewBox="0 0 25 24" fill="none" xmlns="http://www.w3.org/2000/svg">
<g clip-path="url(#clip0_2652_12881)">
<path d="M0.930298 12C0.930298 18.6274 6.30288 24 12.9303 24C19.5577 24 24.9303 18.6274 24.9303 12C24.9303 5.37258 19.5577 0 12.9303 0C6.30288 0 0.930298 5.37258 0.930298 12Z" fill="#EEF6FF"/>
<path d="M18.677 10.9171L13.8696 15.6685C13.7654 15.7736 13.6415 15.8569 13.5049 15.9138C13.3683 15.9707 13.2219 16 13.0739 16C12.926 16 12.7795 15.9707 12.643 15.9138C12.5064 15.8569 12.3825 15.7736 12.2783 15.6685L7.52691 10.9171C7.42188 10.813 7.33851 10.689 7.28162 10.5525C7.22473 10.4159 7.19543 10.2694 7.19543 10.1215C7.19543 9.97357 7.22473 9.8271 7.28162 9.69054C7.33851 9.55398 7.42188 9.43004 7.52691 9.32587C7.73687 9.11715 8.02089 9 8.31694 9C8.61299 9 8.89701 9.11715 9.10697 9.32587L13.0739 13.2928L17.0409 9.32587C17.2496 9.11884 17.5313 9.00213 17.8253 9.00089C17.9728 9.00004 18.119 9.0283 18.2555 9.08407C18.3921 9.13984 18.5163 9.22201 18.621 9.32587C18.7297 9.42629 18.8175 9.54728 18.8793 9.68184C18.9411 9.8164 18.9755 9.96186 18.9807 10.1098C18.986 10.2578 18.9618 10.4053 18.9097 10.5439C18.8575 10.6824 18.7784 10.8093 18.677 10.9171Z" fill="#3E97FF"/>
</g>
<defs>
<clipPath id="clip0_2652_12881">
<rect width="24" height="24" fill="white" transform="matrix(1 0 0 -1 0.930298 24)"/>
</clipPath>
</defs>
</svg>
