<svg width="101" height="80" viewBox="0 0 101 80" fill="none" xmlns="http://www.w3.org/2000/svg">
<path fill-rule="evenodd" clip-rule="evenodd" d="M90.1097 27.8623H10.8904V64.525C10.8904 66.2738 12.0371 67.8166 13.7126 68.3196C21.6721 70.7061 44.0556 77.4219 49.3613 79.0143C50.104 79.2361 50.8962 79.2361 51.6388 79.0143C56.9446 77.4219 79.328 70.7061 87.2876 68.3196C88.9631 67.8166 90.1097 66.2738 90.1097 64.525C90.1097 55.3435 90.1097 27.8623 90.1097 27.8623Z" fill="#B6CDE7"/>
<path fill-rule="evenodd" clip-rule="evenodd" d="M90.1096 27.8623H50.4999C50.4999 27.8623 50.1156 79.1806 50.4999 79.1806C50.8841 79.1806 51.2663 79.1252 51.6386 79.0143C56.9444 77.4219 79.3278 70.7061 87.2874 68.3196C88.9629 67.8166 90.1096 66.2738 90.1096 64.525C90.1096 55.3435 90.1096 27.8623 90.1096 27.8623Z" fill="#A4BBDB"/>
<path fill-rule="evenodd" clip-rule="evenodd" d="M50.5 40.7137L10.8903 27.8623C10.8903 27.8623 3.94475 38.1608 0.839352 42.7635C0.490786 43.2804 0.405625 43.928 0.607635 44.5162C0.811625 45.1044 1.27704 45.5619 1.8692 45.756C9.39306 48.1999 31.6656 55.4366 37.508 57.3339C38.3458 57.6072 39.2647 57.2923 39.7598 56.5615C42.4157 52.6421 50.5 40.7137 50.5 40.7137Z" fill="url(#paint0_linear_3294_5157)"/>
<path fill-rule="evenodd" clip-rule="evenodd" d="M90.1097 27.8623L50.5 40.7137C50.5 40.7137 58.5843 52.6421 61.2402 56.5615C61.7353 57.2923 62.6542 57.6072 63.492 57.3339C69.3344 55.4366 91.6069 48.1999 99.1308 45.756C99.723 45.5619 100.188 45.1044 100.392 44.5162C100.594 43.928 100.509 43.2804 100.161 42.7635C97.0552 38.1608 90.1097 27.8623 90.1097 27.8623Z" fill="url(#paint1_linear_3294_5157)"/>
<path fill-rule="evenodd" clip-rule="evenodd" d="M40.9124 0.866006C40.4173 0.139169 39.5003 -0.175729 38.6626 0.0975775C32.8241 1.9929 10.5457 9.23157 3.02179 11.6775C2.42963 11.8696 1.96223 12.3271 1.76022 12.9153C1.55821 13.5035 1.64337 14.1531 1.99194 14.668C4.85176 18.9102 10.8903 27.862 10.8903 27.862L50.4999 14.9671C50.4999 14.9671 43.386 4.50416 40.9124 0.866006Z" fill="url(#paint2_linear_3294_5157)"/>
<path fill-rule="evenodd" clip-rule="evenodd" d="M99.008 14.668C99.3566 14.1531 99.4417 13.5035 99.2397 12.9153C99.0377 12.3271 98.5703 11.8696 97.9781 11.6775C90.4543 9.23157 68.1758 1.9929 62.3374 0.0975775C61.4996 -0.175729 60.5826 0.139169 60.0875 0.866006C57.6139 4.50416 50.5 14.9671 50.5 14.9671L90.1097 27.862C90.1097 27.862 96.1482 18.9102 99.008 14.668Z" fill="#E9F3FC"/>
<path fill-rule="evenodd" clip-rule="evenodd" d="M90.1097 27.8617L50.5001 14.9668L10.8904 27.8617L50.5001 40.7131L90.1097 27.8617Z" fill="#BAD0E8"/>
<path fill-rule="evenodd" clip-rule="evenodd" d="M50.5001 40.7131V14.9668L10.8904 27.8617L50.5001 40.7131Z" fill="#A4BBDB"/>
<defs>
<linearGradient id="paint0_linear_3294_5157" x1="11.1537" y1="27.8465" x2="16.6896" y2="64.4723" gradientUnits="userSpaceOnUse">
<stop stop-color="#E9F3FC"/>
<stop offset="1" stop-color="#CADCF0"/>
</linearGradient>
<linearGradient id="paint1_linear_3294_5157" x1="50.6604" y1="40.579" x2="92.4164" y2="64.5942" gradientUnits="userSpaceOnUse">
<stop stop-color="#E9F3FC"/>
<stop offset="1" stop-color="#CADCF0"/>
</linearGradient>
<linearGradient id="paint2_linear_3294_5157" x1="5.70535" y1="20.1757" x2="11.6805" y2="-7.99129" gradientUnits="userSpaceOnUse">
<stop stop-color="#E9F3FC"/>
<stop offset="1" stop-color="#CADCF0"/>
</linearGradient>
</defs>
</svg>
