<svg width="25" height="25" viewBox="0 0 25 25" fill="none" xmlns="http://www.w3.org/2000/svg">
<g clip-path="url(#clip0_2652_12842)">
<path d="M0.976562 12.75C0.976562 6.12258 6.34915 0.75 12.9766 0.75C19.604 0.75 24.9766 6.12258 24.9766 12.75C24.9766 19.3774 19.604 24.75 12.9766 24.75C6.34915 24.75 0.976562 19.3774 0.976562 12.75Z" fill="#EEF6FF"/>
<path d="M18.7233 13.8329L13.9158 9.08147C13.8117 8.97644 13.6877 8.89307 13.5512 8.83618C13.4146 8.77929 13.2681 8.75 13.1202 8.75C12.9723 8.75 12.8258 8.77929 12.6892 8.83618C12.5527 8.89307 12.4287 8.97644 12.3246 9.08147L7.57317 13.8329C7.46814 13.937 7.38477 14.061 7.32788 14.1975C7.27099 14.3341 7.2417 14.4806 7.2417 14.6285C7.2417 14.7764 7.27099 14.9229 7.32788 15.0595C7.38477 15.196 7.46814 15.32 7.57317 15.4241C7.78313 15.6328 8.06716 15.75 8.36321 15.75C8.65925 15.75 8.94328 15.6328 9.15324 15.4241L13.1202 11.4572L17.0872 15.4241C17.2959 15.6312 17.5776 15.7479 17.8716 15.7491C18.0191 15.75 18.1653 15.7217 18.3018 15.6659C18.4383 15.6102 18.5625 15.528 18.6672 15.4241C18.776 15.3237 18.8638 15.2027 18.9256 15.0682C18.9873 14.9336 19.0218 14.7881 19.027 14.6402C19.0322 14.4922 19.0081 14.3447 18.9559 14.2061C18.9038 14.0676 18.8247 13.9407 18.7233 13.8329Z" fill="#3E97FF"/>
</g>
<defs>
<clipPath id="clip0_2652_12842">
<rect width="24" height="24" fill="white" transform="translate(0.976562 0.75)"/>
</clipPath>
</defs>
</svg>
