<svg width="42" height="43" viewBox="0 0 42 43" fill="none" xmlns="http://www.w3.org/2000/svg">
<rect y="0.5" width="42" height="42" rx="21" fill="#FEF5E1"/>
<path fill-rule="evenodd" clip-rule="evenodd" d="M10.2471 11.0605C10.2471 9.40369 11.5902 8.06055 13.2471 8.06055H31.7522V31.942C31.7522 33.5989 30.4091 34.942 28.7522 34.942H13.2471C11.5902 34.942 10.2471 33.5989 10.2471 31.942V11.0605ZM20.9995 31.4463C17.2647 31.4463 14.2373 28.4188 14.2373 24.6841C14.2373 20.9493 17.2647 17.9219 20.9995 17.9219C24.7343 17.9219 27.7617 20.9493 27.7617 24.6841C27.7617 28.4188 24.7343 31.4463 20.9995 31.4463ZM20.3233 26.7127V28.0652H21.6757V26.7127H20.3233ZM20.3233 21.303V25.3603H21.6757V21.303H20.3233ZM23.6873 8.06154L31.7517 8.06153V16.126L23.6873 8.06154Z" fill="#FFA128"/>
<path d="M23.6885 16.123L31.7529 16.123L23.6885 8.05859L23.6885 16.123Z" fill="#F17D35"/>
</svg>
