<svg width="20" height="20" viewBox="0 0 20 20" fill="none" xmlns="http://www.w3.org/2000/svg">
<rect width="20" height="20" rx="4" fill="#F14156"/>
<path fill-rule="evenodd" clip-rule="evenodd" d="M4.63296 15.8144H3.18941C2.90069 15.8144 2.66669 15.5804 2.66669 15.2917V13.4196C2.66669 13.1309 2.90069 12.8969 3.18941 12.8969H4.63296C4.92167 12.8969 5.15568 13.1309 5.15568 13.4196V15.2917C5.15568 15.5804 4.92167 15.8144 4.63296 15.8144Z" fill="white"/>
<path fill-rule="evenodd" clip-rule="evenodd" d="M7.67825 15.8145H6.23469C5.94598 15.8145 5.71198 15.5805 5.71198 15.2917V11.4716C5.71198 11.1829 5.94598 10.9489 6.23469 10.9489H7.67825C7.96696 10.9489 8.20097 11.1829 8.20097 11.4716V15.2917C8.20097 15.5805 7.96696 15.8145 7.67825 15.8145Z" fill="white"/>
<path fill-rule="evenodd" clip-rule="evenodd" d="M10.7233 15.8146H9.27974C8.99103 15.8146 8.75702 15.5806 8.75702 15.2919V9.53587C8.75702 9.24716 8.99103 9.01315 9.27974 9.01315H10.7233C11.012 9.01315 11.246 9.24716 11.246 9.53587V15.2919C11.246 15.5806 11.012 15.8146 10.7233 15.8146Z" fill="white"/>
<path fill-rule="evenodd" clip-rule="evenodd" d="M14.6286 10.4779C13.1546 10.4779 11.9603 11.6722 11.9603 13.1462C11.9603 14.6201 13.1546 15.8145 14.6286 15.8145C16.1025 15.8145 17.2969 14.6201 17.2969 13.1462C17.2969 11.6722 16.1025 10.4779 14.6286 10.4779ZM15.9384 14.0245C16.0569 14.143 16.0569 14.3375 15.9384 14.456C15.8199 14.5745 15.6254 14.5745 15.5068 14.456L14.6286 13.5777L13.7503 14.456C13.6317 14.5745 13.4372 14.5745 13.3187 14.456C13.2002 14.3375 13.2002 14.143 13.3187 14.0245L14.197 13.1462L13.3187 12.2679C13.2002 12.1494 13.2002 11.9549 13.3187 11.8363C13.4372 11.7178 13.6317 11.7178 13.7503 11.8363L14.6286 12.7146L15.5068 11.8363C15.6254 11.7178 15.8199 11.7178 15.9384 11.8363C16.0569 11.9549 16.0569 12.1494 15.9384 12.2679L15.0601 13.1462L15.9384 14.0245Z" fill="white"/>
<path fill-rule="evenodd" clip-rule="evenodd" d="M17.3334 11.5233V5.63665C17.3334 5.34794 17.0993 5.11393 16.8106 5.11393H15.3671C15.0784 5.11393 14.8444 5.34794 14.8444 5.63665V10.0007C15.902 10.0706 16.8167 10.6633 17.3334 11.5233Z" fill="white"/>
<path fill-rule="evenodd" clip-rule="evenodd" d="M16.309 15.8144H16.8105C17.0992 15.8144 17.3332 15.5803 17.3332 15.2916V14.7689C17.0779 15.1913 16.7284 15.55 16.309 15.8144Z" fill="white"/>
<path fill-rule="evenodd" clip-rule="evenodd" d="M14.2911 10.0098V7.56944C14.2911 7.28073 14.0571 7.04672 13.7684 7.04672H12.3248C12.0361 7.04672 11.8021 7.28073 11.8021 7.56944V11.7512C12.2671 10.806 13.1971 10.1283 14.2911 10.0098Z" fill="white"/>
<path fill-rule="evenodd" clip-rule="evenodd" d="M11.7991 14.541V15.2916C11.7991 15.5804 12.0331 15.8144 12.3219 15.8144H12.9479C12.4586 15.5044 12.0605 15.0637 11.7991 14.541Z" fill="white"/>
</svg>
