<svg width="25" height="25" viewBox="0 0 25 25" fill="none" xmlns="http://www.w3.org/2000/svg">
<path d="M17.3928 4.51888H21.0595C21.3026 4.51888 21.5358 4.61546 21.7077 4.78737C21.8796 4.95927 21.9762 5.19243 21.9762 5.43555V20.1022C21.9762 20.3453 21.8796 20.5785 21.7077 20.7504C21.5358 20.9223 21.3026 21.0189 21.0595 21.0189H4.55949C4.31637 21.0189 4.08322 20.9223 3.91131 20.7504C3.7394 20.5785 3.64282 20.3453 3.64282 20.1022V5.43555C3.64282 5.19243 3.7394 4.95927 3.91131 4.78737C4.08322 4.61546 4.31637 4.51888 4.55949 4.51888H8.22616V2.68555H10.0595V4.51888H15.5595V2.68555H17.3928V4.51888ZM15.5595 6.35221H10.0595V8.18555H8.22616V6.35221H5.47616V10.0189H20.1428V6.35221H17.3928V8.18555H15.5595V6.35221ZM20.1428 11.8522H5.47616V19.1855H20.1428V11.8522Z" fill="#AFB1B6"/>
</svg>
