<svg width="32" height="32" viewBox="0 0 32 32" fill="none" xmlns="http://www.w3.org/2000/svg">
<rect width="31.9583" height="32" rx="8" fill="#50CD89"/>
<g clip-path="url(#clip0_340_713)">
<path d="M7.05674 13.8715C7.12745 13.9003 7.20227 13.9147 7.2771 13.9147C7.35451 13.9147 7.43192 13.8993 7.50461 13.8684L9.25496 13.1289C9.55257 13.003 9.69216 12.6593 9.56644 12.3612C9.44087 12.063 9.09754 11.9234 8.79977 12.0491L8.37171 12.2301C9.70009 9.20215 12.7058 7.21118 16.0502 7.21118C19.8739 7.21118 23.2131 9.80014 24.1704 13.507C24.2386 13.7711 24.4761 13.9464 24.7365 13.9464C24.785 13.9464 24.8343 13.9403 24.8834 13.9277C25.1963 13.8466 25.3843 13.527 25.3034 13.2137C24.2126 8.98944 20.4074 6.03931 16.0502 6.03931C12.2177 6.03931 8.77585 8.33393 7.27511 11.8171L7.07762 11.3483C6.9519 11.0503 6.60872 10.9105 6.31095 11.0363C6.01318 11.1621 5.87374 11.5059 5.99931 11.8039L6.73794 13.5566C6.79829 13.6997 6.91289 13.8131 7.05674 13.8715Z" fill="white"/>
<path d="M25.881 20.1556L25.1424 18.4031C25.082 18.2598 24.9673 18.1466 24.8236 18.088C24.6797 18.0295 24.5186 18.0306 24.3757 18.091L22.6253 18.8308C22.3277 18.9565 22.1881 19.3003 22.3139 19.5985C22.4394 19.8966 22.7828 20.0362 23.0805 19.9103L23.5705 19.7033C22.2753 22.8124 19.2275 24.8672 15.8303 24.8672C12.0064 24.8672 8.66724 22.2782 7.70993 18.5714C7.62901 18.258 7.30976 18.07 6.9969 18.1507C6.68405 18.2317 6.496 18.5514 6.57692 18.8647C7.66772 23.0889 11.4729 26.039 15.8303 26.039C19.6842 26.039 23.1433 23.7185 24.6303 20.2022L24.8027 20.6112C24.897 20.835 25.1139 20.9695 25.3421 20.9695C25.4179 20.9695 25.4951 20.9547 25.5694 20.9232C25.8671 20.7973 26.0066 20.4537 25.881 20.1556Z" fill="white"/>
<path d="M14.7668 22.4889C14.8315 22.5124 14.8986 22.5235 14.9649 22.5235C15.136 22.5235 15.3026 22.4483 15.4159 22.3109L20.318 16.3736C20.4625 16.1986 20.4929 15.956 20.3965 15.7506C20.2999 15.5453 20.0937 15.4143 19.8671 15.4143H17.7347V10.1019C17.7347 9.85473 17.5799 9.63424 17.3476 9.55047C17.1155 9.46685 16.8559 9.53811 16.6985 9.72854L11.7964 15.6659C11.6519 15.8408 11.6214 16.0835 11.7179 16.2888C11.8145 16.4941 12.0209 16.6252 12.2475 16.6252H14.3798V21.9376C14.3797 22.1848 14.5345 22.4052 14.7668 22.4889Z" fill="white"/>
</g>
<defs>
<clipPath id="clip0_340_713">
<rect width="19.974" height="20" fill="white" transform="translate(5.99219 6.00024)"/>
</clipPath>
</defs>
</svg>
