<svg width="25" height="25" viewBox="0 0 25 25" fill="none" xmlns="http://www.w3.org/2000/svg">
<g clip-path="url(#clip0_2153_8809)">
<path d="M13.6527 6.39393L8.9013 11.2014C8.79627 11.3055 8.7129 11.4295 8.65601 11.566C8.59912 11.7026 8.56982 11.8491 8.56982 11.997C8.56982 12.1449 8.59912 12.2914 8.65601 12.4279C8.7129 12.5645 8.79627 12.6884 8.9013 12.7926L13.6527 17.544C13.7569 17.649 13.8808 17.7324 14.0174 17.7893C14.1539 17.8462 14.3004 17.8755 14.4483 17.8755C14.5963 17.8755 14.7427 17.8462 14.8793 17.7893C15.0158 17.7324 15.1398 17.649 15.244 17.544C15.4527 17.3341 15.5698 17.05 15.5698 16.754C15.5698 16.4579 15.4527 16.1739 15.244 15.964L11.277 11.997L15.244 8.03002C15.451 7.8213 15.5677 7.53958 15.5689 7.2456C15.5698 7.09812 15.5415 6.95192 15.4858 6.81538C15.43 6.67885 15.3478 6.55467 15.244 6.44996C15.1435 6.34118 15.0225 6.25337 14.888 6.19162C14.7534 6.12987 14.608 6.09539 14.46 6.09018C14.312 6.08497 14.1645 6.10913 14.026 6.16127C13.8874 6.2134 13.7605 6.29248 13.6527 6.39393Z" fill="#999BA0"/>
</g>
<defs>
<clipPath id="clip0_2153_8809">
<rect width="24" height="24" fill="white" transform="translate(0.569824 0.140625)"/>
</clipPath>
</defs>
</svg>
