<svg width="30" height="34" viewBox="0 0 30 34" fill="none" xmlns="http://www.w3.org/2000/svg">
<path fill-rule="evenodd" clip-rule="evenodd" d="M20.0002 0.293457L29.9999 10.2932L29.9999 32.2934C29.9999 33.0297 29.403 33.6267 28.6666 33.6267H4.66658C3.9302 33.6267 3.33325 33.0297 3.33325 32.2934V1.62679C3.33325 0.89041 3.9302 0.293457 4.66658 0.293457H20.0002Z" fill="#F1F5F9"/>
<path d="M20 10.2934L30 10.2934L20 0.293457L20 10.2934Z" fill="#DDE4EE"/>
<rect y="14.9595" width="24" height="12" rx="0.666666" fill="#F6AB3B"/>
<path d="M4.552 18.2475H5.808V23.9595H4.552V18.2475ZM6.91138 18.2475H8.67938L10.0154 22.1755H10.0314L11.2954 18.2475H13.0634V23.9595H11.8874V19.9115H11.8714L10.4714 23.9595H9.50338L8.10338 19.9515H8.08738V23.9595H6.91138V18.2475ZM18.2972 23.3115C18.0732 23.5995 17.8252 23.8021 17.5532 23.9195C17.2812 24.0315 17.0065 24.0875 16.7292 24.0875C16.2919 24.0875 15.8972 24.0128 15.5452 23.8635C15.1985 23.7088 14.9052 23.4981 14.6652 23.2315C14.4252 22.9648 14.2412 22.6528 14.1132 22.2955C13.9852 21.9328 13.9212 21.5435 13.9212 21.1275C13.9212 20.7008 13.9852 20.3061 14.1132 19.9435C14.2412 19.5755 14.4252 19.2555 14.6652 18.9835C14.9052 18.7115 15.1985 18.4981 15.5452 18.3435C15.8972 18.1888 16.2919 18.1115 16.7292 18.1115C17.0225 18.1115 17.3052 18.1568 17.5772 18.2475C17.8545 18.3328 18.1025 18.4608 18.3212 18.6315C18.5452 18.8021 18.7292 19.0128 18.8732 19.2635C19.0172 19.5141 19.1052 19.8021 19.1372 20.1275H17.9372C17.8625 19.8075 17.7185 19.5675 17.5052 19.4075C17.2919 19.2475 17.0332 19.1675 16.7292 19.1675C16.4465 19.1675 16.2065 19.2235 16.0092 19.3355C15.8119 19.4421 15.6519 19.5888 15.5292 19.7755C15.4065 19.9568 15.3159 20.1648 15.2572 20.3995C15.2039 20.6341 15.1772 20.8768 15.1772 21.1275C15.1772 21.3675 15.2039 21.6021 15.2572 21.8315C15.3159 22.0555 15.4065 22.2581 15.5292 22.4395C15.6519 22.6208 15.8119 22.7675 16.0092 22.8795C16.2065 22.9861 16.4465 23.0395 16.7292 23.0395C17.1452 23.0395 17.4652 22.9355 17.6892 22.7275C17.9185 22.5141 18.0519 22.2075 18.0892 21.8075H16.8252V20.8715H19.2252V23.9595H18.4252L18.2972 23.3115Z" fill="white"/>
</svg>
