<svg width="25" height="25" viewBox="0 0 25 25" fill="none" xmlns="http://www.w3.org/2000/svg">
<path d="M15.089 13.665H8.08896C7.67896 13.665 7.33896 13.325 7.33896 12.915C7.33896 12.505 7.67896 12.165 8.08896 12.165H15.089C15.499 12.165 15.839 12.505 15.839 12.915C15.839 13.325 15.499 13.665 15.089 13.665Z" fill="#999BA0"/>
<path d="M12.469 17.665H8.08896C7.67896 17.665 7.33896 17.325 7.33896 16.915C7.33896 16.505 7.67896 16.165 8.08896 16.165H12.469C12.879 16.165 13.219 16.505 13.219 16.915C13.219 17.325 12.879 17.665 12.469 17.665Z" fill="#999BA0"/>
<path d="M14.089 7.46484H10.089C9.12896 7.46484 7.33896 7.46484 7.33896 4.71484C7.33896 1.96484 9.12896 1.96484 10.089 1.96484H14.089C15.049 1.96484 16.839 1.96484 16.839 4.71484C16.839 5.67484 16.839 7.46484 14.089 7.46484ZM10.089 3.46484C9.09896 3.46484 8.83896 3.46484 8.83896 4.71484C8.83896 5.96484 9.09896 5.96484 10.089 5.96484H14.089C15.339 5.96484 15.339 5.70484 15.339 4.71484C15.339 3.46484 15.079 3.46484 14.089 3.46484H10.089Z" fill="#999BA0"/>
<path d="M15.089 23.4648H9.08896C3.46896 23.4648 2.33896 20.8848 2.33896 16.7148V10.7148C2.33896 6.15478 3.98896 4.20478 8.04896 3.99478C8.44896 3.97478 8.81896 4.28478 8.83896 4.70478C8.85896 5.12478 8.53896 5.46478 8.12896 5.48478C5.28896 5.64478 3.83896 6.49478 3.83896 10.7148V16.7148C3.83896 20.4148 4.56896 21.9648 9.08896 21.9648H15.089C19.609 21.9648 20.339 20.4148 20.339 16.7148V10.7148C20.339 6.49478 18.889 5.64478 16.049 5.48478C15.639 5.46478 15.319 5.10478 15.339 4.69478C15.359 4.28478 15.719 3.96478 16.129 3.98478C20.189 4.20478 21.839 6.15478 21.839 10.7048V16.7048C21.839 20.8848 20.709 23.4648 15.089 23.4648Z" fill="#999BA0"/>
</svg>
