<svg width="25" height="24" viewBox="0 0 25 24" fill="none" xmlns="http://www.w3.org/2000/svg">
<path fill-rule="evenodd" clip-rule="evenodd" d="M6.79999 3.56752C6.08276 3.56752 5.07633 3.73865 4.39053 3.8768C4.30981 3.89305 4.24485 3.95651 4.23066 4.04735C4.09346 4.92602 3.88823 6.42812 3.88823 7.49609C3.88823 8.56406 4.09346 10.0662 4.23066 10.9448C4.24485 11.0357 4.30981 11.0991 4.39053 11.1154C5.07633 11.2535 6.08276 11.4247 6.79999 11.4247C7.51722 11.4247 8.52365 11.2535 9.20945 11.1154C9.29017 11.0991 9.35513 11.0357 9.36932 10.9448C9.50652 10.0662 9.71176 8.56406 9.71176 7.49609C9.71176 6.42812 9.50652 4.92602 9.36932 4.04735C9.35513 3.95651 9.29017 3.89305 9.20945 3.8768C8.52365 3.73865 7.51722 3.56752 6.79999 3.56752ZM4.07368 2.33696C4.76211 2.19828 5.90738 1.99609 6.79999 1.99609C7.6926 1.99609 8.83787 2.19828 9.5263 2.33696C10.2687 2.4865 10.8249 3.07691 10.9389 3.80742C11.0759 4.68435 11.3 6.29422 11.3 7.49609C11.3 8.69796 11.0759 10.3078 10.9389 11.1848C10.8249 11.9153 10.2687 12.5057 9.5263 12.6552C8.83787 12.7939 7.6926 12.9961 6.79999 12.9961C5.90738 12.9961 4.76211 12.7939 4.07368 12.6552C3.33129 12.5057 2.77512 11.9153 2.66105 11.1848C2.52411 10.3078 2.29999 8.69796 2.29999 7.49609C2.29999 6.29422 2.52411 4.68435 2.66105 3.80742C2.77512 3.07691 3.33129 2.4865 4.07368 2.33696Z" fill="#999BA0"/>
<path fill-rule="evenodd" clip-rule="evenodd" d="M17.8 20.4247C17.0828 20.4247 16.0763 20.2535 15.3905 20.1154C15.3098 20.0991 15.2449 20.0357 15.2307 19.9448C15.0935 19.0662 14.8882 17.5641 14.8882 16.4961C14.8882 15.4281 15.0935 13.926 15.2307 13.0474C15.2449 12.9565 15.3098 12.8931 15.3905 12.8768C16.0763 12.7387 17.0828 12.5675 17.8 12.5675C18.5172 12.5675 19.5237 12.7387 20.2095 12.8768C20.2902 12.8931 20.3551 12.9565 20.3693 13.0474C20.5065 13.926 20.7118 15.4281 20.7118 16.4961C20.7118 17.5641 20.5065 19.0662 20.3693 19.9448C20.3551 20.0357 20.2902 20.0991 20.2095 20.1154C19.5237 20.2535 18.5172 20.4247 17.8 20.4247ZM15.0737 21.6552C15.7621 21.7939 16.9074 21.9961 17.8 21.9961C18.6926 21.9961 19.8379 21.7939 20.5263 21.6552C21.2687 21.5057 21.8249 20.9153 21.9389 20.1848C22.0759 19.3078 22.3 17.698 22.3 16.4961C22.3 15.2942 22.0759 13.6844 21.9389 12.8074C21.8249 12.0769 21.2687 11.4865 20.5263 11.337C19.8379 11.1983 18.6926 10.9961 17.8 10.9961C16.9074 10.9961 15.7621 11.1983 15.0737 11.337C14.3313 11.4865 13.7751 12.0769 13.6611 12.8074C13.5241 13.6844 13.3 15.2942 13.3 16.4961C13.3 17.698 13.5241 19.3078 13.6611 20.1848C13.7751 20.9153 14.3313 21.5057 15.0737 21.6552Z" fill="#999BA0"/>
<path fill-rule="evenodd" clip-rule="evenodd" d="M6.79999 16.6115C6.03887 16.6115 4.9624 16.7926 4.28315 16.9255C4.2074 16.9404 4.1624 16.9902 4.14774 17.043C4.01754 17.5119 3.88823 18.0955 3.88823 18.4961C3.88823 18.8967 4.01754 19.4803 4.14774 19.9492C4.1624 20.002 4.2074 20.0518 4.28315 20.0667C4.9624 20.1996 6.03887 20.3807 6.79999 20.3807C7.56111 20.3807 8.63758 20.1996 9.31683 20.0667C9.39258 20.0518 9.43758 20.002 9.45224 19.9492C9.58244 19.4803 9.71176 18.8967 9.71176 18.4961C9.71176 18.0955 9.58244 17.5119 9.45224 17.043C9.43758 16.9902 9.39258 16.9404 9.31683 16.9255C8.63758 16.7926 7.56111 16.6115 6.79999 16.6115ZM3.983 15.3393C4.66185 15.2064 5.87164 14.9961 6.79999 14.9961C7.72834 14.9961 8.93813 15.2064 9.61698 15.3393C10.2596 15.465 10.7966 15.9408 10.9807 16.604C11.1134 17.0818 11.3 17.8531 11.3 18.4961C11.3 19.1391 11.1134 19.9104 10.9807 20.3882C10.7966 21.0514 10.2596 21.5272 9.61698 21.6529C8.93813 21.7858 7.72834 21.9961 6.79999 21.9961C5.87164 21.9961 4.66185 21.7858 3.983 21.6529C3.34042 21.5272 2.80343 21.0514 2.61928 20.3882C2.4866 19.9104 2.29999 19.1391 2.29999 18.4961C2.29999 17.8531 2.4866 17.0818 2.61928 16.604C2.80343 15.9408 3.34042 15.465 3.983 15.3393Z" fill="#999BA0"/>
<path fill-rule="evenodd" clip-rule="evenodd" d="M17.8 7.38071C17.0389 7.38071 15.9624 7.19962 15.2832 7.06666C15.2074 7.05184 15.1624 7.00201 15.1477 6.94921C15.0176 6.48029 14.8882 5.89666 14.8882 5.49609C14.8882 5.09552 15.0176 4.51189 15.1477 4.04297C15.1624 3.99017 15.2074 3.94034 15.2832 3.92552C15.9624 3.79256 17.0389 3.61147 17.8 3.61147C18.5611 3.61147 19.6376 3.79256 20.3168 3.92552C20.3926 3.94034 20.4376 3.99017 20.4523 4.04297C20.5824 4.51189 20.7118 5.09552 20.7118 5.49609C20.7118 5.89666 20.5824 6.48029 20.4523 6.94921C20.4376 7.00201 20.3926 7.05184 20.3168 7.06666C19.6376 7.19962 18.5611 7.38071 17.8 7.38071ZM14.983 8.65294C15.6619 8.78582 16.8717 8.99609 17.8 8.99609C18.7283 8.99609 19.9381 8.78582 20.617 8.65294C21.2596 8.52716 21.7966 8.05143 21.9807 7.38823C22.1134 6.91036 22.3 6.13908 22.3 5.49609C22.3 4.8531 22.1134 4.08182 21.9807 3.60395C21.7966 2.94075 21.2596 2.46502 20.617 2.33924C19.9381 2.20636 18.7283 1.99609 17.8 1.99609C16.8717 1.99609 15.6619 2.20636 14.983 2.33924C14.3404 2.46502 13.8034 2.94075 13.6193 3.60395C13.4866 4.08182 13.3 4.8531 13.3 5.49609C13.3 6.13908 13.4866 6.91036 13.6193 7.38823C13.8034 8.05143 14.3404 8.52716 14.983 8.65294Z" fill="#999BA0"/>
</svg>
