<svg width="25" height="25" viewBox="0 0 25 25" fill="none" xmlns="http://www.w3.org/2000/svg">
<path d="M17.9091 10.335H12.6591C12.2491 10.335 11.9091 9.99496 11.9091 9.58496C11.9091 9.17496 12.2491 8.83496 12.6591 8.83496H17.9091C18.3191 8.83496 18.6591 9.17496 18.6591 9.58496C18.6591 9.99496 18.3291 10.335 17.9091 10.335Z" fill="#999BA0"/>
<path d="M7.40851 11.0952C7.21851 11.0952 7.02851 11.0252 6.87851 10.8752L6.12851 10.1252C5.83851 9.83516 5.83851 9.35516 6.12851 9.06516C6.41851 8.77516 6.89851 8.77516 7.18851 9.06516L7.40851 9.28516L9.12851 7.56516C9.41851 7.27516 9.89851 7.27516 10.1885 7.56516C10.4785 7.85516 10.4785 8.33516 10.1885 8.62516L7.93851 10.8752C7.79851 11.0152 7.60851 11.0952 7.40851 11.0952Z" fill="#999BA0"/>
<path d="M17.9091 17.335H12.6591C12.2491 17.335 11.9091 16.995 11.9091 16.585C11.9091 16.175 12.2491 15.835 12.6591 15.835H17.9091C18.3191 15.835 18.6591 16.175 18.6591 16.585C18.6591 16.995 18.3291 17.335 17.9091 17.335Z" fill="#999BA0"/>
<path d="M7.40851 18.0952C7.21851 18.0952 7.02851 18.0252 6.87851 17.8752L6.12851 17.1252C5.83851 16.8352 5.83851 16.3552 6.12851 16.0652C6.41851 15.7752 6.89851 15.7752 7.18851 16.0652L7.40851 16.2852L9.12851 14.5652C9.41851 14.2752 9.89851 14.2752 10.1885 14.5652C10.4785 14.8552 10.4785 15.3352 10.1885 15.6252L7.93851 17.8752C7.79851 18.0152 7.60851 18.0952 7.40851 18.0952Z" fill="#999BA0"/>
<path d="M15.2889 23.4648H9.28894C3.85894 23.4648 1.53894 21.1448 1.53894 15.7148V9.71484C1.53894 4.28484 3.85894 1.96484 9.28894 1.96484H15.2889C20.7189 1.96484 23.0389 4.28484 23.0389 9.71484V15.7148C23.0389 21.1448 20.7189 23.4648 15.2889 23.4648ZM9.28894 3.46484C4.67894 3.46484 3.03894 5.10484 3.03894 9.71484V15.7148C3.03894 20.3248 4.67894 21.9648 9.28894 21.9648H15.2889C19.8989 21.9648 21.5389 20.3248 21.5389 15.7148V9.71484C21.5389 5.10484 19.8989 3.46484 15.2889 3.46484H9.28894Z" fill="#999BA0"/>
</svg>
