<svg width="20" height="21" viewBox="0 0 20 21" fill="none" xmlns="http://www.w3.org/2000/svg">
<rect y="0.25" width="20" height="20" rx="4" fill="#AFB1B6"/>
<path d="M16.1125 12.7395L13.4488 11.4086V6.7918C13.4488 5.97221 12.7815 5.30488 11.9619 5.30488H11.7326V4.8293C11.7326 4.2804 11.2852 3.83301 10.7363 3.83301H9.26443C8.71553 3.83301 8.26814 4.2804 8.26814 4.8293V5.30488H8.0388C7.21921 5.30488 6.55189 5.97221 6.55189 6.7918V7.95915L4.33937 6.85383C4.08936 6.72977 3.78484 6.83127 3.66077 7.07941C3.5367 7.32942 3.63821 7.63395 3.88634 7.75801L6.55001 9.0889V9.09454L7.56134 9.60021V9.59457L12.4375 12.0327V12.0383L13.4488 12.544V12.5383L15.6595 13.6455C15.7309 13.6812 15.8061 13.6982 15.885 13.6982C16.0787 13.6982 16.2516 13.591 16.3381 13.4181C16.464 13.1699 16.3625 12.8654 16.1125 12.7395ZM8.0388 6.31621H8.7738H11.2269H11.9619C12.2232 6.31621 12.4375 6.52863 12.4375 6.7918V10.9029L7.56322 8.46481V6.7918C7.56322 6.52863 7.77563 6.31621 8.0388 6.31621ZM10.7213 5.30488H9.27946V4.84434H10.7194V5.30488H10.7213Z" fill="white"/>
<path d="M12.4375 15.1792C12.4375 15.4405 12.2251 15.6548 11.9619 15.6548H8.03883C7.77753 15.6548 7.56324 15.4424 7.56324 15.1792V10.115L6.55191 9.60938V15.1792C6.55191 15.9988 7.21924 16.6661 8.03883 16.6661H11.9619C12.7815 16.6661 13.4489 15.9988 13.4489 15.1792V13.0588L12.4375 12.5531V15.1792Z" fill="white"/>
</svg>
