<svg width="21" height="20" viewBox="0 0 21 20" fill="none" xmlns="http://www.w3.org/2000/svg">
<path fill-rule="evenodd" clip-rule="evenodd" d="M14.2336 0.882164C14.3712 0.845318 14.516 0.8497 14.6513 0.894808L19.5161 2.51663L19.5352 2.52329C19.8863 2.65122 20.1847 2.88907 20.3945 3.19861C20.5822 3.47538 20.7247 3.82583 20.7428 4.22071C20.7434 4.23314 20.7437 4.24558 20.7437 4.25801V16.9187C20.7565 17.2037 20.7039 17.4832 20.6022 17.7301C20.5991 17.7377 20.5959 17.7453 20.5925 17.7528C20.4686 18.0292 20.2933 18.2437 20.1005 18.411C20.0929 18.4176 20.0853 18.4239 20.0776 18.4302C19.8406 18.6199 19.5653 18.7355 19.2854 18.7743L19.2792 18.7752C19.0215 18.8088 18.7721 18.7804 18.545 18.7114C18.5205 18.706 18.4963 18.6992 18.4725 18.6912L14.4282 17.3377L7.68379 19.1436C7.54665 19.1803 7.40234 19.1761 7.26737 19.1314L2.37238 17.5096C2.36555 17.5073 2.35875 17.505 2.35198 17.5025C1.98528 17.3689 1.71071 17.125 1.50968 16.8513C1.50385 16.8434 1.49817 16.8354 1.49264 16.8272C1.2906 16.5293 1.17145 16.1764 1.15447 15.8051C1.1539 15.7927 1.15362 15.7802 1.15362 15.7678V3.09666C1.14056 2.8066 1.19538 2.51834 1.31477 2.25201C1.44003 1.97259 1.62085 1.75009 1.83985 1.57472C2.07286 1.38813 2.35657 1.26298 2.67078 1.23737C2.93931 1.20613 3.21064 1.24063 3.46621 1.3417L7.48906 2.68813L14.2336 0.882164ZM14.3985 2.45859L7.65364 4.26466C7.51571 4.30158 7.37061 4.29712 7.2351 4.25173L2.98339 2.82875C2.96678 2.82318 2.95036 2.81703 2.93415 2.81028C2.90341 2.79748 2.87124 2.79286 2.83525 2.79754C2.8198 2.79955 2.8043 2.80106 2.78877 2.80207C2.78877 2.80207 2.78663 2.80221 2.78314 2.80363C2.77933 2.80517 2.77106 2.80918 2.75911 2.81875C2.71678 2.85265 2.69648 2.88126 2.68102 2.91574C2.66353 2.95477 2.65773 2.99135 2.65985 3.02671C2.66083 3.043 2.66132 3.05933 2.66132 3.07566V15.7439C2.66614 15.8029 2.68491 15.8597 2.71703 15.9108C2.76922 15.9785 2.81106 16.0055 2.84364 16.0187L7.51813 17.5674L14.2637 15.7611C14.4016 15.7242 14.5467 15.7287 14.6822 15.7741L18.8783 17.1784C18.903 17.1842 18.9275 17.1913 18.9517 17.1997C19.006 17.2185 19.0522 17.2224 19.0889 17.2182C19.107 17.2152 19.1283 17.2074 19.1487 17.1932C19.1841 17.1604 19.2058 17.1306 19.2208 17.1006C19.2336 17.0651 19.2396 17.0248 19.2374 16.9886C19.2365 16.9723 19.236 16.956 19.236 16.9397V4.28381C19.2315 4.23942 19.212 4.17614 19.1628 4.10369C19.1328 4.05943 19.0917 4.02616 19.0435 4.00714L14.3985 2.45859Z" fill="#3E97FF"/>
<path fill-rule="evenodd" clip-rule="evenodd" d="M14.2336 0.882164C14.3712 0.845318 14.516 0.8497 14.6513 0.894808L19.5161 2.51663L19.5352 2.52329C19.8863 2.65122 20.1847 2.88907 20.3945 3.19861C20.5822 3.47538 20.7247 3.82583 20.7428 4.22071C20.7434 4.23314 20.7437 4.24558 20.7437 4.25801V16.9187C20.7565 17.2037 20.7039 17.4832 20.6022 17.7301C20.5991 17.7377 20.5959 17.7453 20.5925 17.7528C20.4686 18.0292 20.2933 18.2437 20.1005 18.411C20.0929 18.4176 20.0853 18.4239 20.0776 18.4302C19.8406 18.6199 19.5653 18.7355 19.2854 18.7743L19.2792 18.7752C19.0215 18.8088 18.7721 18.7804 18.545 18.7114C18.5205 18.706 18.4963 18.6992 18.4725 18.6912L14.4282 17.3377L7.68379 19.1436C7.54665 19.1803 7.40234 19.1761 7.26737 19.1314L2.37238 17.5096C2.36555 17.5073 2.35875 17.505 2.35198 17.5025C1.98528 17.3689 1.71071 17.125 1.50968 16.8513C1.50385 16.8434 1.49817 16.8354 1.49264 16.8272C1.2906 16.5293 1.17145 16.1764 1.15447 15.8051C1.1539 15.7927 1.15362 15.7802 1.15362 15.7678V3.09666C1.14056 2.8066 1.19538 2.51834 1.31477 2.25201C1.44003 1.97259 1.62085 1.75009 1.83985 1.57472C2.07286 1.38813 2.35657 1.26298 2.67078 1.23737C2.93931 1.20613 3.21064 1.24063 3.46621 1.3417L7.48906 2.68813L14.2336 0.882164ZM14.3985 2.45859L7.65364 4.26466C7.51571 4.30158 7.37061 4.29712 7.2351 4.25173L2.98339 2.82875C2.96678 2.82318 2.95036 2.81703 2.93415 2.81028C2.90341 2.79748 2.87124 2.79286 2.83525 2.79754C2.8198 2.79955 2.8043 2.80106 2.78877 2.80207C2.78877 2.80207 2.78663 2.80221 2.78314 2.80363C2.77933 2.80517 2.77106 2.80918 2.75911 2.81875C2.71678 2.85265 2.69648 2.88126 2.68102 2.91574C2.66353 2.95477 2.65773 2.99135 2.65985 3.02671C2.66083 3.043 2.66132 3.05933 2.66132 3.07566V15.7439C2.66614 15.8029 2.68491 15.8597 2.71703 15.9108C2.76922 15.9785 2.81106 16.0055 2.84364 16.0187L7.51813 17.5674L14.2637 15.7611C14.4016 15.7242 14.5467 15.7287 14.6822 15.7741L18.8783 17.1784C18.903 17.1842 18.9275 17.1913 18.9517 17.1997C19.006 17.2185 19.0522 17.2224 19.0889 17.2182C19.107 17.2152 19.1283 17.2074 19.1487 17.1932C19.1841 17.1604 19.2058 17.1306 19.2208 17.1006C19.2336 17.0651 19.2396 17.0248 19.2374 16.9886C19.2365 16.9723 19.236 16.956 19.236 16.9397V4.28381C19.2315 4.23942 19.212 4.17614 19.1628 4.10369C19.1328 4.05943 19.0917 4.02616 19.0435 4.00714L14.3985 2.45859Z" fill="black" fill-opacity="0.2"/>
<path fill-rule="evenodd" clip-rule="evenodd" d="M7.48603 2.70898C7.90233 2.70898 8.23988 3.06033 8.23988 3.49374V18.2995C8.23988 18.7329 7.90233 19.0842 7.48603 19.0842C7.06966 19.0842 6.73218 18.7329 6.73218 18.2995V3.49374C6.73218 3.06033 7.06966 2.70898 7.48603 2.70898Z" fill="#3E97FF"/>
<path fill-rule="evenodd" clip-rule="evenodd" d="M7.48603 2.70898C7.90233 2.70898 8.23988 3.06033 8.23988 3.49374V18.2995C8.23988 18.7329 7.90233 19.0842 7.48603 19.0842C7.06966 19.0842 6.73218 18.7329 6.73218 18.2995V3.49374C6.73218 3.06033 7.06966 2.70898 7.48603 2.70898Z" fill="black" fill-opacity="0.2"/>
<path fill-rule="evenodd" clip-rule="evenodd" d="M14.4515 0.941406C14.8679 0.941406 15.2054 1.29275 15.2054 1.72616V16.5319C15.2054 16.9653 14.8679 17.3167 14.4515 17.3167C14.0352 17.3167 13.6977 16.9653 13.6977 16.5319V1.72616C13.6977 1.29275 14.0352 0.941406 14.4515 0.941406Z" fill="#3E97FF"/>
<path fill-rule="evenodd" clip-rule="evenodd" d="M14.4515 0.941406C14.8679 0.941406 15.2054 1.29275 15.2054 1.72616V16.5319C15.2054 16.9653 14.8679 17.3167 14.4515 17.3167C14.0352 17.3167 13.6977 16.9653 13.6977 16.5319V1.72616C13.6977 1.29275 14.0352 0.941406 14.4515 0.941406Z" fill="black" fill-opacity="0.2"/>
</svg>
