<svg width="16" height="20" viewBox="0 0 16 20" fill="none" xmlns="http://www.w3.org/2000/svg">
<path d="M1.1525 2.3537L8 0.832031L14.8475 2.3537C15.0326 2.39483 15.198 2.49784 15.3167 2.6457C15.4353 2.79357 15.5 2.97746 15.5 3.16703V11.4895C15.4999 12.3126 15.2967 13.123 14.9082 13.8487C14.5198 14.5744 13.9582 15.193 13.2733 15.6495L8 19.1654L2.72667 15.6495C2.04189 15.1931 1.48038 14.5746 1.09196 13.8491C0.70353 13.1235 0.500197 12.3133 0.5 11.4904V3.16703C0.500033 2.97746 0.564698 2.79357 0.683325 2.6457C0.801951 2.49784 0.967447 2.39483 1.1525 2.3537V2.3537ZM2.16667 3.83536V11.4895C2.16668 12.0382 2.30215 12.5785 2.56105 13.0623C2.81996 13.5461 3.19429 13.9585 3.65083 14.2629L8 17.1629L12.3492 14.2629C12.8056 13.9585 13.1799 13.5463 13.4388 13.0626C13.6977 12.579 13.8332 12.0389 13.8333 11.4904V3.83536L8 2.54036L2.16667 3.83536ZM8 9.16536C7.44747 9.16536 6.91756 8.94587 6.52686 8.55517C6.13616 8.16447 5.91667 7.63456 5.91667 7.08203C5.91667 6.5295 6.13616 5.99959 6.52686 5.60889C6.91756 5.21819 7.44747 4.9987 8 4.9987C8.55253 4.9987 9.08244 5.21819 9.47314 5.60889C9.86384 5.99959 10.0833 6.5295 10.0833 7.08203C10.0833 7.63456 9.86384 8.16447 9.47314 8.55517C9.08244 8.94587 8.55253 9.16536 8 9.16536V9.16536ZM4.2725 13.332C4.37352 12.414 4.80974 11.5656 5.49757 10.9493C6.1854 10.333 7.07646 9.99221 8 9.99221C8.92354 9.99221 9.8146 10.333 10.5024 10.9493C11.1903 11.5656 11.6265 12.414 11.7275 13.332H4.2725Z" fill="#3E97FF"/>
</svg>
