<svg width="16" height="17" viewBox="0 0 16 17" fill="none" xmlns="http://www.w3.org/2000/svg">
    <g clip-path="url(#clip0_3990_6621)">
        <path
            d="M13.9601 7.92057C13.6534 5.14057 11.4467 2.93391 8.66675 2.62724V1.25391H7.33341V2.62724C4.55341 2.93391 2.34675 5.14057 2.04008 7.92057H0.666748V9.25391H2.04008C2.34675 12.0339 4.55341 14.2406 7.33341 14.5472V15.9206H8.66675V14.5472C11.4467 14.2406 13.6534 12.0339 13.9601 9.25391H15.3334V7.92057H13.9601ZM8.00008 13.2539C5.42008 13.2539 3.33341 11.1672 3.33341 8.58724C3.33341 6.00724 5.42008 3.92057 8.00008 3.92057C10.5801 3.92057 12.6667 6.00724 12.6667 8.58724C12.6667 11.1672 10.5801 13.2539 8.00008 13.2539Z"
            fill="#3E97FF" />
    </g>
    <defs>
        <clipPath id="clip0_3990_6621">
            <rect width="16" height="16" fill="white" transform="translate(0 0.586914)" />
        </clipPath>
    </defs>
</svg>
