<svg width="42" height="42" viewBox="0 0 42 42" fill="none" xmlns="http://www.w3.org/2000/svg">
<rect width="42" height="42" rx="21" fill="#DEF5E9"/>
<g clip-path="url(#clip0_5005_14592)">
<circle cx="20.9999" cy="19.744" r="5.26745" fill="white"/>
<path d="M28.4247 27.2566L21 34.6813L13.5753 27.2566C12.1069 25.7882 11.1069 23.9172 10.7017 21.8804C10.2966 19.8436 10.5046 17.7324 11.2993 15.8138C12.094 13.8952 13.4398 12.2553 15.1665 11.1016C16.8932 9.94784 18.9233 9.33203 21 9.33203C23.0767 9.33203 25.1068 9.94784 26.8335 11.1016C28.5602 12.2553 29.906 13.8952 30.7007 15.8138C31.4955 17.7324 31.7034 19.8436 31.2983 21.8804C30.8931 23.9172 29.8931 25.7882 28.4247 27.2566ZM21 24.4986C22.2377 24.4986 23.4247 24.0069 24.2998 23.1318C25.175 22.2566 25.6667 21.0696 25.6667 19.8319C25.6667 18.5943 25.175 17.4073 24.2998 16.5321C23.4247 15.6569 22.2377 15.1653 21 15.1653C19.7623 15.1653 18.5753 15.6569 17.7002 16.5321C16.825 17.4073 16.3333 18.5943 16.3333 19.8319C16.3333 21.0696 16.825 22.2566 17.7002 23.1318C18.5753 24.0069 19.7623 24.4986 21 24.4986ZM21 22.1653C20.3812 22.1653 19.7877 21.9194 19.3501 21.4819C18.9125 21.0443 18.6667 20.4508 18.6667 19.8319C18.6667 19.2131 18.9125 18.6196 19.3501 18.182C19.7877 17.7444 20.3812 17.4986 21 17.4986C21.6188 17.4986 22.2123 17.7444 22.6499 18.182C23.0875 18.6196 23.3333 19.2131 23.3333 19.8319C23.3333 20.4508 23.0875 21.0443 22.6499 21.4819C22.2123 21.9194 21.6188 22.1653 21 22.1653Z" fill="#13B35C"/>
</g>
<defs>
<clipPath id="clip0_5005_14592">
<rect width="28" height="28" fill="white" transform="translate(7 7)"/>
</clipPath>
</defs>
</svg>
