<svg width="32" height="33" viewBox="0 0 32 33" fill="none" xmlns="http://www.w3.org/2000/svg">
<rect y="0.969727" width="31.9583" height="32" rx="8" fill="#DFAE00"/>
<g clip-path="url(#clip0_1765_51391)">
<path d="M12.2106 22.2432H16.5019V23.415H12.2106V22.2432Z" fill="white"/>
<path d="M16.5019 16.9697C16.5019 14.6421 17.9619 12.6498 20.013 11.8618V11.0713C20.013 10.102 19.2254 9.31348 18.2574 9.31348H17.2821V8.72754C17.2821 7.75828 16.4946 6.96973 15.5266 6.96973H13.1859C12.2179 6.96973 11.4304 7.75828 11.4304 8.72754V9.31348H10.4551C9.48711 9.31348 8.69958 10.102 8.69958 11.0713V25.2119C8.69958 26.1812 9.48711 26.9697 10.4551 26.9697H18.2574C19.2254 26.9697 20.013 26.1812 20.013 25.2119V22.0776C17.9619 21.2897 16.5019 19.2974 16.5019 16.9697ZM17.6723 24.001C17.6723 24.3246 17.4103 24.5869 17.0871 24.5869H11.6255C11.3023 24.5869 11.0403 24.3246 11.0403 24.001V21.6572C11.0403 21.3336 11.3023 21.0713 11.6255 21.0713H17.0871C17.4103 21.0713 17.6723 21.3336 17.6723 21.6572V24.001Z" fill="white"/>
<path d="M21.9635 12.6729C19.5935 12.6729 17.6722 14.5966 17.6722 16.9697C17.6722 19.3428 19.5935 21.2666 21.9635 21.2666C24.3335 21.2666 26.2548 19.3428 26.2548 16.9697C26.2548 14.5966 24.3335 12.6729 21.9635 12.6729ZM21.9635 19.7041C21.6403 19.7041 21.3783 19.4418 21.3783 19.1182C21.3783 18.7946 21.6403 18.5322 21.9635 18.5322C22.2867 18.5322 22.5487 18.7946 22.5487 19.1182C22.5487 19.4418 22.2867 19.7041 21.9635 19.7041ZM22.5487 17.165C22.5487 17.4886 22.2867 17.751 21.9635 17.751C21.6403 17.751 21.3783 17.4886 21.3783 17.165V14.8213C21.3783 14.4977 21.6403 14.2354 21.9635 14.2354C22.2867 14.2354 22.5487 14.4977 22.5487 14.8213V17.165Z" fill="white"/>
</g>
<defs>
<clipPath id="clip0_1765_51391">
<rect width="19.974" height="20" fill="white" transform="translate(7.49023 6.96973)"/>
</clipPath>
</defs>
</svg>
