<svg width="21" height="21" viewBox="0 0 21 21" fill="none" xmlns="http://www.w3.org/2000/svg">
<g clip-path="url(#clip0_5709_9007)">
<path d="M14.7875 10.5345C15.0086 10.5345 15.2205 10.6223 15.3768 10.7786C15.5331 10.9349 15.6209 11.1468 15.6209 11.3678V18.8678H5.62087V11.3678C5.62087 11.1468 5.70867 10.9349 5.86495 10.7786C6.02123 10.6223 6.23319 10.5345 6.45421 10.5345H14.7875ZM8.95421 12.2012H7.28754V13.8678H8.95421V12.2012ZM10.6209 5.53451C11.5496 5.53423 12.46 5.79261 13.2501 6.28068C14.0402 6.76876 14.6788 7.46724 15.0942 8.29784L13.6025 9.04367C13.3258 8.48964 12.9002 8.02365 12.3735 7.69795C11.8468 7.37225 11.2397 7.19973 10.6205 7.19973C10.0012 7.19973 9.39412 7.37225 8.86739 7.69795C8.34066 8.02365 7.91508 8.48964 7.63837 9.04367L6.14754 8.29784C6.56298 7.46724 7.20154 6.76876 7.99164 6.28068C8.78175 5.79261 9.69217 5.53423 10.6209 5.53451V5.53451ZM10.6209 2.20117C12.1686 2.20084 13.6859 2.63156 15.0027 3.44506C16.3194 4.25857 17.3836 5.42271 18.0759 6.80701L16.585 7.55284C16.0312 6.44531 15.1799 5.51392 14.1265 4.86305C13.073 4.21218 11.8592 3.86757 10.6209 3.86784C9.38259 3.86757 8.16871 4.21218 7.11529 4.86305C6.06186 5.51392 5.21053 6.44531 4.65671 7.55284L3.16504 6.80701C3.85742 5.42258 4.92171 4.25836 6.23861 3.44484C7.55551 2.63133 9.07296 2.20068 10.6209 2.20117V2.20117Z" fill="#999BA0"/>
</g>
<defs>
<clipPath id="clip0_5709_9007">
<rect width="20" height="20" fill="white" transform="translate(0.621094 0.535156)"/>
</clipPath>
</defs>
</svg>
