<svg width="21" height="21" viewBox="0 0 21 21" fill="none" xmlns="http://www.w3.org/2000/svg">
<path d="M14.5171 11.028H6.97577V17.6947H14.5171V11.028ZM6.52241 9.36133H14.9952H15.6004C15.7609 9.36133 15.9148 9.44913 16.0283 9.60541C16.1418 9.76169 16.2056 9.97365 16.2056 10.1947V18.528C16.2056 18.749 16.1418 18.961 16.0283 19.1173C15.9148 19.2735 15.7609 19.3613 15.6004 19.3613H10.7588H5.91721C5.7567 19.3613 5.60277 19.2735 5.48927 19.1173C5.37577 18.961 5.31201 18.749 5.31201 18.528V10.1947C5.31201 9.97365 5.37577 9.76169 5.48927 9.60541C5.60277 9.44913 5.7567 9.36133 5.91721 9.36133H6.52241Z" fill="#999BA0"/>
<rect x="10.5181" y="1.61328" width="0.480957" height="1.51693" fill="#999BA0"/>
<rect x="16.6152" y="3.13086" width="0.480957" height="1.51693" transform="rotate(72.0172 16.6152 3.13086)" fill="#999BA0"/>
<rect x="6.34229" y="3.58789" width="0.480957" height="1.51693" transform="rotate(102.957 6.34229 3.58789)" fill="#999BA0"/>
<path fill-rule="evenodd" clip-rule="evenodd" d="M9.93783 10.9437L9.93783 2.70313L11.6045 2.70312L11.6045 10.9437L9.93783 10.9437Z" fill="#999BA0"/>
<path fill-rule="evenodd" clip-rule="evenodd" d="M15.5935 2.91406C15.5937 2.91401 15.594 2.91395 15.7799 3.72628C15.9658 4.53861 15.9661 4.53855 15.9663 4.5385L15.9674 4.53825L15.9598 4.54012C15.951 4.54231 15.9359 4.54619 15.9154 4.55182C15.8741 4.56312 15.8119 4.58123 15.7359 4.6066C15.5811 4.6583 15.3831 4.7355 15.1927 4.83911C14.7497 5.08008 14.6424 5.29026 14.6424 5.41938L14.6424 10.9438L12.9757 10.9445L12.9757 5.41938C12.9757 4.30649 13.8538 3.67012 14.3963 3.37504C14.6985 3.21063 14.9933 3.09743 15.208 3.02573C15.3168 2.98941 15.4086 2.96257 15.4751 2.94435C15.5084 2.93522 15.5357 2.9282 15.5558 2.92317L15.5805 2.91711L15.5887 2.91517L15.5917 2.91447L15.5935 2.91406Z" fill="#999BA0"/>
<path fill-rule="evenodd" clip-rule="evenodd" d="M5.92409 2.91406C5.92384 2.91401 5.92359 2.91395 5.73767 3.72628C5.55174 4.53861 5.55151 4.53855 5.55129 4.5385L5.55019 4.53825L5.55778 4.54012C5.56654 4.54231 5.58166 4.54619 5.60222 4.55182C5.64348 4.56312 5.70569 4.58123 5.78169 4.6066C5.93651 4.6583 6.13443 4.7355 6.32491 4.83911C6.76789 5.08008 6.87522 5.29026 6.87522 5.41938L6.87522 10.9438L8.54189 10.9445L8.54189 5.41938C8.54189 4.30649 7.66378 3.67012 7.12131 3.37504C6.81907 3.21063 6.52427 3.09743 6.30955 3.02573C6.20077 2.98941 6.10901 2.96257 6.04249 2.94435C6.00915 2.93522 5.98193 2.9282 5.96182 2.92317L5.93706 2.91711L5.92887 2.91517L5.92586 2.91447L5.92409 2.91406Z" fill="#999BA0"/>
</svg>
