<svg width="20" height="21" viewBox="0 0 20 21" fill="none" xmlns="http://www.w3.org/2000/svg">
<rect y="0.124023" width="20" height="20" rx="4" fill="#E78500"/>
<path d="M15.7988 16.6473L11.2039 12.0361L7.40126 16.6154C7.329 16.6987 7.23019 16.7544 7.12164 16.7729C7.01309 16.7914 6.90151 16.7715 6.8059 16.7167C6.71029 16.6619 6.63655 16.5756 6.59725 16.4724C6.55795 16.3692 6.5555 16.2555 6.59034 16.1506L8.7352 10.124H6.7999C6.64429 10.1225 6.49141 10.0828 6.35458 10.0084C6.21775 9.934 6.10111 9.82718 6.01482 9.69721C5.92853 9.56725 5.87521 9.41809 5.85949 9.26272C5.84377 9.10735 5.86613 8.95048 5.92462 8.80576L6.53063 7.34602L3.46901 4.27371C3.02755 3.84378 3.71086 3.15762 4.13956 3.60078L16.4693 15.9743C16.9108 16.4042 16.2274 17.0905 15.7988 16.6473Z" fill="white"/>
<path d="M7.32117 5.44249L7.90052 4.04704C7.97228 3.8734 8.09379 3.72505 8.24965 3.6208C8.40552 3.51654 8.58872 3.46108 8.77603 3.46144H11.3979C11.5664 3.4635 11.7313 3.51025 11.876 3.59696C12.0206 3.68368 12.1399 3.80725 12.2215 3.95515C12.3032 4.10305 12.3444 4.27 12.341 4.43906C12.3376 4.60811 12.2897 4.77325 12.2021 4.91771L10.7382 7.26869H13.1378C13.318 7.26874 13.4945 7.32032 13.6466 7.41739C13.7986 7.51446 13.92 7.653 13.9964 7.8168C14.0729 7.98059 14.1012 8.16285 14.0782 8.34223C14.0551 8.52161 13.9816 8.69068 13.8663 8.82966L12.4257 10.565L7.32117 5.44249Z" fill="white"/>
</svg>
