<svg width="25" height="25" viewBox="0 0 25 25" fill="none" xmlns="http://www.w3.org/2000/svg">
<g clip-path="url(#clip0_1971_4087)">
<path fill-rule="evenodd" clip-rule="evenodd" d="M16.1301 1.94668C16.2943 1.90247 16.4672 1.90773 16.6288 1.96186L22.4367 3.90804L22.4596 3.91604C22.8787 4.06955 23.2349 4.35497 23.4855 4.72642C23.7095 5.05855 23.8797 5.47908 23.9013 5.95294C23.9019 5.96786 23.9023 5.98278 23.9023 5.99769V21.1905C23.9176 21.5325 23.8548 21.8679 23.7334 22.1642C23.7297 22.1733 23.7258 22.1825 23.7218 22.1915C23.5739 22.5231 23.3647 22.7806 23.1344 22.9813C23.1254 22.9892 23.1163 22.9968 23.107 23.0043C22.8242 23.232 22.4955 23.3707 22.1613 23.4173L22.1539 23.4184C21.8463 23.4586 21.5485 23.4245 21.2773 23.3418C21.2481 23.3353 21.2192 23.3271 21.1908 23.3176L16.3624 21.6933L8.31047 23.8604C8.14674 23.9045 7.97444 23.8995 7.81331 23.8458L1.96932 21.8996C1.96117 21.8969 1.95305 21.8941 1.94496 21.8911C1.50717 21.7307 1.17938 21.4381 0.939364 21.1097C0.932409 21.1002 0.925627 21.0905 0.919017 21.0807C0.67781 20.7232 0.535567 20.2997 0.515292 19.8542C0.514615 19.8393 0.514276 19.8244 0.514276 19.8094V4.60408C0.498688 4.25601 0.564136 3.91009 0.706668 3.5905C0.856219 3.2552 1.07209 2.98819 1.33355 2.77775C1.61174 2.55384 1.95044 2.40367 2.32557 2.37293C2.64616 2.33544 2.9701 2.37684 3.27522 2.49813L8.07798 4.11384L16.1301 1.94668ZM16.327 3.83839L8.27447 6.00568C8.1098 6.04998 7.93657 6.04463 7.77479 5.99016L2.69879 4.28258C2.67896 4.27591 2.65935 4.26852 2.64 4.26043C2.6033 4.24506 2.56489 4.23951 2.52192 4.24513C2.50349 4.24754 2.48498 4.24936 2.46643 4.25057C2.46643 4.25057 2.46389 4.25074 2.45971 4.25244C2.45517 4.25429 2.44529 4.25911 2.43103 4.27059C2.3805 4.31126 2.35625 4.3456 2.3378 4.38697C2.31691 4.4338 2.30999 4.4777 2.31252 4.52013C2.31369 4.53969 2.31428 4.55928 2.31428 4.57887V19.7807C2.32003 19.8515 2.34244 19.9197 2.38078 19.9811C2.44309 20.0623 2.49305 20.0947 2.53194 20.1105L8.11268 21.969L16.166 19.8015C16.3307 19.7572 16.5039 19.7625 16.6657 19.817L21.6753 21.5022C21.7048 21.5091 21.734 21.5176 21.7629 21.5277C21.8277 21.5503 21.8829 21.555 21.9267 21.5499C21.9484 21.5463 21.9737 21.537 21.9981 21.52C22.0404 21.4806 22.0662 21.4448 22.0842 21.4088C22.0994 21.3662 22.1066 21.3179 22.104 21.2744C22.1029 21.2548 22.1023 21.2353 22.1023 21.2157V6.02866C22.097 5.97539 22.0736 5.89945 22.0149 5.81252C21.9791 5.7594 21.9301 5.71947 21.8725 5.69665L16.327 3.83839Z" fill="#696A6F"/>
<path fill-rule="evenodd" clip-rule="evenodd" d="M8.07438 4.13965C8.57139 4.13965 8.97438 4.56126 8.97438 5.08135V22.8482C8.97438 23.3684 8.57139 23.7899 8.07438 23.7899C7.57729 23.7899 7.17438 23.3684 7.17438 22.8482V5.08135C7.17438 4.56126 7.57729 4.13965 8.07438 4.13965Z" fill="#696A6F"/>
<path fill-rule="evenodd" clip-rule="evenodd" d="M16.3903 2.01758C16.8874 2.01758 17.2903 2.43919 17.2903 2.95928V20.7262C17.2903 21.2463 16.8874 21.6679 16.3903 21.6679C15.8933 21.6679 15.4903 21.2463 15.4903 20.7262V2.95928C15.4903 2.43919 15.8933 2.01758 16.3903 2.01758Z" fill="#696A6F"/>
</g>
<defs>
<clipPath id="clip0_1971_4087">
<rect width="24" height="24" fill="white" transform="translate(0.208313 0.888672)"/>
</clipPath>
</defs>
</svg>
