<svg width="21" height="21" viewBox="0 0 21 21" fill="none" xmlns="http://www.w3.org/2000/svg">
<g clip-path="url(#clip0_5705_7602)">
<path d="M10.989 7.12636L12.1682 8.30553C12.7099 8.84721 13.1397 9.4903 13.4328 10.1981C13.726 10.9058 13.8769 11.6644 13.8769 12.4305C13.8769 13.1966 13.726 13.9552 13.4328 14.663C13.1397 15.3708 12.7099 16.0138 12.1682 16.5555L11.8732 16.8497C10.7792 17.9437 9.29536 18.5583 7.74818 18.5583C6.20101 18.5583 4.7172 17.9437 3.62318 16.8497C2.52916 15.7557 1.91455 14.2719 1.91455 12.7247C1.91455 11.1775 2.52916 9.69372 3.62318 8.5997L4.80235 9.77886C4.41266 10.1652 4.1031 10.6246 3.89146 11.1309C3.67981 11.6371 3.57024 12.1802 3.56904 12.7289C3.56784 13.2776 3.67503 13.8211 3.88445 14.3283C4.09388 14.8355 4.40142 15.2963 4.78942 15.6843C5.17741 16.0723 5.63823 16.3798 6.1454 16.5893C6.65257 16.7987 7.19611 16.9059 7.74482 16.9047C8.29353 16.9035 8.8366 16.7939 9.34285 16.5823C9.84909 16.3706 10.3086 16.0611 10.6948 15.6714L10.9898 15.3764C11.771 14.595 12.2098 13.5354 12.2098 12.4305C12.2098 11.3257 11.771 10.2661 10.9898 9.4847L9.81068 8.30553L10.9898 7.1272L10.989 7.12636ZM16.5873 12.1355L15.409 10.9572C15.7987 10.5709 16.1083 10.1114 16.3199 9.60519C16.5316 9.09895 16.6411 8.55588 16.6423 8.00717C16.6435 7.45846 16.5363 6.91492 16.3269 6.40775C16.1175 5.90058 15.8099 5.43976 15.4219 5.05177C15.034 4.66377 14.5731 4.35623 14.066 4.1468C13.5588 3.93738 13.0153 3.83019 12.4665 3.83139C11.9178 3.83259 11.3748 3.94216 10.8685 4.15381C10.3623 4.36545 9.90281 4.67501 9.51652 5.0647L9.22152 5.3597C8.44039 6.14106 8.00157 7.20068 8.00157 8.30553C8.00157 9.41038 8.44039 10.47 9.22152 11.2514L10.4007 12.4305L9.22152 13.6089L8.04318 12.4305C7.50144 11.8888 7.07171 11.2458 6.77852 10.538C6.48533 9.83022 6.33443 9.07163 6.33443 8.30553C6.33443 7.53944 6.48533 6.78085 6.77852 6.07307C7.07171 5.3653 7.50144 4.72221 8.04318 4.18053L8.33818 3.88637C9.4322 2.79235 10.916 2.17773 12.4632 2.17773C14.0104 2.17773 15.4942 2.79235 16.5882 3.88637C17.6822 4.98038 18.2968 6.46419 18.2968 8.01137C18.2968 9.55854 17.6822 11.0423 16.5882 12.1364L16.5873 12.1355Z" fill="#999BA0"/>
</g>
<defs>
<clipPath id="clip0_5705_7602">
<rect width="20" height="20" fill="white" transform="translate(0.105469 0.367188)"/>
</clipPath>
</defs>
</svg>
