<svg width="30" height="34" viewBox="0 0 30 34" fill="none" xmlns="http://www.w3.org/2000/svg">
<path fill-rule="evenodd" clip-rule="evenodd" d="M20.0002 0.293457L29.9999 10.2932L29.9999 32.2934C29.9999 33.0297 29.403 33.6267 28.6666 33.6267H4.66658C3.9302 33.6267 3.33325 33.0297 3.33325 32.2934V1.62679C3.33325 0.89041 3.9302 0.293457 4.66658 0.293457H20.0002Z" fill="#F1F5F9"/>
<path d="M20 10.2934L30 10.2934L20 0.293457L20 10.2934Z" fill="#DDE4EE"/>
<rect y="14.9595" width="24" height="12" rx="0.666666" fill="#42A9A9"/>
<path d="M3.052 18.2475H4.82L6.156 22.1755H6.172L7.436 18.2475H9.204V23.9595H8.028V19.9115H8.012L6.612 23.9595H5.644L4.244 19.9515H4.228V23.9595H3.052V18.2475ZM11.1658 22.0635C11.1658 22.2555 11.2005 22.4181 11.2698 22.5515C11.3391 22.6848 11.4298 22.7941 11.5418 22.8795C11.6591 22.9595 11.7951 23.0208 11.9498 23.0635C12.1045 23.1008 12.2645 23.1195 12.4298 23.1195C12.5418 23.1195 12.6618 23.1115 12.7898 23.0955C12.9178 23.0741 13.0378 23.0368 13.1498 22.9835C13.2618 22.9301 13.3551 22.8581 13.4298 22.7675C13.5045 22.6715 13.5418 22.5515 13.5418 22.4075C13.5418 22.2528 13.4911 22.1275 13.3898 22.0315C13.2938 21.9355 13.1658 21.8555 13.0058 21.7915C12.8458 21.7275 12.6645 21.6715 12.4618 21.6235C12.2591 21.5755 12.0538 21.5221 11.8458 21.4635C11.6325 21.4101 11.4245 21.3461 11.2218 21.2715C11.0191 21.1915 10.8378 21.0901 10.6778 20.9675C10.5178 20.8448 10.3871 20.6928 10.2858 20.5115C10.1898 20.3248 10.1418 20.1008 10.1418 19.8395C10.1418 19.5461 10.2031 19.2928 10.3258 19.0795C10.4538 18.8608 10.6191 18.6795 10.8218 18.5355C11.0245 18.3915 11.2538 18.2848 11.5098 18.2155C11.7658 18.1461 12.0218 18.1115 12.2778 18.1115C12.5765 18.1115 12.8618 18.1461 13.1338 18.2155C13.4111 18.2795 13.6565 18.3861 13.8698 18.5355C14.0831 18.6848 14.2511 18.8768 14.3738 19.1115C14.5018 19.3408 14.5658 19.6208 14.5658 19.9515H13.3498C13.3391 19.7808 13.3018 19.6395 13.2378 19.5275C13.1791 19.4155 13.0991 19.3275 12.9978 19.2635C12.8965 19.1995 12.7791 19.1541 12.6458 19.1275C12.5178 19.1008 12.3765 19.0875 12.2218 19.0875C12.1205 19.0875 12.0191 19.0981 11.9178 19.1195C11.8165 19.1408 11.7231 19.1781 11.6378 19.2315C11.5578 19.2848 11.4911 19.3515 11.4378 19.4315C11.3845 19.5115 11.3578 19.6128 11.3578 19.7355C11.3578 19.8475 11.3791 19.9381 11.4218 20.0075C11.4645 20.0768 11.5471 20.1408 11.6698 20.1995C11.7978 20.2581 11.9711 20.3168 12.1898 20.3755C12.4138 20.4341 12.7045 20.5088 13.0618 20.5995C13.1685 20.6208 13.3151 20.6608 13.5018 20.7195C13.6938 20.7728 13.8831 20.8608 14.0698 20.9835C14.2565 21.1061 14.4165 21.2715 14.5498 21.4795C14.6885 21.6821 14.7578 21.9435 14.7578 22.2635C14.7578 22.5248 14.7071 22.7675 14.6058 22.9915C14.5045 23.2155 14.3525 23.4101 14.1498 23.5755C13.9525 23.7355 13.7045 23.8608 13.4058 23.9515C13.1125 24.0421 12.7711 24.0875 12.3818 24.0875C12.0671 24.0875 11.7605 24.0475 11.4618 23.9675C11.1685 23.8928 10.9071 23.7728 10.6778 23.6075C10.4538 23.4421 10.2751 23.2315 10.1418 22.9755C10.0085 22.7195 9.94448 22.4155 9.94981 22.0635H11.1658ZM19.6331 23.3115C19.4091 23.5995 19.1611 23.8021 18.8891 23.9195C18.6171 24.0315 18.3425 24.0875 18.0651 24.0875C17.6278 24.0875 17.2331 24.0128 16.8811 23.8635C16.5345 23.7088 16.2411 23.4981 16.0011 23.2315C15.7611 22.9648 15.5771 22.6528 15.4491 22.2955C15.3211 21.9328 15.2571 21.5435 15.2571 21.1275C15.2571 20.7008 15.3211 20.3061 15.4491 19.9435C15.5771 19.5755 15.7611 19.2555 16.0011 18.9835C16.2411 18.7115 16.5345 18.4981 16.8811 18.3435C17.2331 18.1888 17.6278 18.1115 18.0651 18.1115C18.3585 18.1115 18.6411 18.1568 18.9131 18.2475C19.1905 18.3328 19.4385 18.4608 19.6571 18.6315C19.8811 18.8021 20.0651 19.0128 20.2091 19.2635C20.3531 19.5141 20.4411 19.8021 20.4731 20.1275H19.2731C19.1985 19.8075 19.0545 19.5675 18.8411 19.4075C18.6278 19.2475 18.3691 19.1675 18.0651 19.1675C17.7825 19.1675 17.5425 19.2235 17.3451 19.3355C17.1478 19.4421 16.9878 19.5888 16.8651 19.7755C16.7425 19.9568 16.6518 20.1648 16.5931 20.3995C16.5398 20.6341 16.5131 20.8768 16.5131 21.1275C16.5131 21.3675 16.5398 21.6021 16.5931 21.8315C16.6518 22.0555 16.7425 22.2581 16.8651 22.4395C16.9878 22.6208 17.1478 22.7675 17.3451 22.8795C17.5425 22.9861 17.7825 23.0395 18.0651 23.0395C18.4811 23.0395 18.8011 22.9355 19.0251 22.7275C19.2545 22.5141 19.3878 22.2075 19.4251 21.8075H18.1611V20.8715H20.5611V23.9595H19.7611L19.6331 23.3115Z" fill="white"/>
</svg>
