<svg width="20" height="20" viewBox="0 0 20 20" fill="none" xmlns="http://www.w3.org/2000/svg">
<path d="M17.5 9.16699H16.6083C16.4223 7.70031 15.754 6.33706 14.7086 5.29165C13.6632 4.24624 12.3 3.57799 10.8333 3.39199V2.50033C10.8333 2.27931 10.7455 2.06735 10.5892 1.91107C10.4329 1.75479 10.221 1.66699 9.99996 1.66699C9.77895 1.66699 9.56698 1.75479 9.4107 1.91107C9.25442 2.06735 9.16663 2.27931 9.16663 2.50033V3.39199C7.69994 3.57799 6.33669 4.24624 5.29128 5.29165C4.24587 6.33706 3.57762 7.70031 3.39163 9.16699H2.49996C2.27895 9.16699 2.06698 9.25479 1.9107 9.41107C1.75442 9.56735 1.66663 9.77931 1.66663 10.0003C1.66663 10.2213 1.75442 10.4333 1.9107 10.5896C2.06698 10.7459 2.27895 10.8337 2.49996 10.8337H3.39163C3.57762 12.3003 4.24587 13.6636 5.29128 14.709C6.33669 15.7544 7.69994 16.4227 9.16663 16.6087V17.5003C9.16663 17.7213 9.25442 17.9333 9.4107 18.0896C9.56698 18.2459 9.77895 18.3337 9.99996 18.3337C10.221 18.3337 10.4329 18.2459 10.5892 18.0896C10.7455 17.9333 10.8333 17.7213 10.8333 17.5003V16.6087C12.3 16.4227 13.6632 15.7544 14.7086 14.709C15.754 13.6636 16.4223 12.3003 16.6083 10.8337H17.5C17.721 10.8337 17.9329 10.7459 18.0892 10.5896C18.2455 10.4333 18.3333 10.2213 18.3333 10.0003C18.3333 9.77931 18.2455 9.56735 18.0892 9.41107C17.9329 9.25479 17.721 9.16699 17.5 9.16699ZM9.99996 15.0003C9.01105 15.0003 8.04435 14.7071 7.22211 14.1577C6.39986 13.6083 5.759 12.8274 5.38056 11.9137C5.00212 11.0001 4.90311 9.99478 5.09603 9.02487C5.28896 8.05497 5.76516 7.16405 6.46443 6.46479C7.16369 5.76553 8.0546 5.28933 9.02451 5.0964C9.99441 4.90347 10.9997 5.00249 11.9134 5.38093C12.827 5.75937 13.6079 6.40023 14.1573 7.22247C14.7067 8.04472 15 9.01142 15 10.0003C15 11.3264 14.4732 12.5982 13.5355 13.5359C12.5978 14.4735 11.326 15.0003 9.99996 15.0003ZM9.99996 7.50033C9.50551 7.50033 9.02216 7.64695 8.61103 7.92165C8.19991 8.19636 7.87948 8.5868 7.69026 9.04362C7.50104 9.50043 7.45153 10.0031 7.548 10.4881C7.64446 10.973 7.88256 11.4185 8.23219 11.7681C8.58182 12.1177 9.02728 12.3558 9.51223 12.4523C9.99719 12.5488 10.4999 12.4992 10.9567 12.31C11.4135 12.1208 11.8039 11.8004 12.0786 11.3893C12.3533 10.9781 12.5 10.4948 12.5 10.0003C12.5 9.33728 12.2366 8.7014 11.7677 8.23256C11.2989 7.76372 10.663 7.50033 9.99996 7.50033ZM9.99996 10.8337C9.83514 10.8337 9.67403 10.7848 9.53698 10.6932C9.39994 10.6016 9.29313 10.4715 9.23006 10.3192C9.16699 10.167 9.15048 9.9994 9.18264 9.83775C9.21479 9.6761 9.29416 9.52761 9.4107 9.41107C9.52725 9.29453 9.67573 9.21516 9.83738 9.183C9.99903 9.15085 10.1666 9.16735 10.3189 9.23043C10.4711 9.2935 10.6013 9.40031 10.6929 9.53735C10.7844 9.67439 10.8333 9.83551 10.8333 10.0003C10.8333 10.2213 10.7455 10.4333 10.5892 10.5896C10.4329 10.7459 10.221 10.8337 9.99996 10.8337Z" fill="white"/>
</svg>
