<svg width="18" height="18" viewBox="0 0 18 18" fill="none" xmlns="http://www.w3.org/2000/svg">
<path d="M8.74999 17.2643C4.14749 17.2643 0.416656 13.5335 0.416656 8.93099C0.416656 4.32849 4.14749 0.597656 8.74999 0.597656C13.3525 0.597656 17.0833 4.32849 17.0833 8.93099C17.0833 13.5335 13.3525 17.2643 8.74999 17.2643ZM8.74999 15.5977C10.5181 15.5977 12.2138 14.8953 13.464 13.645C14.7143 12.3948 15.4167 10.6991 15.4167 8.93099C15.4167 7.16288 14.7143 5.46719 13.464 4.21694C12.2138 2.9667 10.5181 2.26432 8.74999 2.26432C6.98188 2.26432 5.28619 2.9667 4.03594 4.21694C2.7857 5.46719 2.08332 7.16288 2.08332 8.93099C2.08332 10.6991 2.7857 12.3948 4.03594 13.645C5.28619 14.8953 6.98188 15.5977 8.74999 15.5977ZM7.91666 4.76432H9.58332V6.43099H7.91666V4.76432ZM7.91666 8.09766H9.58332V13.0977H7.91666V8.09766Z" fill="#696A6F"/>
</svg>
