<svg width="20" height="21" viewBox="0 0 20 21" fill="none" xmlns="http://www.w3.org/2000/svg">
<rect y="0.25" width="20" height="20" rx="4" fill="#F14156"/>
<path fill-rule="evenodd" clip-rule="evenodd" d="M4.63293 16.065H3.18937C2.90066 16.065 2.66666 15.831 2.66666 15.5422V13.6702C2.66666 13.3815 2.90066 13.1475 3.18937 13.1475H4.63293C4.92164 13.1475 5.15565 13.3815 5.15565 13.6702V15.5422C5.15565 15.831 4.92164 16.065 4.63293 16.065Z" fill="white"/>
<path fill-rule="evenodd" clip-rule="evenodd" d="M7.67822 16.0648H6.23466C5.94595 16.0648 5.71194 15.8307 5.71194 15.542V11.7219C5.71194 11.4332 5.94595 11.1992 6.23466 11.1992H7.67822C7.96693 11.1992 8.20094 11.4332 8.20094 11.7219V15.542C8.20094 15.8307 7.96693 16.0648 7.67822 16.0648Z" fill="white"/>
<path fill-rule="evenodd" clip-rule="evenodd" d="M10.7233 16.0651H9.27971C8.991 16.0651 8.75699 15.8311 8.75699 15.5424V9.78639C8.75699 9.49768 8.991 9.26367 9.27971 9.26367H10.7233C11.012 9.26367 11.246 9.49768 11.246 9.78639V15.5424C11.246 15.8311 11.012 16.0651 10.7233 16.0651Z" fill="white"/>
<path fill-rule="evenodd" clip-rule="evenodd" d="M14.6285 10.7285C13.1546 10.7285 11.9602 11.9229 11.9602 13.3968C11.9602 14.8708 13.1546 16.0651 14.6285 16.0651C16.1024 16.0651 17.2968 14.8708 17.2968 13.3968C17.2968 11.9229 16.1024 10.7285 14.6285 10.7285ZM15.9383 14.2751C16.0569 14.3936 16.0569 14.5881 15.9383 14.7066C15.8198 14.8252 15.6253 14.8252 15.5068 14.7066L14.6285 13.8284L13.7502 14.7066C13.6317 14.8252 13.4372 14.8252 13.3187 14.7066C13.2001 14.5881 13.2001 14.3936 13.3187 14.2751L14.197 13.3968L13.3187 12.5185C13.2001 12.4 13.2001 12.2055 13.3187 12.087C13.4372 11.9685 13.6317 11.9685 13.7502 12.087L14.6285 12.9653L15.5068 12.087C15.6253 11.9685 15.8198 11.9685 15.9383 12.087C16.0569 12.2055 16.0569 12.4 15.9383 12.5185L15.06 13.3968L15.9383 14.2751Z" fill="white"/>
<path fill-rule="evenodd" clip-rule="evenodd" d="M17.3333 11.7736V5.88698C17.3333 5.59827 17.0993 5.36426 16.8106 5.36426H15.367C15.0783 5.36426 14.8443 5.59827 14.8443 5.88698V10.2511C15.9019 10.321 16.8167 10.9136 17.3333 11.7736Z" fill="white"/>
<path fill-rule="evenodd" clip-rule="evenodd" d="M16.309 16.065H16.8104C17.0991 16.065 17.3332 15.831 17.3332 15.5422V15.0195C17.0779 15.442 16.7284 15.8006 16.309 16.065Z" fill="white"/>
<path fill-rule="evenodd" clip-rule="evenodd" d="M14.2911 10.26V7.81959C14.2911 7.53088 14.057 7.29688 13.7683 7.29688H12.3248C12.0361 7.29688 11.8021 7.53088 11.8021 7.81959V12.0013C12.267 11.0562 13.197 10.3785 14.2911 10.26Z" fill="white"/>
<path fill-rule="evenodd" clip-rule="evenodd" d="M11.7991 14.791V15.5417C11.7991 15.8304 12.0331 16.0644 12.3218 16.0644H12.9479C12.4586 15.7544 12.0605 15.3137 11.7991 14.791Z" fill="white"/>
</svg>
