<svg width="20" height="21" viewBox="0 0 20 21" fill="none" xmlns="http://www.w3.org/2000/svg">
<rect y="0.125" width="20" height="20" rx="4" fill="#E78500"/>
<path d="M15.7988 16.6479L11.2039 12.0368L7.40126 16.616C7.329 16.6994 7.23019 16.7551 7.12164 16.7735C7.01309 16.792 6.90151 16.7722 6.8059 16.7174C6.71029 16.6626 6.63655 16.5762 6.59725 16.473C6.55795 16.3698 6.5555 16.2561 6.59034 16.1513L8.7352 10.1247H6.7999C6.64429 10.1231 6.49141 10.0834 6.35458 10.009C6.21775 9.93465 6.10111 9.82783 6.01482 9.69786C5.92853 9.5679 5.87521 9.41874 5.85949 9.26337C5.84377 9.108 5.86613 8.95113 5.92462 8.80641L6.53063 7.34667L3.46901 4.27436C3.02755 3.84443 3.71086 3.15827 4.13956 3.60143L16.4693 15.975C16.9108 16.4049 16.2274 17.0911 15.7988 16.6479Z" fill="white"/>
<path d="M7.32114 5.44297L7.90049 4.04752C7.97224 3.87388 8.09376 3.72553 8.24962 3.62127C8.40549 3.51702 8.58869 3.46156 8.776 3.46192H11.3979C11.5664 3.46397 11.7313 3.51073 11.876 3.59744C12.0206 3.68415 12.1398 3.80773 12.2215 3.95562C12.3032 4.10352 12.3444 4.27047 12.341 4.43953C12.3376 4.60859 12.2896 4.77373 12.2021 4.91819L10.7382 7.26916H13.1378C13.318 7.26921 13.4945 7.32079 13.6465 7.41786C13.7986 7.51493 13.92 7.65348 13.9964 7.81727C14.0728 7.98106 14.1012 8.16332 14.0782 8.3427C14.0551 8.52208 13.9816 8.69116 13.8663 8.83013L12.4257 10.5655L7.32114 5.44297Z" fill="white"/>
</svg>
