<svg width="33" height="33" viewBox="0 0 33 33" fill="none" xmlns="http://www.w3.org/2000/svg">
<rect x="0.27124" y="0.050293" width="32" height="32" rx="8" fill="#E78500"/>
<path d="M13.9782 7.34619H8.95544V8.38171H13.9782V7.34619Z" fill="white"/>
<path d="M23.9803 23.4058H8.98047V25.3096H23.9803V23.4058Z" fill="white"/>
<path d="M24.9079 9.33594V15.3407H15.9491V9.33594H6.96558V22.5966H25.9493V9.33594H24.9079ZM12.3638 15.4844H8.31513V14.3723H12.2738V15.4844H12.3638ZM12.3638 13.7734H8.31513V12.6612H12.2738V13.7734H12.3638ZM12.3638 12.0623H8.31513V10.8762H12.2738V12.0623H12.3638Z" fill="white"/>
<path d="M16.9315 7.34619V14.3649H23.9632V7.34619H16.9315ZM22.2173 10.2843L18.7773 13.712H18.6934C18.6934 13.712 18.6934 13.712 18.6095 13.712C18.5256 13.712 18.5256 13.6304 18.5256 13.6304L19.7842 11.2636H18.6934H18.6095V11.182L20.2037 8.48878L20.2876 8.40716H22.0495C22.0495 8.40716 22.1334 8.40716 22.1334 8.48878V8.57039L20.8749 10.2027H22.1334C22.2173 10.2027 22.2173 10.2027 22.2173 10.2843C22.2173 10.2027 22.2173 10.2027 22.2173 10.2843Z" fill="white"/>
</svg>
