<svg width="295" height="280" viewBox="0 0 295 280" fill="none" xmlns="http://www.w3.org/2000/svg">
<path d="M141.148 239.855C205.522 239.855 257.707 187.669 257.707 123.295C257.707 58.9215 205.522 6.73608 141.148 6.73608C76.774 6.73608 24.5886 58.9215 24.5886 123.295C24.5886 187.669 76.774 239.855 141.148 239.855Z" fill="#F2F6F9"/>
<path d="M90.7231 64.7058C95.9235 42.6822 82.2856 20.6128 60.262 15.4124C38.2384 10.212 16.169 23.8499 10.9686 45.8735C5.76824 67.8971 19.4061 89.9665 41.4297 95.1669C63.4533 100.367 85.5227 86.7294 90.7231 64.7058Z" fill="#D2DFEE"/>
<path d="M50.8458 96.2584C63.6039 96.2584 73.9464 77.9131 73.9464 55.283C73.9464 32.6529 63.6039 14.3076 50.8458 14.3076C38.0876 14.3076 27.7451 32.6529 27.7451 55.283C27.7451 77.9131 38.0876 96.2584 50.8458 96.2584Z" stroke="white" stroke-miterlimit="10"/>
<path d="M50.8457 81.9449C73.4758 81.9449 91.8211 70.0077 91.8211 55.2824C91.8211 40.5571 73.4758 28.6199 50.8457 28.6199C28.2157 28.6199 9.87036 40.5571 9.87036 55.2824C9.87036 70.0077 28.2157 81.9449 50.8457 81.9449Z" stroke="white" stroke-miterlimit="10"/>
<path d="M9.87036 55.2822H91.7136" stroke="white" stroke-miterlimit="10"/>
<path d="M50.8457 14.3069V96.2583" stroke="white" stroke-miterlimit="10"/>
<path d="M286.977 279.926H7.09589C3.17725 279.926 0 276.75 0 272.831C0 268.911 3.17661 265.735 7.09589 265.735H286.976C290.895 265.735 294.072 268.911 294.072 272.831C294.072 276.749 290.895 279.926 286.977 279.926Z" fill="#E1E8EF"/>
<path d="M231.826 148.744C213.439 148.744 198.533 163.65 198.533 182.037C198.533 200.424 213.439 215.33 231.826 215.33C250.213 215.33 265.119 200.424 265.119 182.037C265.119 163.649 250.214 148.744 231.826 148.744ZM231.826 202.73C220.398 202.73 211.133 193.465 211.133 182.037C211.133 170.608 220.398 161.343 231.826 161.343C243.255 161.343 252.52 170.608 252.52 182.037C252.52 193.465 243.255 202.73 231.826 202.73Z" fill="#E2EAF2"/>
<path d="M242.911 151.68L246.088 146.711C246.088 146.711 255.13 149.236 259.204 156.405L255.375 160.234L242.911 151.68Z" fill="#E2EAF2"/>
<path d="M262.625 172.318L267.893 170.634C267.893 170.634 271.26 178.509 270.174 185.188L263.657 186.926L262.625 172.318Z" fill="#E2EAF2"/>
<path d="M261.267 195.344L266.806 198.766C266.806 198.766 263.059 206.695 258.443 209.899L253.88 205.988L261.267 195.344Z" fill="#E2EAF2"/>
<path d="M231.099 214.08L233.462 220.597C233.462 220.597 242.911 220.108 247.799 217.338L245.763 210.332L231.099 214.08Z" fill="#E2EAF2"/>
<path d="M215.702 154.694L214.806 148.341C214.806 148.341 221.975 144.349 230.284 144.594L231.987 149.639L215.702 154.694Z" fill="#E2EAF2"/>
<path d="M207.393 161.021L202.016 157.329C202.016 157.329 196.151 162.433 194.521 171.123L200.278 174.273L207.393 161.021Z" fill="#E2EAF2"/>
<path d="M225.303 60.4832C209.278 60.4832 196.288 73.4738 196.288 89.498C196.288 105.523 209.279 118.513 225.303 118.513C241.328 118.513 254.318 105.522 254.318 89.498C254.318 73.4738 241.328 60.4832 225.303 60.4832ZM225.303 107.533C215.342 107.533 207.268 99.4584 207.268 89.4987C207.268 79.5389 215.342 71.464 225.303 71.464C235.263 71.464 243.337 79.5383 243.337 89.4987C243.337 99.4584 235.263 107.533 225.303 107.533Z" fill="#E2EAF2"/>
<path d="M234.963 63.0426L237.731 58.7122C237.731 58.7122 245.612 60.913 249.162 67.1607L245.825 70.4972L234.963 63.0426Z" fill="#E2EAF2"/>
<path d="M252.144 81.028L256.735 79.5608C256.735 79.5608 259.67 86.4236 258.723 92.2452L253.043 93.7597L252.144 81.028Z" fill="#E2EAF2"/>
<path d="M250.96 101.096L255.788 104.077C255.788 104.077 252.522 110.987 248.499 113.78L244.524 110.372L250.96 101.096Z" fill="#E2EAF2"/>
<path d="M209.69 111.695L206.574 116.438C206.574 116.438 212.454 121.321 217.281 122.151L219.444 117.382L209.69 111.695Z" fill="#E2EAF2"/>
<path d="M224.669 117.425L226.728 123.105C226.728 123.105 234.963 122.679 239.223 120.265L237.449 114.159L224.669 117.425Z" fill="#E2EAF2"/>
<path d="M211.251 65.6687L210.47 60.1313C210.47 60.1313 216.718 56.6523 223.959 56.8654L225.444 61.2625L211.251 65.6687Z" fill="#E2EAF2"/>
<path d="M204.009 71.1828L199.323 67.9641C199.323 67.9641 194.211 72.413 192.792 79.9861L197.809 82.7315L204.009 71.1828Z" fill="#E2EAF2"/>
<path d="M148.776 9.43714C130.174 18.515 122.454 40.9539 131.532 59.5551C140.61 78.157 163.049 85.8771 181.65 76.7992C200.252 67.7213 207.972 45.2824 198.894 26.6812C189.817 8.07935 167.378 0.359273 148.776 9.43714ZM175.429 64.0526C163.868 69.6949 149.921 64.8963 144.278 53.3347C138.636 41.773 143.435 27.826 154.996 22.1837C166.559 16.5414 180.505 21.34 186.147 32.9017C191.79 44.4633 186.992 58.4104 175.429 64.0526Z" fill="#E2EAF2"/>
<path d="M161.44 6.93526L162.201 0.339233C162.201 0.339233 172.595 -1.57023 180.255 3.67124L178.272 9.43523L161.44 6.93526Z" fill="#E2EAF2"/>
<path d="M191.572 18.0798L196.07 13.7759C196.07 13.7759 203.364 20.0799 205.564 27.3739L199.829 32.3493L191.572 18.0798Z" fill="#E2EAF2"/>
<path d="M201.567 42.0454L208.86 42.7719C208.86 42.7719 208.984 52.6436 205.896 58.1641L199.35 56.4606L201.567 42.0454Z" fill="#E2EAF2"/>
<path d="M159.664 77.7297L158.734 84.9998C158.734 84.9998 168.326 87.3366 174.399 85.5664L174.209 78.8052L159.664 77.7297Z" fill="#E2EAF2"/>
<path d="M180.297 75.8946L185.905 81.3212C185.905 81.3212 195.223 76.1613 198.801 70.9464L193.282 64.8645L180.297 75.8946Z" fill="#E2EAF2"/>
<path d="M135.402 23.4169L131.358 17.4309C131.358 17.4309 136.64 9.85323 145.167 5.99805L149.381 10.2611L135.402 23.4169Z" fill="#E2EAF2"/>
<path d="M130.119 33.9201L122.857 32.8381C122.857 32.8381 119.444 40.8981 122.085 50.4934L129.464 50.8378L130.119 33.9201Z" fill="#E2EAF2"/>
<path d="M34.628 63.3547C34.628 63.3547 34.6195 63.3606 34.604 63.3716C31.2811 65.6967 29.3159 69.5098 29.3159 73.5657V73.8901C29.3159 74.3712 29.393 74.8497 29.5432 75.3068L93.6879 269.812C94.4105 272.004 96.5407 273.415 98.8406 273.226L225.64 262.795C225.64 262.795 231.079 258.539 231.754 254.313L34.628 63.3547Z" fill="#433E51"/>
<path d="M33.5524 66.4284L97.7761 261.357C98.9027 264.778 102.234 266.974 105.822 266.663L229.509 255.927C231.267 255.775 232.413 254.009 231.837 252.341L164.255 56.7199C163.323 54.0231 160.679 52.3027 157.836 52.5449L35.8672 62.9248C34.1455 63.0712 33.0118 64.787 33.5524 66.4284Z" fill="#5A5368"/>
<path d="M44.8222 73.2706L100.837 242.616C101.38 244.258 102.979 245.314 104.703 245.169L213.068 236.045C215.504 235.84 217.092 233.394 216.287 231.086L157.458 62.3039C156.898 60.6956 155.321 59.6686 153.623 59.8066L48.072 68.3664C45.6562 68.5626 44.0614 70.9694 44.8222 73.2706Z" fill="#E2ECF7"/>
<path d="M141.819 108.167C143.562 120.31 136.165 133.195 123.16 135.062C110.157 136.929 95.7371 126.788 93.671 114.697C91.4714 101.826 98.3958 91.2352 110.506 89.2804C123.741 87.1437 140.076 96.0241 141.819 108.167Z" fill="#3396FF"/>
<path d="M123.056 104.684C123.802 100.087 120.68 95.756 116.084 95.01C111.488 94.2641 107.157 97.3857 106.411 101.982C105.665 106.579 108.786 110.91 113.383 111.656C117.979 112.402 122.31 109.28 123.056 104.684Z" fill="#8ACDFF"/>
<path d="M137.885 125.664C135.027 121.335 127.782 112.311 117.677 113.556C106.769 114.9 106.836 127.546 107.193 131.935C112.117 134.555 117.782 135.835 123.162 135.063C129.576 134.141 134.623 130.535 137.885 125.664Z" fill="#8ACDFF"/>
<path d="M68.6143 66.7013L74.8263 71.63L131.551 66.7964L134.156 61.386L68.6143 66.7013Z" fill="#433E51"/>
<path d="M138.052 62.5046L149.695 61.6221L151.662 65.0603L139.924 65.9823L138.052 62.5046Z" fill="white"/>
<path d="M146.679 61.883L146.383 61.8733L138.052 62.5046L139.924 65.9823L148.634 65.2979L146.679 61.883Z" fill="#A4BFD8"/>
<path d="M56.0044 70.8108L56.8079 73.3023" stroke="#433E51" stroke-miterlimit="10" stroke-linecap="round" stroke-linejoin="round"/>
<path d="M58.4468 69.7209L59.508 73.0115" stroke="#433E51" stroke-miterlimit="10" stroke-linecap="round" stroke-linejoin="round"/>
<path d="M61.3696 68.8113L62.6128 72.6645" stroke="#433E51" stroke-miterlimit="10" stroke-linecap="round" stroke-linejoin="round"/>
<path d="M123.142 256.903L115.8 257.584L114.484 251.27L121.589 250.611L123.142 256.903Z" stroke="#433E51" stroke-miterlimit="10" stroke-linecap="round" stroke-linejoin="round"/>
<path d="M208.868 249.248L200.65 247.347L207.315 242.956L208.868 249.248Z" stroke="#433E51" stroke-miterlimit="10" stroke-linecap="round" stroke-linejoin="round"/>
<path d="M168.492 250.054C168.467 252.091 166.796 253.721 164.759 253.697C162.723 253.672 161.093 252.001 161.117 249.964C161.142 247.928 162.813 246.297 164.849 246.322C166.886 246.348 168.516 248.018 168.492 250.054Z" stroke="#433E51" stroke-miterlimit="10" stroke-linecap="round" stroke-linejoin="round"/>
<path d="M36.0505 74.0085L92.4473 245.183" stroke="#302D3D" stroke-miterlimit="10" stroke-linecap="round" stroke-linejoin="round"/>
<path d="M220.439 202.73H119.674C118.15 202.73 116.916 201.496 116.916 199.972V189.413C116.916 187.89 118.15 186.655 119.674 186.655H220.439C221.962 186.655 223.197 187.89 223.197 189.413V199.972C223.197 201.495 221.962 202.73 220.439 202.73Z" fill="white"/>
<path d="M167.064 195.561H131.669C131.103 195.561 130.644 195.102 130.644 194.536C130.644 193.971 131.103 193.511 131.669 193.511H167.064C167.63 193.511 168.089 193.971 168.089 194.536C168.089 195.102 167.63 195.561 167.064 195.561Z" fill="#433E51"/>
<path d="M208.444 195.561H173.049C172.483 195.561 172.024 195.102 172.024 194.536C172.024 193.971 172.483 193.511 173.049 193.511H208.444C209.01 193.511 209.469 193.971 209.469 194.536C209.469 195.102 209.01 195.561 208.444 195.561Z" fill="#433E51"/>
<path d="M220.439 228.147H119.674C118.15 228.147 116.916 226.912 116.916 225.388V214.83C116.916 213.306 118.15 212.071 119.674 212.071H220.439C221.962 212.071 223.197 213.306 223.197 214.83V225.388C223.197 226.912 221.962 228.147 220.439 228.147Z" fill="white"/>
<path d="M131.75 221.698C132.628 221.698 133.339 220.986 133.339 220.109C133.339 219.232 132.628 218.521 131.75 218.521C130.873 218.521 130.162 219.232 130.162 220.109C130.162 220.986 130.873 221.698 131.75 221.698Z" fill="#433E51"/>
<path d="M142.626 221.698C143.503 221.698 144.214 220.986 144.214 220.109C144.214 219.232 143.503 218.521 142.626 218.521C141.748 218.521 141.037 219.232 141.037 220.109C141.037 220.986 141.748 221.698 142.626 221.698Z" fill="#433E51"/>
<path d="M153.583 221.698C154.46 221.698 155.171 220.986 155.171 220.109C155.171 219.232 154.46 218.521 153.583 218.521C152.705 218.521 151.994 219.232 151.994 220.109C151.994 220.986 152.705 221.698 153.583 221.698Z" fill="#433E51"/>
<path d="M164.458 221.698C165.335 221.698 166.046 220.986 166.046 220.109C166.046 219.232 165.335 218.521 164.458 218.521C163.581 218.521 162.87 219.232 162.87 220.109C162.87 220.986 163.581 221.698 164.458 221.698Z" fill="#433E51"/>
<path d="M175.655 221.698C176.532 221.698 177.243 220.986 177.243 220.109C177.243 219.232 176.532 218.521 175.655 218.521C174.778 218.521 174.067 219.232 174.067 220.109C174.067 220.986 174.778 221.698 175.655 221.698Z" fill="#433E51"/>
<path d="M186.53 221.698C187.408 221.698 188.119 220.986 188.119 220.109C188.119 219.232 187.408 218.521 186.53 218.521C185.653 218.521 184.942 219.232 184.942 220.109C184.942 220.986 185.653 221.698 186.53 221.698Z" fill="#433E51"/>
<path d="M197.486 221.698C198.364 221.698 199.075 220.986 199.075 220.109C199.075 219.232 198.364 218.521 197.486 218.521C196.609 218.521 195.898 219.232 195.898 220.109C195.898 220.986 196.609 221.698 197.486 221.698Z" fill="#433E51"/>
<path d="M208.362 221.698C209.239 221.698 209.95 220.986 209.95 220.109C209.95 219.232 209.239 218.521 208.362 218.521C207.485 218.521 206.774 219.232 206.774 220.109C206.774 220.986 207.485 221.698 208.362 221.698Z" fill="#433E51"/>
<path d="M249.162 58.7117V132.286H208.861" stroke="#83A8C6" stroke-miterlimit="10"/>
<path opacity="0.55" d="M272.003 24.7756H257.862V23.2074C257.862 20.486 255.655 18.2793 252.933 18.2793H228.74C226.018 18.2793 223.812 20.486 223.812 23.2074V42.7416C223.812 45.4637 226.018 47.6704 228.74 47.6704H246.652H252.934H272.003C274.405 47.6704 276.353 45.7227 276.353 43.3205V29.1255C276.353 26.7226 274.405 24.7756 272.003 24.7756Z" fill="#4C94FF"/>
<path d="M274.131 30.824H226.182C224.874 30.824 223.812 31.8852 223.812 33.1938V58.0246C223.812 59.3331 224.874 60.3944 226.182 60.3944H274.131C275.44 60.3944 276.501 59.3331 276.501 58.0246V33.1938C276.501 31.8852 275.44 30.824 274.131 30.824Z" fill="#3396FF"/>
<path d="M215.07 135.524V127.145H208.861V135.524H215.07Z" fill="#433E51"/>
<path d="M220.698 78.2554C184.203 71.3039 169.431 58.053 169.431 58.053C169.431 58.053 154.659 71.3039 118.164 78.2554C118.164 78.2554 114.037 148.747 169.431 175.793C224.826 148.747 220.698 78.2554 220.698 78.2554Z" fill="#3396FF"/>
<path opacity="0.35" d="M169.432 175.793V58.053C169.432 58.053 154.66 71.3039 118.165 78.2554C118.165 78.2554 114.038 148.747 169.432 175.793Z" fill="#3396FF"/>
<path d="M169.432 75.9199C169.432 75.9199 157.865 75.9199 157.865 85.328V94.7374H161.449V85.1247C161.449 85.1247 161.286 79.1781 169.432 79.1781C177.578 79.1781 177.416 85.1247 177.416 85.1247V94.7374H181V85.328C180.999 75.9199 169.432 75.9199 169.432 75.9199Z" fill="#E2E8EB"/>
<path d="M182.858 94.0051H156.007C154.483 94.0051 153.249 95.2399 153.249 96.7635V122.854C153.249 124.378 154.483 125.613 156.007 125.613H182.858C184.381 125.613 185.616 124.378 185.616 122.854V96.7635C185.616 95.2399 184.381 94.0051 182.858 94.0051Z" fill="#FFD41F"/>
<path opacity="0.55" d="M161.333 121.621C159.203 121.621 157.477 119.895 157.477 117.765V94.0051H157.104C154.974 94.0051 153.248 95.7313 153.248 97.861V121.757C153.248 123.886 154.974 125.613 157.104 125.613H181.76C183.889 125.613 185.615 123.886 185.615 121.757V121.621H161.333Z" fill="#FFD41F"/>
<path d="M172.69 107.229C172.642 106.571 172.455 106.03 172.192 105.586C170.986 103.55 167.878 103.55 166.672 105.586C166.41 106.03 166.222 106.571 166.174 107.229C165.973 109.964 167.803 110.352 167.803 110.352L167.561 114.527C167.541 114.872 167.723 115.204 168.034 115.353C168.368 115.512 168.85 115.675 169.432 115.675C170.001 115.675 170.475 115.519 170.808 115.363C171.13 115.212 171.323 114.882 171.303 114.527L171.061 110.352C171.061 110.352 172.891 109.964 172.69 107.229Z" fill="#823D00"/>
<path d="M253.351 60.4832H244.972V64.6038H253.351V60.4832Z" fill="#433E51"/>
<path d="M165.659 144.636C165.659 145.577 165.483 146.382 165.131 147.053C164.781 147.72 164.304 148.232 163.699 148.587C163.097 148.942 162.413 149.119 161.649 149.119C160.885 149.119 160.2 148.942 159.595 148.587C158.993 148.229 158.516 147.716 158.163 147.048C157.814 146.378 157.639 145.574 157.639 144.636C157.639 143.696 157.814 142.892 158.163 142.224C158.516 141.554 158.993 141.041 159.595 140.686C160.2 140.331 160.885 140.153 161.649 140.153C162.413 140.153 163.097 140.331 163.699 140.686C164.304 141.041 164.781 141.554 165.131 142.224C165.483 142.892 165.659 143.696 165.659 144.636ZM164.07 144.636C164.07 143.974 163.966 143.416 163.759 142.962C163.554 142.504 163.27 142.159 162.906 141.926C162.543 141.69 162.124 141.572 161.649 141.572C161.175 141.572 160.756 141.69 160.392 141.926C160.028 142.159 159.743 142.504 159.536 142.962C159.331 143.416 159.229 143.974 159.229 144.636C159.229 145.298 159.331 145.858 159.536 146.315C159.743 146.77 160.028 147.115 160.392 147.351C160.756 147.584 161.175 147.7 161.649 147.7C162.124 147.7 162.543 147.584 162.906 147.351C163.27 147.115 163.554 146.77 163.759 146.315C163.966 145.858 164.07 145.298 164.07 144.636ZM166.384 141.598V140.273H173.347V141.598H170.649V149H169.081V141.598H166.384ZM174.689 149V140.273H177.962C178.632 140.273 179.195 140.398 179.649 140.648C180.107 140.898 180.452 141.241 180.685 141.679C180.92 142.114 181.038 142.608 181.038 143.162C181.038 143.722 180.92 144.219 180.685 144.653C180.449 145.088 180.101 145.43 179.641 145.68C179.18 145.928 178.614 146.051 177.94 146.051H175.771V144.751H177.727C178.119 144.751 178.44 144.683 178.69 144.547C178.94 144.411 179.125 144.223 179.244 143.984C179.366 143.746 179.428 143.472 179.428 143.162C179.428 142.852 179.366 142.58 179.244 142.344C179.125 142.108 178.939 141.925 178.686 141.794C178.436 141.661 178.114 141.594 177.719 141.594H176.27V149H174.689Z" fill="white"/>
</svg>
