<svg width="20" height="20" viewBox="0 0 20 20" fill="none" xmlns="http://www.w3.org/2000/svg">
<path d="M10.8333 10.8346V15.4888L12.3567 13.9655L13.5358 15.1446L10 18.6796L6.46417 15.1446L7.64334 13.9655L9.16667 15.4888V10.8346H10.8333ZM10 1.66797C11.4308 1.66804 12.8117 2.1939 13.8802 3.14557C14.9486 4.09724 15.6301 5.40835 15.795 6.82964C16.8319 7.1124 17.7364 7.75056 18.3506 8.63258C18.9647 9.5146 19.2493 10.5844 19.1547 11.655C19.0601 12.7255 18.5923 13.7288 17.833 14.4895C17.0737 15.2501 16.0712 15.7198 15.0008 15.8163V14.138C15.3843 14.0832 15.753 13.9526 16.0855 13.7538C16.4179 13.555 16.7075 13.2919 16.9371 12.98C17.1668 12.668 17.3321 12.3135 17.4232 11.937C17.5144 11.5605 17.5296 11.1696 17.4681 10.7872C17.4066 10.4047 17.2694 10.0384 17.0648 9.70951C16.8601 9.38063 16.592 9.09582 16.276 8.87169C15.9601 8.64757 15.6026 8.48863 15.2246 8.40414C14.8466 8.31966 14.4555 8.31133 14.0742 8.37964C14.2047 7.77204 14.1976 7.14295 14.0535 6.53843C13.9094 5.93391 13.6319 5.36929 13.2413 4.88591C12.8508 4.40253 12.357 4.01264 11.7962 3.7448C11.2355 3.47695 10.6219 3.33794 10.0004 3.33794C9.37897 3.33794 8.76538 3.47695 8.20461 3.7448C7.64384 4.01264 7.15008 4.40253 6.75951 4.88591C6.36893 5.36929 6.09143 5.93391 5.94732 6.53843C5.80322 7.14295 5.79616 7.77204 5.92667 8.37964C5.16638 8.23686 4.38052 8.40196 3.74196 8.8386C3.1034 9.27525 2.66445 9.94768 2.52167 10.708C2.3789 11.4683 2.54399 12.2541 2.98064 12.8927C3.41729 13.5312 4.08972 13.9702 4.85 14.113L5 14.138V15.8163C3.92955 15.7199 2.92701 15.2504 2.16761 14.4898C1.40822 13.7292 0.940276 12.7259 0.845565 11.6553C0.750854 10.5847 1.0354 9.51487 1.64948 8.63278C2.26355 7.75069 3.16809 7.11246 4.205 6.82964C4.36976 5.40828 5.05118 4.09706 6.11965 3.14536C7.18813 2.19365 8.56913 1.66785 10 1.66797Z" fill="#999BA0"/>
</svg>
