<svg width="21" height="20" viewBox="0 0 21 20" fill="none" xmlns="http://www.w3.org/2000/svg">
<path fill-rule="evenodd" clip-rule="evenodd" d="M8.51232 7.43417C8.85883 7.08812 8.98312 6.58262 8.83421 6.10832C8.52813 5.18122 8.37264 4.20846 8.37264 3.21685C8.37266 2.86006 8.2281 2.5364 7.99447 2.30139C8.22806 2.5364 8.3726 2.86002 8.37257 3.21678C8.37257 4.20839 8.52806 5.18115 8.83414 6.10825C8.98305 6.58255 8.85876 7.08805 8.51225 7.4341L7.17852 9.20702C7.58825 9.97938 8.02366 10.6437 8.51588 11.2311C8.02368 10.6437 7.5883 9.97942 7.17859 9.20709L8.51232 7.43417ZM18.6182 12.9335C18.8485 13.168 18.9908 13.4893 18.9909 13.8432V16.8081C18.9909 17.5244 18.4081 18.1071 17.6918 18.1071C13.4762 18.1071 9.66418 16.3463 6.95258 13.5215C9.66419 16.3464 13.4762 18.1072 17.6918 18.1072C18.4081 18.1072 18.9909 17.5244 18.9909 16.8081V13.8433C18.9909 13.4894 18.8486 13.168 18.6182 12.9335ZM7.07361 1.71484C7.90195 1.71484 8.57557 2.38846 8.57553 3.21685C8.57553 4.18714 8.72766 5.13842 9.02687 6.04471L9.02778 6.04755C9.19766 6.58863 9.05862 7.16759 8.66614 7.56719L7.41863 9.22549C8.47727 11.1808 9.7124 12.4157 11.6832 13.4888L13.3882 12.2017C13.7482 11.8447 14.3476 11.7145 14.8697 11.8921C15.7707 12.1898 16.7222 12.3414 17.6918 12.3414C18.5202 12.3414 19.1938 13.015 19.1938 13.8433V16.8081C19.1938 17.6365 18.5202 18.3101 17.6918 18.3101C9.36911 18.3101 2.59851 11.5395 2.59851 3.21677C2.59851 2.38846 3.27212 1.71484 4.10043 1.71484H7.07361ZM7.35779 2.93598C7.28531 2.86265 7.18472 2.81717 7.07365 2.81717H4.10047C3.88002 2.81717 3.70084 2.99635 3.70084 3.21681C3.70084 6.98757 5.20016 10.4146 7.63399 12.9332C5.20012 10.4146 3.70077 6.98753 3.70077 3.21674C3.70077 2.99628 3.87995 2.8171 4.1004 2.8171H7.07358C7.18469 2.8171 7.28531 2.86261 7.35779 2.93598ZM17.9793 13.566C17.9066 13.4906 17.8046 13.4436 17.6918 13.4436C16.6044 13.4436 15.5368 13.2732 14.5183 12.9368C14.3752 12.8881 14.2166 12.9259 14.1108 13.0317L12.0164 14.6184C11.8785 14.7225 11.6923 14.7391 11.5403 14.6597C10.4737 14.1132 9.58305 13.5204 8.81426 12.8275C9.58306 13.5205 10.4738 14.1132 11.5404 14.6597C11.6923 14.7392 11.8786 14.7226 12.0165 14.6185L14.1108 13.0318C14.2167 12.9259 14.3752 12.8882 14.5184 12.9369C15.5368 13.2733 16.6044 13.4437 17.6918 13.4437C17.8046 13.4437 17.9066 13.4906 17.9793 13.566ZM7.2704 3.21681C7.2704 4.32522 7.44437 5.4137 7.78506 6.44543C7.80439 6.50877 7.80077 6.58866 7.68972 6.70426L7.68137 6.71295L6.12815 8.77001C5.97792 8.96925 5.95435 9.23649 6.06716 9.45887C7.34834 11.9771 8.91243 13.541 11.4473 14.84C11.6699 14.956 11.94 14.9304 12.139 14.7802L14.2445 13.1851L14.2543 13.1752C14.3058 13.1237 14.3835 13.1053 14.453 13.129L14.4548 13.1296C15.494 13.4728 16.5832 13.6466 17.6918 13.6466C17.8002 13.6466 17.8886 13.7349 17.8886 13.8434V16.8082C17.8886 16.9166 17.8002 17.0049 17.6918 17.0049C10.089 17.0049 3.90372 10.8196 3.90372 3.21681C3.90372 3.1084 3.99207 3.02006 4.10047 3.02006H7.07365C7.18205 3.02006 7.2704 3.1084 7.2704 3.21681Z" fill="#3E97FF"/>
</svg>
