<svg width="30" height="34" viewBox="0 0 30 34" fill="none" xmlns="http://www.w3.org/2000/svg">
<path fill-rule="evenodd" clip-rule="evenodd" d="M20.0002 0.293457L29.9999 10.2932L29.9999 32.2934C29.9999 33.0297 29.403 33.6267 28.6666 33.6267H4.66658C3.9302 33.6267 3.33325 33.0297 3.33325 32.2934V1.62679C3.33325 0.89041 3.9302 0.293457 4.66658 0.293457H20.0002Z" fill="#F1F5F9"/>
<path d="M20 10.2934L30 10.2934L20 0.293457L20 10.2934Z" fill="#DDE4EE"/>
<rect y="14.9595" width="24" height="12" rx="0.666666" fill="#EF4444"/>
<path d="M5.308 20.9355H6.284C6.428 20.9355 6.56667 20.9248 6.7 20.9035C6.83333 20.8821 6.95067 20.8421 7.052 20.7835C7.15333 20.7195 7.23333 20.6315 7.292 20.5195C7.356 20.4075 7.388 20.2608 7.388 20.0795C7.388 19.8981 7.356 19.7515 7.292 19.6395C7.23333 19.5275 7.15333 19.4421 7.052 19.3835C6.95067 19.3195 6.83333 19.2768 6.7 19.2555C6.56667 19.2341 6.428 19.2235 6.284 19.2235H5.308V20.9355ZM4.052 18.2475H6.628C6.98533 18.2475 7.28933 18.3008 7.54 18.4075C7.79067 18.5088 7.99333 18.6448 8.148 18.8155C8.308 18.9861 8.42267 19.1808 8.492 19.3995C8.56667 19.6181 8.604 19.8448 8.604 20.0795C8.604 20.3088 8.56667 20.5355 8.492 20.7595C8.42267 20.9781 8.308 21.1728 8.148 21.3435C7.99333 21.5141 7.79067 21.6528 7.54 21.7595C7.28933 21.8608 6.98533 21.9115 6.628 21.9115H5.308V23.9595H4.052V18.2475ZM10.6439 22.9035H11.7639C11.9453 22.9035 12.1213 22.8741 12.2919 22.8155C12.4626 22.7568 12.6146 22.6608 12.7479 22.5275C12.8813 22.3888 12.9879 22.2101 13.0679 21.9915C13.1479 21.7728 13.1879 21.5061 13.1879 21.1915C13.1879 20.9035 13.1586 20.6448 13.0999 20.4155C13.0466 20.1808 12.9559 19.9808 12.8279 19.8155C12.6999 19.6501 12.5293 19.5248 12.3159 19.4395C12.1079 19.3488 11.8493 19.3035 11.5399 19.3035H10.6439V22.9035ZM9.38794 18.2475H11.8519C12.2199 18.2475 12.5613 18.3061 12.8759 18.4235C13.1959 18.5408 13.4706 18.7168 13.6999 18.9515C13.9346 19.1861 14.1159 19.4795 14.2439 19.8315C14.3773 20.1835 14.4439 20.5968 14.4439 21.0715C14.4439 21.4875 14.3906 21.8715 14.2839 22.2235C14.1773 22.5755 14.0146 22.8795 13.7959 23.1355C13.5826 23.3915 13.3133 23.5941 12.9879 23.7435C12.6679 23.8875 12.2893 23.9595 11.8519 23.9595H9.38794V18.2475ZM15.3176 18.2475H19.3336V19.3035H16.5736V20.6235H18.9656V21.5995H16.5736V23.9595H15.3176V18.2475Z" fill="white"/>
</svg>
