<svg width="21" height="20" viewBox="0 0 21 20" fill="none" xmlns="http://www.w3.org/2000/svg">
<path fill-rule="evenodd" clip-rule="evenodd" d="M7.90203 7.43417C8.24854 7.08812 8.37283 6.58262 8.22392 6.10832C7.91784 5.18122 7.76235 4.20846 7.76235 3.21685C7.76237 2.86006 7.61781 2.5364 7.38418 2.30139C7.61777 2.5364 7.7623 2.86002 7.76228 3.21678C7.76228 4.20839 7.91777 5.18115 8.22385 6.10825C8.37276 6.58255 8.24847 7.08805 7.90196 7.4341L6.56822 9.20702C6.98425 9.99125 7.42675 10.6641 7.92831 11.2581C7.42678 10.6641 6.98431 9.99129 6.56829 9.20709L7.90203 7.43417ZM18.0133 12.939C18.2405 13.1731 18.3805 13.4921 18.3806 13.8432V16.8081C18.3806 17.5244 17.7978 18.1071 17.0815 18.1071C12.8779 18.1071 9.07565 16.3564 6.36553 13.5457C9.07565 16.3564 12.878 18.1072 17.0816 18.1072C17.7979 18.1072 18.3806 17.5244 18.3806 16.8081V13.8433C18.3806 13.4922 18.2405 13.1731 18.0133 12.939ZM6.46332 1.71484C7.29166 1.71484 7.96528 2.38846 7.96524 3.21685C7.96524 4.18714 8.11737 5.13842 8.41658 6.04471L8.41749 6.04755C8.58737 6.58863 8.44833 7.16759 8.05584 7.56719L6.80833 9.22549C7.86698 11.1808 9.10211 12.4157 11.0729 13.4888L12.7779 12.2017C13.1379 11.8447 13.7373 11.7145 14.2594 11.8921C15.1605 12.1898 16.1119 12.3414 17.0816 12.3414C17.9099 12.3414 18.5835 13.015 18.5835 13.8433V16.8081C18.5835 17.6365 17.9099 18.3101 17.0816 18.3101C8.75882 18.3101 1.98822 11.5395 1.98822 3.21677C1.98822 2.38846 2.66183 1.71484 3.49014 1.71484H6.46332ZM6.7475 2.93598C6.67502 2.86265 6.57443 2.81717 6.46336 2.81717H3.49018C3.26973 2.81717 3.09055 2.99635 3.09055 3.21681C3.09055 6.98003 4.58389 10.4009 7.00912 12.9181C4.58385 10.4009 3.09048 6.98 3.09048 3.21674C3.09048 2.99628 3.26966 2.8171 3.49011 2.8171H6.46329C6.57439 2.8171 6.67502 2.86261 6.7475 2.93598ZM17.369 13.566C17.2963 13.4906 17.1943 13.4436 17.0815 13.4436C15.9941 13.4436 14.9265 13.2732 13.908 12.9368C13.7649 12.8881 13.6063 12.9259 13.5005 13.0317L11.4061 14.6184C11.2682 14.7225 11.082 14.7391 10.93 14.6597C9.86353 14.1132 8.97288 13.5205 8.20413 12.8276C8.9729 13.5206 9.86357 14.1133 10.9301 14.6597C11.082 14.7392 11.2683 14.7226 11.4062 14.6185L13.5006 13.0318C13.6064 12.9259 13.7649 12.8882 13.9081 12.9369C14.9265 13.2733 15.9942 13.4437 17.0816 13.4437C17.1943 13.4437 17.2963 13.4906 17.369 13.566ZM6.66011 3.21681C6.66011 4.32522 6.83408 5.4137 7.17477 6.44543C7.1941 6.50877 7.19047 6.58866 7.07942 6.70426L7.07108 6.71295L5.51786 8.77001C5.36763 8.96925 5.34406 9.23649 5.45687 9.45887C6.73805 11.9771 8.30214 13.541 10.837 14.84C11.0596 14.956 11.3297 14.9304 11.5287 14.7802L13.6342 13.1851L13.644 13.1752C13.6955 13.1237 13.7732 13.1053 13.8427 13.129L13.8445 13.1296C14.8837 13.4728 15.9729 13.6466 17.0816 13.6466C17.19 13.6466 17.2783 13.7349 17.2783 13.8434V16.8082C17.2783 16.9166 17.19 17.0049 17.0816 17.0049C9.47872 17.0049 3.29343 10.8196 3.29343 3.21681C3.29343 3.1084 3.38178 3.02006 3.49018 3.02006H6.46336C6.57176 3.02006 6.66011 3.1084 6.66011 3.21681Z" fill="#999BA0"/>
</svg>
