<svg width="30" height="34" viewBox="0 0 30 34" fill="none" xmlns="http://www.w3.org/2000/svg">
<path fill-rule="evenodd" clip-rule="evenodd" d="M20.0002 0.293457L29.9999 10.2932L29.9999 32.2934C29.9999 33.0297 29.403 33.6267 28.6666 33.6267H4.66658C3.9302 33.6267 3.33325 33.0297 3.33325 32.2934V1.62679C3.33325 0.89041 3.9302 0.293457 4.66658 0.293457H20.0002Z" fill="#F1F5F9"/>
<path d="M20 10.2934L30 10.2934L20 0.293457L20 10.2934Z" fill="#DDE4EE"/>
<rect y="14.9595" width="24" height="12" rx="0.666666" fill="#FF8450"/>
<path d="M5.808 20.9355H6.784C6.928 20.9355 7.06667 20.9248 7.2 20.9035C7.33333 20.8821 7.45067 20.8421 7.552 20.7835C7.65333 20.7195 7.73333 20.6315 7.792 20.5195C7.856 20.4075 7.888 20.2608 7.888 20.0795C7.888 19.8981 7.856 19.7515 7.792 19.6395C7.73333 19.5275 7.65333 19.4421 7.552 19.3835C7.45067 19.3195 7.33333 19.2768 7.2 19.2555C7.06667 19.2341 6.928 19.2235 6.784 19.2235H5.808V20.9355ZM4.552 18.2475H7.128C7.48533 18.2475 7.78933 18.3008 8.04 18.4075C8.29067 18.5088 8.49333 18.6448 8.648 18.8155C8.808 18.9861 8.92267 19.1808 8.992 19.3995C9.06667 19.6181 9.104 19.8448 9.104 20.0795C9.104 20.3088 9.06667 20.5355 8.992 20.7595C8.92267 20.9781 8.808 21.1728 8.648 21.3435C8.49333 21.5141 8.29067 21.6528 8.04 21.7595C7.78933 21.8608 7.48533 21.9115 7.128 21.9115H5.808V23.9595H4.552V18.2475ZM11.1439 20.9355H12.1199C12.2639 20.9355 12.4026 20.9248 12.5359 20.9035C12.6693 20.8821 12.7866 20.8421 12.8879 20.7835C12.9893 20.7195 13.0693 20.6315 13.1279 20.5195C13.1919 20.4075 13.2239 20.2608 13.2239 20.0795C13.2239 19.8981 13.1919 19.7515 13.1279 19.6395C13.0693 19.5275 12.9893 19.4421 12.8879 19.3835C12.7866 19.3195 12.6693 19.2768 12.5359 19.2555C12.4026 19.2341 12.2639 19.2235 12.1199 19.2235H11.1439V20.9355ZM9.88794 18.2475H12.4639C12.8213 18.2475 13.1253 18.3008 13.3759 18.4075C13.6266 18.5088 13.8293 18.6448 13.9839 18.8155C14.1439 18.9861 14.2586 19.1808 14.3279 19.3995C14.4026 19.6181 14.4399 19.8448 14.4399 20.0795C14.4399 20.3088 14.4026 20.5355 14.3279 20.7595C14.2586 20.9781 14.1439 21.1728 13.9839 21.3435C13.8293 21.5141 13.6266 21.6528 13.3759 21.7595C13.1253 21.8608 12.8213 21.9115 12.4639 21.9115H11.1439V23.9595H9.88794V18.2475ZM16.4879 19.3035H14.7759V18.2475H19.4559V19.3035H17.7439V23.9595H16.4879V19.3035Z" fill="white"/>
</svg>
