<svg width="30" height="34" viewBox="0 0 30 34" fill="none" xmlns="http://www.w3.org/2000/svg">
<path fill-rule="evenodd" clip-rule="evenodd" d="M19.9999 0.333984L29.9997 10.3337L29.9997 32.3339C29.9997 33.0703 29.4027 33.6672 28.6663 33.6672H4.66634C3.92996 33.6672 3.33301 33.0703 3.33301 32.3339V1.66732C3.33301 0.930938 3.92996 0.333984 4.66634 0.333984H19.9999Z" fill="#F1F5F9"/>
<g opacity="0.5">
<path d="M23.7233 14.8056H9.60934C9.47361 14.8056 9.34342 14.7539 9.24732 14.6618C9.15121 14.5698 9.09704 14.4449 9.09668 14.3146C9.09668 14.184 9.15069 14.0588 9.24683 13.9664C9.34298 13.8741 9.47338 13.8223 9.60934 13.8223H23.7233C23.7906 13.8223 23.8572 13.835 23.9193 13.8598C23.9814 13.8845 24.0378 13.9208 24.0853 13.9665C24.1328 14.0123 24.1704 14.0666 24.1961 14.1263C24.2217 14.186 24.2348 14.25 24.2346 14.3146C24.2346 14.4448 24.1807 14.5697 24.0848 14.6618C23.989 14.7539 23.8589 14.8056 23.7233 14.8056Z" fill="#FF3E4C"/>
<path d="M23.7233 17.6943H9.60934C9.47338 17.6943 9.34298 17.6424 9.24683 17.5501C9.15069 17.4577 9.09668 17.3325 9.09668 17.2019C9.09704 17.0716 9.15121 16.9467 9.24732 16.8547C9.34342 16.7626 9.47361 16.7109 9.60934 16.7109H23.7233C23.8589 16.7109 23.989 16.7627 24.0848 16.8548C24.1807 16.9468 24.2346 17.0717 24.2346 17.2019C24.2348 17.2665 24.2217 17.3305 24.1961 17.3903C24.1704 17.45 24.1328 17.5043 24.0853 17.55C24.0378 17.5957 23.9814 17.632 23.9193 17.6568C23.8572 17.6815 23.7906 17.6943 23.7233 17.6943Z" fill="#FF3E4C"/>
<path d="M18.1565 11.9189H9.60934C9.47361 11.9189 9.34342 11.8672 9.24732 11.7752C9.15121 11.6831 9.09704 11.5582 9.09668 11.4279C9.09668 11.2973 9.15069 11.1721 9.24683 11.0797C9.34298 10.9874 9.47338 10.9355 9.60934 10.9355H18.1565C18.2922 10.9359 18.4222 10.9879 18.5181 11.0802C18.6139 11.1725 18.6678 11.2975 18.6678 11.4279C18.6674 11.558 18.6134 11.6827 18.5176 11.7747C18.4218 11.8667 18.292 11.9185 18.1565 11.9189V11.9189Z" fill="#FF3E4C"/>
<path d="M18.1565 9.03216H9.60934C9.47361 9.03216 9.34342 8.98045 9.24732 8.8884C9.15121 8.79636 9.09704 8.67149 9.09668 8.54115C9.09668 8.41058 9.15069 8.28533 9.24683 8.193C9.34298 8.10067 9.47338 8.04883 9.60934 8.04883H18.1565C18.2922 8.04918 18.4222 8.10119 18.5181 8.19348C18.6139 8.28577 18.6678 8.41081 18.6678 8.54115C18.6674 8.67127 18.6134 8.79595 18.5176 8.88796C18.4218 8.97996 18.292 9.03181 18.1565 9.03216Z" fill="#FF3E4C"/>
<path d="M23.4728 8.04883H21.0558C20.6345 8.04883 20.293 8.39036 20.293 8.81167V11.2287C20.293 11.65 20.6345 11.9915 21.0558 11.9915H23.4728C23.8942 11.9915 24.2357 11.65 24.2357 11.2287V8.81167C24.2357 8.39036 23.8942 8.04883 23.4728 8.04883Z" fill="#FF3E4C"/>
</g>
<path d="M20 10.334L30 10.334L20 0.333984L20 10.334Z" fill="#E2E8F0"/>
<rect y="20.334" width="20" height="9.99997" rx="0.666666" fill="#EF4444"/>
<path d="M3.96626 27.334V22.6067H5.73899C6.10215 22.6067 6.40684 22.6744 6.65305 22.8098C6.90081 22.9453 7.08777 23.1315 7.21396 23.3684C7.34168 23.6039 7.40554 23.8716 7.40554 24.1717C7.40554 24.4748 7.34168 24.7441 7.21396 24.9796C7.08623 25.215 6.89773 25.4004 6.64844 25.5359C6.39915 25.6697 6.09215 25.7367 5.72745 25.7367H4.55256V25.0327H5.61204C5.8244 25.0327 5.99828 24.9957 6.1337 24.9219C6.26912 24.848 6.36914 24.7464 6.43377 24.6172C6.49994 24.4879 6.53303 24.3394 6.53303 24.1717C6.53303 24.004 6.49994 23.8562 6.43377 23.7285C6.36914 23.6008 6.26835 23.5015 6.13139 23.4308C5.99598 23.3584 5.82132 23.3223 5.60742 23.3223H4.82262V27.334H3.96626ZM9.75129 27.334H8.14937V22.6067H9.7836C10.2529 22.6067 10.6561 22.7013 10.9931 22.8906C11.3317 23.0784 11.5917 23.3484 11.7733 23.7008C11.9549 24.0532 12.0457 24.4748 12.0457 24.9657C12.0457 25.4582 11.9541 25.8813 11.771 26.2353C11.5894 26.5892 11.327 26.8608 10.9839 27.0501C10.6423 27.2393 10.2314 27.334 9.75129 27.334ZM9.00573 26.593H9.70974C10.039 26.593 10.3137 26.533 10.5338 26.413C10.7538 26.2914 10.9193 26.1106 11.0301 25.8706C11.1408 25.629 11.1962 25.3274 11.1962 24.9657C11.1962 24.6041 11.1408 24.304 11.0301 24.0655C10.9193 23.8255 10.7554 23.6462 10.5384 23.5277C10.323 23.4077 10.0552 23.3477 9.73513 23.3477H9.00573V26.593ZM12.8593 27.334V22.6067H15.8877V23.3246H13.7157V24.608H15.68V25.3258H13.7157V27.334H12.8593Z" fill="white"/>
</svg>
