<svg width="16" height="16" viewBox="0 0 16 16" fill="none" xmlns="http://www.w3.org/2000/svg">
<g clip-path="url(#clip0_6410_30081)">
<path d="M8.00004 14.6654C4.31804 14.6654 1.33337 11.6807 1.33337 7.9987C1.33337 4.3167 4.31804 1.33203 8.00004 1.33203C11.682 1.33203 14.6667 4.3167 14.6667 7.9987C14.6667 11.6807 11.682 14.6654 8.00004 14.6654ZM8.00004 13.332C9.41453 13.332 10.7711 12.7701 11.7713 11.7699C12.7715 10.7697 13.3334 9.41319 13.3334 7.9987C13.3334 6.58421 12.7715 5.22766 11.7713 4.22746C10.7711 3.22727 9.41453 2.66536 8.00004 2.66536C6.58555 2.66536 5.229 3.22727 4.2288 4.22746C3.22861 5.22766 2.66671 6.58421 2.66671 7.9987C2.66671 9.41319 3.22861 10.7697 4.2288 11.7699C5.229 12.7701 6.58555 13.332 8.00004 13.332ZM7.33337 9.9987H8.66671V11.332H7.33337V9.9987ZM7.33337 4.66536H8.66671V8.66536H7.33337V4.66536Z" fill="#DB132B"/>
</g>
<defs>
<clipPath id="clip0_6410_30081">
<rect width="16" height="16" fill="white"/>
</clipPath>
</defs>
</svg>
