<svg width="20" height="21" viewBox="0 0 20 21" fill="none" xmlns="http://www.w3.org/2000/svg">
<rect y="0.25" width="20" height="20" rx="4" fill="#AFB1B6"/>
<path d="M8.27724 5.29004H5.34729V5.89409H8.27724V5.29004Z" fill="white"/>
<path d="M14.1118 14.6582H5.36188V15.7688H14.1118V14.6582Z" fill="white"/>
<path d="M14.6529 6.45117V9.95396H9.42693V6.45117H4.18652V14.1866H15.2604V6.45117H14.6529ZM7.33548 10.0378H4.97376V9.38902H7.283V10.0378H7.33548ZM7.33548 9.03968H4.97376V8.39091H7.283V9.03968H7.33548ZM7.33548 8.04157H4.97376V7.34968H7.283V8.04157H7.33548Z" fill="white"/>
<path d="M10 5.29004V9.3843H14.1018V5.29004H10ZM13.0834 7.00392L11.0767 9.00344H11.0278C11.0278 9.00344 11.0278 9.00344 10.9788 9.00344C10.9299 9.00344 10.9299 8.95583 10.9299 8.95583L11.664 7.57521H11.0278H10.9788V7.5276L11.9088 5.95655L11.9577 5.90894H12.9855C12.9855 5.90894 13.0344 5.90894 13.0344 5.95655V6.00415L12.3003 6.95631H13.0344C13.0834 6.95631 13.0834 6.95631 13.0834 7.00392C13.0834 6.95631 13.0834 6.95631 13.0834 7.00392Z" fill="white"/>
</svg>
