<svg width="33" height="33" viewBox="0 0 33 33" fill="none" xmlns="http://www.w3.org/2000/svg">
<rect x="0.391357" y="0.0703125" width="32" height="32" rx="8" fill="#F14156"/>
<path fill-rule="evenodd" clip-rule="evenodd" d="M8.08979 23.7622H5.86323C5.41791 23.7622 5.05698 23.4013 5.05698 22.956V20.0685C5.05698 19.6231 5.41791 19.2622 5.86323 19.2622H8.08979C8.5351 19.2622 8.89604 19.6231 8.89604 20.0685V22.956C8.89604 23.4013 8.5351 23.7622 8.08979 23.7622Z" fill="white"/>
<path fill-rule="evenodd" clip-rule="evenodd" d="M12.7867 23.762H10.5601C10.1148 23.762 9.75385 23.4011 9.75385 22.9558V17.0636C9.75385 16.6183 10.1148 16.2573 10.5601 16.2573H12.7867C13.232 16.2573 13.5929 16.6183 13.5929 17.0636V22.9558C13.5929 23.4011 13.232 23.762 12.7867 23.762Z" fill="white"/>
<path fill-rule="evenodd" clip-rule="evenodd" d="M17.4836 23.7621H15.257C14.8117 23.7621 14.4507 23.4012 14.4507 22.9559V14.0777C14.4507 13.6324 14.8117 13.2715 15.257 13.2715H17.4836C17.9289 13.2715 18.2898 13.6324 18.2898 14.0777V22.9559C18.2898 23.4012 17.9289 23.7621 17.4836 23.7621Z" fill="white"/>
<path fill-rule="evenodd" clip-rule="evenodd" d="M23.507 15.5308C21.2335 15.5308 19.3914 17.3729 19.3914 19.6464C19.3914 21.9198 21.2335 23.762 23.507 23.762C25.7804 23.762 27.6226 21.9198 27.6226 19.6464C27.6226 17.3729 25.7804 15.5308 23.507 15.5308ZM25.5273 21.0011C25.7101 21.1839 25.7101 21.4839 25.5273 21.6667C25.3445 21.8495 25.0445 21.8495 24.8617 21.6667L23.507 20.312L22.1523 21.6667C21.9695 21.8495 21.6695 21.8495 21.4867 21.6667C21.3039 21.4839 21.3039 21.1839 21.4867 21.0011L22.8414 19.6464L21.4867 18.2917C21.3039 18.1089 21.3039 17.8089 21.4867 17.6261C21.6695 17.4433 21.9695 17.4433 22.1523 17.6261L23.507 18.9808L24.8617 17.6261C25.0445 17.4433 25.3445 17.4433 25.5273 17.6261C25.7101 17.8089 25.7101 18.1089 25.5273 18.2917L24.1726 19.6464L25.5273 21.0011Z" fill="white"/>
<path fill-rule="evenodd" clip-rule="evenodd" d="M27.6788 17.1433V8.06357C27.6788 7.61826 27.3179 7.25732 26.8726 7.25732H24.646C24.2007 7.25732 23.8398 7.61826 23.8398 8.06357V14.7948C25.471 14.9026 26.882 15.8167 27.6788 17.1433Z" fill="white"/>
<path fill-rule="evenodd" clip-rule="evenodd" d="M26.0992 23.7619H26.8726C27.3179 23.7619 27.6788 23.401 27.6788 22.9557V22.1494C27.2851 22.801 26.746 23.3541 26.0992 23.7619Z" fill="white"/>
<path fill-rule="evenodd" clip-rule="evenodd" d="M22.9867 14.8091V11.045C22.9867 10.5997 22.6257 10.2388 22.1804 10.2388H19.9539C19.5086 10.2388 19.1476 10.5997 19.1476 11.045V17.495C19.8648 16.0372 21.2992 14.9919 22.9867 14.8091Z" fill="white"/>
<path fill-rule="evenodd" clip-rule="evenodd" d="M19.1429 21.7983V22.9562C19.1429 23.4015 19.5039 23.7624 19.9492 23.7624H20.9148C20.1601 23.2843 19.546 22.6046 19.1429 21.7983Z" fill="white"/>
</svg>
