<svg width="30" height="34" viewBox="0 0 30 34" fill="none" xmlns="http://www.w3.org/2000/svg">
<path fill-rule="evenodd" clip-rule="evenodd" d="M20.0002 0.333496L29.9999 10.3332L29.9999 32.3334C29.9999 33.0698 29.403 33.6667 28.6666 33.6667H4.66658C3.9302 33.6667 3.33325 33.0698 3.33325 32.3334V1.66683C3.33325 0.930449 3.9302 0.333496 4.66658 0.333496H20.0002Z" fill="#F1F5F9"/>
<path d="M20 10.3335L30 10.3335L20 0.333496L20 10.3335Z" fill="#DDE4EE"/>
<rect y="14.9995" width="24" height="12" rx="0.666666" fill="#BC36D2"/>
<path d="M4.808 20.8715H6.184C6.472 20.8715 6.688 20.8075 6.832 20.6795C6.976 20.5515 7.048 20.3435 7.048 20.0555C7.048 19.7782 6.976 19.5782 6.832 19.4555C6.688 19.3275 6.472 19.2635 6.184 19.2635H4.808V20.8715ZM3.552 18.2875H6.632C6.888 18.2875 7.11733 18.3302 7.32 18.4155C7.528 18.4955 7.704 18.6075 7.848 18.7515C7.99733 18.8955 8.10933 19.0635 8.184 19.2555C8.264 19.4422 8.304 19.6448 8.304 19.8635C8.304 20.1995 8.232 20.4902 8.088 20.7355C7.94933 20.9808 7.72 21.1675 7.4 21.2955V21.3115C7.55467 21.3542 7.68267 21.4208 7.784 21.5115C7.88533 21.5968 7.968 21.7008 8.032 21.8235C8.096 21.9408 8.14133 22.0715 8.168 22.2155C8.2 22.3595 8.22133 22.5035 8.232 22.6475C8.23733 22.7382 8.24267 22.8448 8.248 22.9675C8.25333 23.0902 8.26133 23.2155 8.272 23.3435C8.288 23.4715 8.30933 23.5942 8.336 23.7115C8.368 23.8235 8.41333 23.9195 8.472 23.9995H7.216C7.14667 23.8182 7.104 23.6022 7.088 23.3515C7.072 23.1008 7.048 22.8608 7.016 22.6315C6.97333 22.3328 6.88267 22.1142 6.744 21.9755C6.60533 21.8368 6.37867 21.7675 6.064 21.7675H4.808V23.9995H3.552V18.2875ZM10.7654 21.7915H12.2454L11.5254 19.6955H11.5094L10.7654 21.7915ZM10.8854 18.2875H12.1734L14.3094 23.9995H13.0054L12.5734 22.7275H10.4374L9.98944 23.9995H8.72544L10.8854 18.2875ZM16.058 20.8715H17.434C17.722 20.8715 17.938 20.8075 18.082 20.6795C18.226 20.5515 18.298 20.3435 18.298 20.0555C18.298 19.7782 18.226 19.5782 18.082 19.4555C17.938 19.3275 17.722 19.2635 17.434 19.2635H16.058V20.8715ZM14.802 18.2875H17.882C18.138 18.2875 18.3673 18.3302 18.57 18.4155C18.778 18.4955 18.954 18.6075 19.098 18.7515C19.2473 18.8955 19.3593 19.0635 19.434 19.2555C19.514 19.4422 19.554 19.6448 19.554 19.8635C19.554 20.1995 19.482 20.4902 19.338 20.7355C19.1993 20.9808 18.97 21.1675 18.65 21.2955V21.3115C18.8047 21.3542 18.9327 21.4208 19.034 21.5115C19.1353 21.5968 19.218 21.7008 19.282 21.8235C19.346 21.9408 19.3913 22.0715 19.418 22.2155C19.45 22.3595 19.4713 22.5035 19.482 22.6475C19.4873 22.7382 19.4927 22.8448 19.498 22.9675C19.5033 23.0902 19.5113 23.2155 19.522 23.3435C19.538 23.4715 19.5593 23.5942 19.586 23.7115C19.618 23.8235 19.6633 23.9195 19.722 23.9995H18.466C18.3967 23.8182 18.354 23.6022 18.338 23.3515C18.322 23.1008 18.298 22.8608 18.266 22.6315C18.2233 22.3328 18.1327 22.1142 17.994 21.9755C17.8553 21.8368 17.6287 21.7675 17.314 21.7675H16.058V23.9995H14.802V18.2875Z" fill="white"/>
</svg>
