<svg width="20" height="20" viewBox="0 0 20 20" fill="none" xmlns="http://www.w3.org/2000/svg">
<g clip-path="url(#clip0_6784_22771)">
<path d="M3.1525 2.3537L10 0.832031L16.8475 2.3537C17.0326 2.39483 17.198 2.49784 17.3167 2.6457C17.4353 2.79357 17.5 2.97746 17.5 3.16703V11.4895C17.4999 12.3126 17.2967 13.123 16.9082 13.8487C16.5198 14.5744 15.9582 15.193 15.2733 15.6495L10 19.1654L4.72667 15.6495C4.04189 15.1931 3.48038 14.5746 3.09196 13.8491C2.70353 13.1235 2.5002 12.3133 2.5 11.4904V3.16703C2.50003 2.97746 2.5647 2.79357 2.68332 2.6457C2.80195 2.49784 2.96745 2.39483 3.1525 2.3537ZM4.16667 3.83536V11.4895C4.16668 12.0382 4.30215 12.5785 4.56105 13.0623C4.81996 13.5461 5.19429 13.9585 5.65083 14.2629L10 17.1629L14.3492 14.2629C14.8056 13.9585 15.1799 13.5463 15.4388 13.0626C15.6977 12.579 15.8332 12.0389 15.8333 11.4904V3.83536L10 2.54036L4.16667 3.83536ZM10 9.16536C9.44747 9.16536 8.91756 8.94587 8.52686 8.55517C8.13616 8.16447 7.91667 7.63456 7.91667 7.08203C7.91667 6.5295 8.13616 5.99959 8.52686 5.60889C8.91756 5.21819 9.44747 4.9987 10 4.9987C10.5525 4.9987 11.0824 5.21819 11.4731 5.60889C11.8638 5.99959 12.0833 6.5295 12.0833 7.08203C12.0833 7.63456 11.8638 8.16447 11.4731 8.55517C11.0824 8.94587 10.5525 9.16536 10 9.16536ZM6.2725 13.332C6.37352 12.414 6.80974 11.5656 7.49757 10.9493C8.1854 10.333 9.07646 9.99221 10 9.99221C10.9235 9.99221 11.8146 10.333 12.5024 10.9493C13.1903 11.5656 13.6265 12.414 13.7275 13.332H6.2725Z" fill="#999BA0"/>
</g>
<defs>
<clipPath id="clip0_6784_22771">
<rect width="20" height="20" fill="white"/>
</clipPath>
</defs>
</svg>
