<svg width="20" height="20" viewBox="0 0 20 20" fill="none" xmlns="http://www.w3.org/2000/svg">
<path d="M13.7584 10.4928H6.21698V17.1595H13.7584V10.4928ZM5.76362 8.82617H14.2364H14.8416C15.0021 8.82617 15.156 8.91397 15.2695 9.07025C15.383 9.22653 15.4468 9.43849 15.4468 9.65951V17.9928C15.4468 18.2139 15.383 18.4258 15.2695 18.5821C15.156 18.7384 15.0021 18.8262 14.8416 18.8262H10H5.15842C4.99791 18.8262 4.84398 18.7384 4.73048 18.5821C4.61698 18.4258 4.55322 18.2139 4.55322 17.9928V9.65951C4.55322 9.43849 4.61698 9.22653 4.73048 9.07025C4.84398 8.91397 4.99791 8.82617 5.15842 8.82617H5.76362Z" fill="#23325B"/>
<rect x="5.84851" y="9.93555" width="8.51603" height="7.63509" fill="#23325B"/>
<rect x="9.7594" y="1.07812" width="0.480957" height="1.51693" fill="#23325B"/>
<rect x="15.8564" y="2.5957" width="0.480957" height="1.51693" transform="rotate(72.0172 15.8564 2.5957)" fill="#23325B"/>
<rect x="5.58386" y="3.05273" width="0.480957" height="1.51693" transform="rotate(102.957 5.58386 3.05273)" fill="#23325B"/>
<path fill-rule="evenodd" clip-rule="evenodd" d="M9.17928 10.4085L9.17928 2.16797L10.8459 2.16797L10.8459 10.4085L9.17928 10.4085Z" fill="#23325B"/>
<path fill-rule="evenodd" clip-rule="evenodd" d="M14.8347 2.37891C14.835 2.37885 14.8352 2.37879 15.0211 3.19112C15.207 4.00345 15.2073 4.0034 15.2075 4.00335L15.2086 4.00309L15.201 4.00496C15.1922 4.00716 15.1771 4.01103 15.1566 4.01666C15.1153 4.02796 15.0531 4.04607 14.9771 4.07144C14.8223 4.12314 14.6244 4.20034 14.4339 4.30396C13.9909 4.54492 13.8836 4.7551 13.8836 4.88422L13.8836 10.4087L12.2169 10.4093L12.2169 4.88422C12.2169 3.77134 13.095 3.13496 13.6375 2.83988C13.9397 2.67547 14.2345 2.56227 14.4492 2.49058C14.558 2.45426 14.6498 2.42742 14.7163 2.4092C14.7496 2.40007 14.7769 2.39304 14.797 2.38802L14.8217 2.38195L14.8299 2.38002L14.8329 2.37932L14.8347 2.37891Z" fill="#23325B"/>
<path fill-rule="evenodd" clip-rule="evenodd" d="M5.16554 2.37891C5.16529 2.37885 5.16504 2.37879 4.97912 3.19112C4.7932 4.00345 4.79297 4.0034 4.79274 4.00335L4.79164 4.00309L4.79923 4.00496C4.808 4.00716 4.82312 4.01103 4.84367 4.01666C4.88494 4.02796 4.94715 4.04607 5.02314 4.07144C5.17796 4.12314 5.37589 4.20034 5.56636 4.30396C6.00934 4.54492 6.11668 4.7551 6.11668 4.88422L6.11668 10.4087L7.78334 10.4093L7.78334 4.88422C7.78334 3.77134 6.90523 3.13496 6.36277 2.83988C6.06052 2.67547 5.76572 2.56227 5.551 2.49058C5.44222 2.45426 5.35046 2.42742 5.28394 2.4092C5.2506 2.40007 5.22338 2.39304 5.20328 2.38802L5.17852 2.38195L5.17033 2.38002L5.16732 2.37932L5.16554 2.37891Z" fill="#23325B"/>
</svg>
