<svg width="100" height="100" viewBox="0 0 100 100" fill="none" xmlns="http://www.w3.org/2000/svg">
<path fill-rule="evenodd" clip-rule="evenodd" d="M66.0173 49.5264L49.4438 66.0982C49.4438 66.0982 55.3376 64.2576 63.8079 67.2029C65.2329 67.6982 67.6173 65.3139 67.122 63.8889C64.1767 55.4186 66.0173 49.5264 66.0173 49.5264Z" fill="#0D71E6"/>
<path fill-rule="evenodd" clip-rule="evenodd" d="M19.4534 19.5342C30.7346 8.25293 49.0518 8.25293 60.3331 19.5342C71.6143 30.8154 71.6143 49.1326 60.3331 60.4139C49.0518 71.6951 30.7346 71.6951 19.4534 60.4139C8.17212 49.1326 8.17212 30.8154 19.4534 19.5342ZM22.7674 22.8482C32.219 13.3967 47.5674 13.3967 57.019 22.8482C66.4706 32.2998 66.4706 47.6482 57.019 57.0998C47.5674 66.5514 32.219 66.5514 22.7674 57.0998C13.3159 47.6482 13.3159 32.2998 22.7674 22.8482Z" fill="#A4BBDB"/>
<path fill-rule="evenodd" clip-rule="evenodd" d="M62.5424 72.5672C59.7971 69.8219 59.7971 65.3703 62.5424 62.6234C65.2877 59.8781 69.7408 59.8781 72.4861 62.6234L95.1361 85.2734C95.7455 85.8828 94.0127 88.6063 91.2689 91.35C88.5252 94.0938 85.8018 95.8266 85.1924 95.2172L62.5424 72.5672Z" fill="#A4BBDB"/>
<path fill-rule="evenodd" clip-rule="evenodd" d="M62.5424 72.5672C59.7971 69.8219 59.7971 65.3703 62.5424 62.6234C65.2877 59.8781 69.7408 59.8781 72.4861 62.6234L92.9861 83.1234C93.5955 83.7328 91.8627 86.4563 89.1189 89.2C86.3752 91.9438 83.6518 93.6766 83.0424 93.0672L62.5424 72.5672Z" fill="#D6E2EC"/>
<path fill-rule="evenodd" clip-rule="evenodd" d="M36.5829 35.0552C36.5469 33.5661 37.1063 32.4786 37.9688 31.8411C39.3251 30.8411 41.3516 30.8833 42.4516 32.1224C42.9235 32.6552 43.1969 33.4083 43.2048 34.3614C43.2235 36.6474 42.1516 37.9833 41.1016 39.3661C39.6891 41.2302 38.2782 43.1458 38.1032 46.3442C38.0563 47.2067 38.7188 47.9427 39.5798 47.9896C40.4407 48.0364 41.1782 47.3755 41.2251 46.5146C41.3563 44.0849 42.5188 42.6692 43.5923 41.2536C45.0298 39.3583 46.3563 37.4677 46.3298 34.3364C46.3141 32.4958 45.7001 31.0755 44.7876 30.0474C42.6563 27.6474 38.7423 27.388 36.1141 29.3255C34.5391 30.488 33.3938 32.413 33.4579 35.1286C33.4782 35.9911 34.1954 36.6739 35.0579 36.6536C35.9188 36.6333 36.6032 35.9177 36.5829 35.0552Z" fill="#0D71E6"/>
<path d="M39.5188 53.792C40.5802 53.792 41.4407 52.9315 41.4407 51.8701C41.4407 50.8087 40.5802 49.9482 39.5188 49.9482C38.4574 49.9482 37.5969 50.8087 37.5969 51.8701C37.5969 52.9315 38.4574 53.792 39.5188 53.792Z" fill="#0D71E6"/>
<path fill-rule="evenodd" clip-rule="evenodd" d="M67.6376 13.2768L72.3251 5.46428C72.7689 4.72522 72.5298 3.76428 71.7892 3.32053C71.0501 2.87834 70.0892 3.11741 69.6454 3.85647L64.9579 11.669C64.5142 12.4096 64.7548 13.3705 65.4939 13.8127C66.2345 14.2565 67.1939 14.0174 67.6376 13.2768Z" fill="#0D71E6"/>
<path fill-rule="evenodd" clip-rule="evenodd" d="M75.0297 18.4251L92.2172 5.92507C92.9141 5.41726 93.0688 4.43913 92.5625 3.74226C92.0547 3.04382 91.0766 2.89069 90.3797 3.39694L73.1922 15.8969C72.4938 16.4048 72.3406 17.3829 72.8469 18.0798C73.3547 18.7782 74.3328 18.9313 75.0297 18.4251Z" fill="#0D71E6"/>
<path fill-rule="evenodd" clip-rule="evenodd" d="M77.6141 28.0519L90.1141 24.9269C90.9516 24.7175 91.461 23.8691 91.2516 23.0316C91.0423 22.1957 90.1938 21.6863 89.3563 21.8957L76.8563 25.0207C76.0204 25.23 75.511 26.0785 75.7204 26.916C75.9297 27.7519 76.7782 28.2613 77.6141 28.0519Z" fill="#0D71E6"/>
</svg>
