<svg width="48" height="67" viewBox="0 0 48 67" fill="none" xmlns="http://www.w3.org/2000/svg">
<path d="M0.375 0.976562H47.625V66.2266H0.375V0.976562Z" fill="#CFDFE8"/>
<path d="M0.375 5.47656H7.125V16.7266H0.375V5.47656Z" fill="#7D8D9C"/>
<path d="M0.375 50.4766H7.125V61.7266H0.375V50.4766Z" fill="#7D8D9C"/>
<path d="M18.375 6.60156H29.625V11.1016H18.375V6.60156Z" fill="#E97424"/>
<path d="M12.75 15.6016H35.25V20.1016H12.75V15.6016Z" fill="#394D5C"/>
<path d="M8.25 24.6016H12.75V31.3516H8.25V24.6016Z" fill="#55B56A"/>
<path d="M17.25 24.6016H21.75V31.3516H17.25V24.6016Z" fill="#DD3E46"/>
<path d="M26.25 24.6016H30.75V31.3516H26.25V24.6016Z" fill="#55B56A"/>
<path d="M35.25 24.6016H39.75V31.3516H35.25V24.6016Z" fill="#DD3E46"/>
<path d="M12.75 35.8516H35.25V60.6016H12.75V35.8516Z" fill="#7D8D9C"/>
<path d="M22.875 40.3516H28.5L25.125 45.9766H30.75L22.875 56.1016V50.4766H17.25L22.875 40.3516Z" fill="#FCF05A"/>
<path d="M3.75 20.1016H6V22.3516H3.75V20.1016Z" fill="#F4F4E6"/>
<path d="M3.75 44.8516H6V47.1016H3.75V44.8516Z" fill="#F4F4E6"/>
<path d="M3.75 40.3516H6V42.6016H3.75V40.3516Z" fill="#F4F4E6"/>
<path d="M44.25 13.3516H42V6.60156H38.625V4.35156H43.125C43.4234 4.35156 43.7095 4.47009 43.9205 4.68107C44.1315 4.89205 44.25 5.17819 44.25 5.47656V13.3516Z" fill="#F4F4E6"/>
<path d="M42 15.6016H44.25V17.8516H42V15.6016Z" fill="#F4F4E6"/>
<path d="M20.625 15.6016H27.375V20.1016H20.625V15.6016Z" fill="#7D8D9C"/>
</svg>
