<svg width="20" height="20" viewBox="0 0 20 20" fill="none" xmlns="http://www.w3.org/2000/svg">
<g clip-path="url(#clip0_5938_22823)">
<path fill-rule="evenodd" clip-rule="evenodd" d="M6.42683 9.11808H13.5472V13.1766H15.1413V8.38326C15.1413 8.18837 15.0811 8.00147 14.974 7.86366C14.8668 7.72586 14.7215 7.64844 14.5699 7.64844H13.9985H5.99878H5.42737C5.27582 7.64844 5.13048 7.72586 5.02332 7.86366C4.91616 8.00147 4.85596 8.18837 4.85596 8.38326V13.1766H6.42683V9.11808Z" fill="#23325B"/>
<rect x="5.85242" y="8.67773" width="8.66628" height="4.49859" fill="#23325B"/>
<rect x="9.77148" y="0.814453" width="0.454106" height="1.33761" fill="#23325B"/>
<rect width="0.427052" height="1.42349" transform="matrix(0.328289 0.944577 -0.956995 0.290104 15.5281 2.15234)" fill="#23325B"/>
<rect width="0.425661" height="1.42763" transform="matrix(-0.239211 0.970968 -0.977683 -0.210087 5.82874 2.55469)" fill="#23325B"/>
<path fill-rule="evenodd" clip-rule="evenodd" d="M9.22362 9.04181L9.22362 1.77539L10.7972 1.77539L10.7972 9.04181L9.22362 9.04181Z" fill="#23325B"/>
<path fill-rule="evenodd" clip-rule="evenodd" d="M14.5636 1.96094C14.5639 1.96089 14.5641 1.96084 14.7396 2.67714C14.9152 3.39344 14.9154 3.39339 14.9156 3.39335L14.9167 3.39312L14.9095 3.39477C14.9012 3.39671 14.8869 3.40013 14.8675 3.40509C14.8286 3.41505 14.7698 3.43102 14.6981 3.4534C14.5519 3.49898 14.365 3.56706 14.1852 3.65842C13.7669 3.8709 13.6656 4.05623 13.6656 4.17009L13.6656 9.04148L12.092 9.04205L12.092 4.17009C12.092 3.18877 12.9211 2.62762 13.4332 2.36742C13.7186 2.22244 13.997 2.12263 14.1997 2.05941C14.3024 2.02738 14.389 2.00371 14.4518 1.98765C14.4833 1.9796 14.509 1.9734 14.528 1.96897L14.5514 1.96363L14.5591 1.96192L14.562 1.9613L14.5636 1.96094Z" fill="#23325B"/>
<path fill-rule="evenodd" clip-rule="evenodd" d="M5.43393 1.96094C5.43369 1.96089 5.43346 1.96084 5.25791 2.67714C5.08237 3.39344 5.08215 3.39339 5.08194 3.39335L5.0809 3.39312L5.08806 3.39477C5.09634 3.39671 5.11062 3.40013 5.13003 3.40509C5.16899 3.41505 5.22773 3.43102 5.29947 3.4534C5.44565 3.49898 5.63253 3.56706 5.81237 3.65842C6.23062 3.8709 6.33196 4.05623 6.33196 4.17009L6.33196 9.04148L7.90558 9.04205L7.90558 4.17009C7.90558 3.18877 7.07649 2.62762 6.56431 2.36742C6.27894 2.22244 6.0006 2.12263 5.79787 2.05941C5.69516 2.02738 5.60852 2.00371 5.54572 1.98765C5.51424 1.9796 5.48854 1.9734 5.46956 1.96897L5.44618 1.96363L5.43844 1.96192L5.4356 1.9613L5.43393 1.96094Z" fill="#23325B"/>
<path d="M18.953 15.3027V19.9345H18.1071L16.0921 17.0193H16.0581V19.9345H15.0789V15.3027H15.9383L17.9375 18.2157H17.9782V15.3027H18.953Z" fill="#FFA128"/>
<path d="M14.3533 17.6194C14.3533 18.1245 14.2575 18.5542 14.066 18.9086C13.8761 19.2629 13.6167 19.5335 13.288 19.7205C12.9609 19.9059 12.593 19.9987 12.1844 19.9987C11.7728 19.9987 11.4034 19.9052 11.0762 19.7182C10.749 19.5313 10.4904 19.2606 10.3005 18.9063C10.1105 18.552 10.0155 18.123 10.0155 17.6194C10.0155 17.1144 10.1105 16.6846 10.3005 16.3303C10.4904 15.976 10.749 15.7061 11.0762 15.5207C11.4034 15.3337 11.7728 15.2402 12.1844 15.2402C12.593 15.2402 12.9609 15.3337 13.288 15.5207C13.6167 15.7061 13.8761 15.976 14.066 16.3303C14.2575 16.6846 14.3533 17.1144 14.3533 17.6194ZM13.3604 17.6194C13.3604 17.2923 13.3114 17.0163 13.2134 16.7917C13.1169 16.567 12.9805 16.3967 12.8041 16.2806C12.6277 16.1645 12.4211 16.1064 12.1844 16.1064C11.9477 16.1064 11.7411 16.1645 11.5647 16.2806C11.3883 16.3967 11.2511 16.567 11.1531 16.7917C11.0566 17.0163 11.0083 17.2923 11.0083 17.6194C11.0083 17.9466 11.0566 18.2225 11.1531 18.4472C11.2511 18.6718 11.3883 18.8422 11.5647 18.9583C11.7411 19.0744 11.9477 19.1325 12.1844 19.1325C12.4211 19.1325 12.6277 19.0744 12.8041 18.9583C12.9805 18.8422 13.1169 18.6718 13.2134 18.4472C13.3114 18.2225 13.3604 17.9466 13.3604 17.6194Z" fill="#FFA128"/>
<path d="M5.97351 19.9345V15.3027H7.80089C8.15219 15.3027 8.45148 15.3698 8.69875 15.504C8.94602 15.6367 9.13448 15.8214 9.26415 16.0581C9.39532 16.2933 9.46091 16.5647 9.46091 16.8723C9.46091 17.1799 9.39457 17.4513 9.26189 17.6865C9.12921 17.9217 8.93697 18.1049 8.68518 18.236C8.43489 18.3672 8.13184 18.4328 7.77601 18.4328H6.61128V17.648H7.6177C7.80617 17.648 7.96146 17.6156 8.08359 17.5508C8.20722 17.4844 8.2992 17.3932 8.35951 17.2771C8.42132 17.1595 8.45223 17.0246 8.45223 16.8723C8.45223 16.7185 8.42132 16.5843 8.35951 16.4697C8.2992 16.3536 8.20722 16.2639 8.08359 16.2006C7.95995 16.1358 7.80315 16.1033 7.61318 16.1033H6.95279V19.9345H5.97351Z" fill="#FFA128"/>
<path d="M4.1998 16.8007C4.16814 16.6907 4.12366 16.5934 4.06636 16.509C4.00907 16.4231 3.93896 16.3507 3.85603 16.2919C3.77462 16.2316 3.68114 16.1856 3.57559 16.1539C3.47156 16.1223 3.35622 16.1064 3.22957 16.1064C2.99285 16.1064 2.78479 16.1652 2.60537 16.2828C2.42745 16.4004 2.28874 16.5716 2.18923 16.7962C2.08972 17.0194 2.03996 17.2923 2.03996 17.6149C2.03996 17.9376 2.08897 18.212 2.18697 18.4381C2.28497 18.6643 2.42368 18.8369 2.6031 18.9561C2.78252 19.0737 2.99436 19.1325 3.23862 19.1325C3.46025 19.1325 3.64947 19.0933 3.80628 19.0149C3.96459 18.9349 4.08521 18.8226 4.16814 18.6779C4.25257 18.5331 4.29479 18.362 4.29479 18.1645L4.49381 18.1939H3.29968V17.4566H5.23788V18.0401C5.23788 18.4472 5.15194 18.797 4.98005 19.0895C4.80817 19.3805 4.57146 19.6051 4.26991 19.7634C3.96836 19.9203 3.62309 19.9987 3.23409 19.9987C2.79986 19.9987 2.41841 19.9029 2.08972 19.7114C1.76103 19.5184 1.50472 19.2448 1.32077 18.8905C1.13834 18.5346 1.04712 18.1125 1.04712 17.624C1.04712 17.2485 1.1014 16.9138 1.20995 16.6198C1.32002 16.3243 1.47381 16.074 1.67132 15.869C1.86884 15.6639 2.09877 15.5079 2.36111 15.4008C2.62346 15.2938 2.90767 15.2402 3.21374 15.2402C3.47608 15.2402 3.72034 15.2787 3.9465 15.3556C4.17266 15.431 4.37319 15.538 4.54809 15.6767C4.72449 15.8154 4.86848 15.9805 4.98005 16.172C5.09163 16.362 5.16324 16.5716 5.19491 16.8007H4.1998Z" fill="#FFA128"/>
</g>
<defs>
<clipPath id="clip0_5938_22823">
<rect width="20" height="20" fill="white"/>
</clipPath>
</defs>
</svg>
