<svg width="20" height="20" viewBox="0 0 20 20" fill="none" xmlns="http://www.w3.org/2000/svg">
<path d="M9.99996 2.5L1.66663 10H4.16663V16.6667H15.8333V10H18.3333L9.99996 2.5ZM9.99996 7.08333C11.95 7.08333 13.7166 7.85833 15 9.11667L14 10.1C12.9833 9.09167 11.5666 8.475 9.99996 8.475C8.43329 8.475 7.01663 9.09167 5.99996 10.1L4.99996 9.11667C6.28329 7.85833 8.04996 7.08333 9.99996 7.08333ZM9.99996 9.85833C11.1666 9.85833 12.225 10.325 13 11.0833L12 12.0583C11.4916 11.5583 10.7833 11.25 9.99996 11.25C9.21663 11.25 8.50829 11.5583 7.99996 12.0583L6.99996 11.0833C7.77496 10.325 8.83329 9.85833 9.99996 9.85833ZM9.99996 12.6417C10.7833 12.6417 11.4166 13.2583 11.4166 14.025C11.4166 14.7917 10.7833 15.4167 9.99996 15.4167C9.21663 15.4167 8.58329 14.7917 8.58329 14.025C8.58329 13.2583 9.21663 12.6417 9.99996 12.6417Z" fill="#3E97FF"/>
</svg>
