<svg width="20" height="20" viewBox="0 0 20 20" fill="none" xmlns="http://www.w3.org/2000/svg">
<path d="M16.579 7.89324L15.553 4.85324C15.4042 4.41064 15.1179 4.02561 14.7348 3.75288C14.3518 3.48014 13.8915 3.33357 13.4193 3.33399H6.58075C6.10854 3.33357 5.64821 3.48014 5.26516 3.75288C4.88212 4.02561 4.59584 4.41064 4.447 4.85324L3.421 7.89324C3.14817 8.006 2.91517 8.19589 2.7513 8.43906C2.58743 8.68222 2.5 8.96781 2.5 9.25991V12.9636C2.5 13.5103 2.803 13.9829 3.25 14.2399V15.9266C3.25 16.123 3.32902 16.3114 3.46967 16.4504C3.61032 16.5893 3.80109 16.6673 4 16.6673H4.75C4.94891 16.6673 5.13968 16.5893 5.28033 16.4504C5.42098 16.3114 5.5 16.123 5.5 15.9266V14.4451H14.5V15.9266C14.5 16.123 14.579 16.3114 14.7197 16.4504C14.8603 16.5893 15.0511 16.6673 15.25 16.6673H16C16.1989 16.6673 16.3897 16.5893 16.5303 16.4504C16.671 16.3114 16.75 16.123 16.75 15.9266V14.2399C16.9775 14.111 17.1667 13.9252 17.2983 13.7011C17.43 13.4771 17.4996 13.2227 17.5 12.9636V9.25991C17.5 8.96781 17.4126 8.68222 17.2487 8.43906C17.0848 8.19589 16.8518 8.006 16.579 7.89324ZM6.58075 4.81547H13.4185C13.7418 4.81547 14.0282 5.01843 14.1302 5.32213L14.9598 7.77843H5.04025L5.869 5.32213C5.91876 5.17457 6.01429 5.04623 6.14204 4.95529C6.26979 4.86435 6.42328 4.81543 6.58075 4.81547ZM5.125 12.2229C4.97721 12.2228 4.83088 12.194 4.69437 12.1381C4.55785 12.0822 4.43382 12.0003 4.32935 11.8971C4.22488 11.7938 4.14203 11.6713 4.08552 11.5364C4.02901 11.4015 3.99995 11.257 4 11.111C4.00005 10.9651 4.02921 10.8205 4.08581 10.6857C4.14241 10.5509 4.22534 10.4284 4.32988 10.3252C4.43442 10.222 4.5585 10.1402 4.69506 10.0844C4.83161 10.0286 4.97796 9.99986 5.12575 9.99991C5.42422 10 5.71042 10.1172 5.9214 10.3257C6.13238 10.5342 6.25085 10.817 6.25075 11.1118C6.25065 11.4065 6.13199 11.6892 5.92087 11.8976C5.70975 12.106 5.42347 12.223 5.125 12.2229ZM14.875 12.2229C14.7272 12.2228 14.5809 12.194 14.4444 12.1381C14.3078 12.0822 14.1838 12.0003 14.0793 11.8971C13.9749 11.7938 13.892 11.6713 13.8355 11.5364C13.779 11.4015 13.75 11.257 13.75 11.111C13.75 10.9651 13.7792 10.8205 13.8358 10.6857C13.8924 10.5509 13.9753 10.4284 14.0799 10.3252C14.1844 10.222 14.3085 10.1402 14.4451 10.0844C14.5816 10.0286 14.728 9.99986 14.8757 9.99991C15.1742 10 15.4604 10.1172 15.6714 10.3257C15.8824 10.5342 16.0008 10.817 16.0007 11.1118C16.0007 11.4065 15.882 11.6892 15.6709 11.8976C15.4598 12.106 15.1735 12.223 14.875 12.2229Z" fill="#50CD89"/>
</svg>
