<svg width="61" height="68" viewBox="0 0 61 68" fill="none" xmlns="http://www.w3.org/2000/svg">
<path d="M43.5 62.7266H16.5L16.6238 61.3878L17.6588 50.5203L17.6812 50.3516L17.895 48.1016L17.9288 47.7528L18.9413 37.1328L18.9638 36.8516L19.1775 34.6016L19.2225 34.1516L20.1112 24.7916L20.145 24.4766L20.3588 22.2266L20.3813 21.9341L20.8875 16.6466L21 15.4766H39L39.1125 16.6466L39.6187 21.9341L39.6413 22.2266L39.855 24.4766L39.8888 24.7916L40.7775 34.1516L40.8225 34.6016L41.0363 36.8516L41.0588 37.1328L42.0712 47.7528L42.105 48.1016L42.3188 50.3516L42.3413 50.5203L43.3762 61.3878L43.5 62.7266Z" fill="#CDEEF6"/>
<path d="M39 15.4766H36.75V3.10156H23.25V15.4766H21V1.97656C21 1.67819 21.1185 1.39205 21.3295 1.18107C21.5405 0.970089 21.8266 0.851563 22.125 0.851562H37.875C38.1734 0.851563 38.4595 0.970089 38.6705 1.18107C38.8815 1.39205 39 1.67819 39 1.97656V15.4766Z" fill="#2D75BB"/>
<path d="M44.9546 11.7719L40.7842 7.60156H19.2157L15.0453 11.7719L13.4546 10.1812L17.9546 5.68119C18.1655 5.47019 18.4516 5.35163 18.75 5.35156H41.25C41.5483 5.35163 41.8344 5.47019 42.0453 5.68119L46.5453 10.1812L44.9546 11.7719Z" fill="#50B4F8"/>
<path d="M50.25 21.1016H48V12.1016H12V21.1016H9.75V9.85156H50.25V21.1016Z" fill="#DD3E46"/>
<path d="M7.5 14.3516H14.25V16.6016H7.5V14.3516Z" fill="#2D75BB"/>
<path d="M7.5 18.8516H14.25V21.1016H7.5V18.8516Z" fill="#2D75BB"/>
<path d="M45.75 14.3516H52.5V16.6016H45.75V14.3516Z" fill="#2D75BB"/>
<path d="M45.75 18.8516H52.5V21.1016H45.75V18.8516Z" fill="#2D75BB"/>
<path d="M7.5 62.7266H52.5V67.2266H7.5V62.7266Z" fill="#DD3E46"/>
<path d="M43.3762 61.3878L32.43 55.6841L42.3413 50.5203L42.3188 50.3516L42.105 48.1016L42.0712 47.7528L32.2725 42.1503L41.0588 37.1328L41.0363 36.8516L40.8225 34.6016L40.7775 34.1516L32.25 29.2128L39.8888 24.7916L39.855 24.4766L39.6413 22.2266L39.6187 21.9341L32.9588 19.1778L39.1125 16.6466L39 15.4766H36.0525L30 17.9628L23.9475 15.4766H21L20.8875 16.6466L27.0413 19.1778L20.3813 21.9341L20.3588 22.2266L20.145 24.4766L20.1112 24.7916L27.75 29.2128L19.2225 34.1516L19.1775 34.6016L18.9638 36.8516L18.9413 37.1328L27.7275 42.1503L17.9288 47.7528L17.895 48.1016L17.6812 50.3516L17.6588 50.5203L27.57 55.6841L16.6238 61.3878L16.5 62.7266H18.9413L30 56.9553L41.0588 62.7266H43.5L43.3762 61.3878ZM24.0712 24.4766L22.4175 23.5203L25.5675 22.2266L30 20.4041L34.4325 22.2266L37.5825 23.5203L35.9288 24.4766L30 27.9191L24.0712 24.4766ZM23.0025 36.8516L21.0113 35.7153L22.935 34.6016L30 30.5178L37.065 34.6016L38.9888 35.7153L36.9975 36.8516L30 40.8566L23.0025 36.8516ZM22.215 50.3516L19.9763 49.1816L21.8663 48.1016L30 43.4553L38.1337 48.1016L40.0238 49.1816L37.785 50.3516L30 54.4128L22.215 50.3516Z" fill="#50B4F8"/>
<path d="M42.3187 50.3516H17.6812L17.8949 48.1016H42.1049L42.3187 50.3516Z" fill="#2D75BB"/>
<path d="M6.375 31.2266H12L8.625 36.8516H14.25L6.375 49.2266V41.3516H0.75L6.375 31.2266Z" fill="#E97424"/>
<path d="M52.5 24.4766H58.125L54.75 30.1016H60.375L52.5 42.4766V34.6016H46.875L52.5 24.4766Z" fill="#E97424"/>
<path d="M39.855 24.4766H20.145L20.3588 22.2266H39.6413L39.855 24.4766Z" fill="#2D75BB"/>
<path d="M41.0364 36.8516H18.9639L19.1776 34.6016H40.8226L41.0364 36.8516Z" fill="#2D75BB"/>
</svg>
