<svg width="30" height="34" viewBox="0 0 30 34" fill="none" xmlns="http://www.w3.org/2000/svg">
<path fill-rule="evenodd" clip-rule="evenodd" d="M20.0002 0.293457L29.9999 10.2932L29.9999 32.2934C29.9999 33.0297 29.403 33.6267 28.6666 33.6267H4.66658C3.9302 33.6267 3.33325 33.0297 3.33325 32.2934V1.62679C3.33325 0.89041 3.9302 0.293457 4.66658 0.293457H20.0002Z" fill="#F1F5F9"/>
<path d="M20 10.2934L30 10.2934L20 0.293457L20 10.2934Z" fill="#DDE4EE"/>
<rect y="14.9595" width="24" height="12" rx="0.666666" fill="#38489C"/>
<path d="M4.908 22.0635C4.908 22.2555 4.94267 22.4181 5.012 22.5515C5.08133 22.6848 5.172 22.7941 5.284 22.8795C5.40133 22.9595 5.53733 23.0208 5.692 23.0635C5.84667 23.1008 6.00667 23.1195 6.172 23.1195C6.284 23.1195 6.404 23.1115 6.532 23.0955C6.66 23.0741 6.78 23.0368 6.892 22.9835C7.004 22.9301 7.09733 22.8581 7.172 22.7675C7.24667 22.6715 7.284 22.5515 7.284 22.4075C7.284 22.2528 7.23333 22.1275 7.132 22.0315C7.036 21.9355 6.908 21.8555 6.748 21.7915C6.588 21.7275 6.40667 21.6715 6.204 21.6235C6.00133 21.5755 5.796 21.5221 5.588 21.4635C5.37467 21.4101 5.16667 21.3461 4.964 21.2715C4.76133 21.1915 4.58 21.0901 4.42 20.9675C4.26 20.8448 4.12933 20.6928 4.028 20.5115C3.932 20.3248 3.884 20.1008 3.884 19.8395C3.884 19.5461 3.94533 19.2928 4.068 19.0795C4.196 18.8608 4.36133 18.6795 4.564 18.5355C4.76667 18.3915 4.996 18.2848 5.252 18.2155C5.508 18.1461 5.764 18.1115 6.02 18.1115C6.31867 18.1115 6.604 18.1461 6.876 18.2155C7.15333 18.2795 7.39867 18.3861 7.612 18.5355C7.82533 18.6848 7.99333 18.8768 8.116 19.1115C8.244 19.3408 8.308 19.6208 8.308 19.9515H7.092C7.08133 19.7808 7.044 19.6395 6.98 19.5275C6.92133 19.4155 6.84133 19.3275 6.74 19.2635C6.63867 19.1995 6.52133 19.1541 6.388 19.1275C6.26 19.1008 6.11867 19.0875 5.964 19.0875C5.86267 19.0875 5.76133 19.0981 5.66 19.1195C5.55867 19.1408 5.46533 19.1781 5.38 19.2315C5.3 19.2848 5.23333 19.3515 5.18 19.4315C5.12667 19.5115 5.1 19.6128 5.1 19.7355C5.1 19.8475 5.12133 19.9381 5.164 20.0075C5.20667 20.0768 5.28933 20.1408 5.412 20.1995C5.54 20.2581 5.71333 20.3168 5.932 20.3755C6.156 20.4341 6.44667 20.5088 6.804 20.5995C6.91067 20.6208 7.05733 20.6608 7.244 20.7195C7.436 20.7728 7.62533 20.8608 7.812 20.9835C7.99867 21.1061 8.15867 21.2715 8.292 21.4795C8.43067 21.6821 8.5 21.9435 8.5 22.2635C8.5 22.5248 8.44933 22.7675 8.348 22.9915C8.24667 23.2155 8.09467 23.4101 7.892 23.5755C7.69467 23.7355 7.44667 23.8608 7.148 23.9515C6.85467 24.0421 6.51333 24.0875 6.124 24.0875C5.80933 24.0875 5.50267 24.0475 5.204 23.9675C4.91067 23.8928 4.64933 23.7728 4.42 23.6075C4.196 23.4421 4.01733 23.2315 3.884 22.9755C3.75067 22.7195 3.68667 22.4155 3.692 22.0635H4.908ZM13.0073 22.4395C13.114 22.2955 13.1993 22.1168 13.2633 21.9035C13.3273 21.6901 13.3593 21.4315 13.3593 21.1275C13.3593 20.8768 13.33 20.6341 13.2713 20.3995C13.218 20.1648 13.13 19.9568 13.0073 19.7755C12.8846 19.5888 12.7246 19.4421 12.5273 19.3355C12.33 19.2235 12.09 19.1675 11.8073 19.1675C11.5246 19.1675 11.2846 19.2235 11.0873 19.3355C10.89 19.4421 10.73 19.5888 10.6073 19.7755C10.4846 19.9568 10.394 20.1648 10.3353 20.3995C10.282 20.6341 10.2553 20.8768 10.2553 21.1275C10.2553 21.3675 10.282 21.6021 10.3353 21.8315C10.394 22.0555 10.4846 22.2581 10.6073 22.4395C10.73 22.6208 10.89 22.7675 11.0873 22.8795C11.2846 22.9861 11.5246 23.0395 11.8073 23.0395C11.9406 23.0395 12.042 23.0341 12.1113 23.0235C12.1806 23.0128 12.2473 22.9915 12.3113 22.9595L11.7753 22.4715L12.3593 21.8475L13.0073 22.4395ZM13.1913 23.7595C12.8126 23.9781 12.3513 24.0875 11.8073 24.0875C11.37 24.0875 10.9753 24.0128 10.6233 23.8635C10.2766 23.7088 9.98331 23.4981 9.74331 23.2315C9.50331 22.9648 9.31931 22.6528 9.19131 22.2955C9.06331 21.9328 8.99931 21.5435 8.99931 21.1275C8.99931 20.7008 9.06331 20.3061 9.19131 19.9435C9.31931 19.5755 9.50331 19.2555 9.74331 18.9835C9.98331 18.7115 10.2766 18.4981 10.6233 18.3435C10.9753 18.1888 11.37 18.1115 11.8073 18.1115C12.25 18.1115 12.6446 18.1888 12.9913 18.3435C13.338 18.4981 13.6313 18.7115 13.8713 18.9835C14.1113 19.2555 14.2953 19.5755 14.4233 19.9435C14.5513 20.3061 14.6153 20.7008 14.6153 21.1275C14.6153 21.5435 14.5513 21.9301 14.4233 22.2875C14.2953 22.6448 14.1113 22.9595 13.8713 23.2315L14.5833 23.8795L13.9993 24.4875L13.1913 23.7595ZM15.4739 18.2475H16.7299V22.9035H19.5139V23.9595H15.4739V18.2475Z" fill="white"/>
</svg>
