<svg width="20" height="20" viewBox="0 0 20 20" fill="none" xmlns="http://www.w3.org/2000/svg">
<g clip-path="url(#clip0_6420_5530)">
<path d="M14.1667 14.9987V13.3321H14.5833C15.0642 13.332 15.5376 13.213 15.9614 12.9858C16.3851 12.7585 16.7461 12.43 17.0123 12.0295C17.2784 11.629 17.4413 11.1689 17.4866 10.6901C17.5319 10.2114 17.4581 9.7289 17.2719 9.28558C17.0856 8.84225 16.7926 8.45186 16.419 8.14916C16.0454 7.84645 15.6027 7.64081 15.1304 7.55056C14.658 7.4603 14.1707 7.48823 13.7118 7.63184C13.2529 7.77546 12.8366 8.03032 12.5 8.37372V8.33206C12.4997 7.41547 12.2474 6.51661 11.7708 5.73371C11.2941 4.95081 10.6114 4.31399 9.79731 3.89286C8.9832 3.47172 8.069 3.28247 7.1546 3.34579C6.24021 3.40911 5.36081 3.72255 4.61252 4.25188C3.86423 4.7812 3.27583 5.50603 2.91164 6.34716C2.54744 7.18828 2.42147 8.11333 2.54747 9.02121C2.67348 9.9291 3.04662 10.7849 3.62612 11.495C4.20562 12.2052 4.96917 12.7424 5.83333 13.0479V14.7887C4.72809 14.5027 3.71481 13.9377 2.89058 13.1478C2.06635 12.3578 1.45879 11.3695 1.1261 10.2774C0.793418 9.18526 0.746761 8.02603 0.9906 6.91073C1.23444 5.79543 1.76061 4.76143 2.51869 3.90781C3.27677 3.05419 4.24136 2.40955 5.32004 2.03565C6.39872 1.66175 7.55534 1.57112 8.6791 1.77245C9.80285 1.97378 10.8561 2.46032 11.7379 3.18545C12.6196 3.91059 13.3004 4.85001 13.715 5.91372C14.3417 5.79381 14.9865 5.80608 15.6082 5.94973C16.2299 6.09339 16.8148 6.36527 17.3253 6.74798C17.8359 7.13068 18.2609 7.61577 18.5732 8.1722C18.8855 8.72863 19.0782 9.34413 19.1389 9.97931C19.1996 10.6145 19.127 11.2553 18.9258 11.8609C18.7245 12.4664 18.3991 13.0232 17.9703 13.4957C17.5414 13.9682 17.0187 14.3459 16.4355 14.6047C15.8522 14.8636 15.2214 14.9977 14.5833 14.9987L14.1667 14.9996V14.9987ZM10.8333 13.3362H13.3333L9.16667 18.7529V15.0029H6.66667L10.8333 9.58206V13.3362Z" fill="#999BA0"/>
</g>
<defs>
<clipPath id="clip0_6420_5530">
<rect width="20" height="20" fill="white"/>
</clipPath>
</defs>
</svg>
