<svg width="25" height="25" viewBox="0 0 25 25" fill="none" xmlns="http://www.w3.org/2000/svg">
<path fill-rule="evenodd" clip-rule="evenodd" d="M6.81731 3.09953C4.79224 3.09953 3.15062 4.74115 3.15062 6.76622V18.0482C3.15062 20.0733 4.79224 21.7149 6.81731 21.7149H18.0993C20.1244 21.7149 21.766 20.0733 21.766 18.0482V6.76622C21.766 4.74115 20.1244 3.09953 18.0993 3.09953H6.81731ZM1.45831 6.76622C1.45831 3.80652 3.85761 1.40723 6.81731 1.40723H18.0993C21.059 1.40723 23.4583 3.80652 23.4583 6.76622V18.0482C23.4583 21.0079 21.059 23.4072 18.0993 23.4072H6.81731C3.85761 23.4072 1.45831 21.0079 1.45831 18.0482V6.76622Z" fill="#696A6F"/>
<path fill-rule="evenodd" clip-rule="evenodd" d="M6.02753 8.34567C6.02753 7.87832 6.40633 7.49951 6.87368 7.49951H13.9814C14.4487 7.49951 14.8275 7.87832 14.8275 8.34567C14.8275 8.81301 14.4487 9.19182 13.9814 9.19182H6.87368C6.40633 9.19182 6.02753 8.81301 6.02753 8.34567Z" fill="#696A6F"/>
<path fill-rule="evenodd" clip-rule="evenodd" d="M16.0121 7.16106C15.3579 7.16106 14.8275 7.69143 14.8275 8.34567C14.8275 8.99992 15.3579 9.53029 16.0121 9.53029C16.6664 9.53029 17.1967 8.99992 17.1967 8.34567C17.1967 7.69143 16.6664 7.16106 16.0121 7.16106ZM13.1352 8.34567C13.1352 6.7568 14.4232 5.46875 16.0121 5.46875C17.601 5.46875 18.889 6.7568 18.889 8.34567C18.889 9.93455 17.601 11.2226 16.0121 11.2226C14.4232 11.2226 13.1352 9.93455 13.1352 8.34567Z" fill="#696A6F"/>
<path fill-rule="evenodd" clip-rule="evenodd" d="M10.0891 16.4687C10.0891 16.0014 10.4679 15.6226 10.9353 15.6226H18.043C18.5103 15.6226 18.8891 16.0014 18.8891 16.4687C18.8891 16.9361 18.5103 17.3149 18.043 17.3149H10.9353C10.4679 17.3149 10.0891 16.9361 10.0891 16.4687Z" fill="#696A6F"/>
<path fill-rule="evenodd" clip-rule="evenodd" d="M8.90445 15.2841C8.2502 15.2841 7.71983 15.8145 7.71983 16.4687C7.71983 17.123 8.2502 17.6533 8.90445 17.6533C9.5587 17.6533 10.0891 17.123 10.0891 16.4687C10.0891 15.8145 9.5587 15.2841 8.90445 15.2841ZM6.02753 16.4687C6.02753 14.8798 7.31558 13.5918 8.90445 13.5918C10.4933 13.5918 11.7814 14.8798 11.7814 16.4687C11.7814 18.0576 10.4933 19.3456 8.90445 19.3456C7.31558 19.3456 6.02753 18.0576 6.02753 16.4687Z" fill="#696A6F"/>
</svg>
