<svg width="30" height="34" viewBox="0 0 30 34" fill="none" xmlns="http://www.w3.org/2000/svg">
<path fill-rule="evenodd" clip-rule="evenodd" d="M20.0002 0.293457L29.9999 10.2932L29.9999 32.2934C29.9999 33.0297 29.403 33.6267 28.6666 33.6267H4.66658C3.9302 33.6267 3.33325 33.0297 3.33325 32.2934V1.62679C3.33325 0.89041 3.9302 0.293457 4.66658 0.293457H20.0002Z" fill="#F1F5F9"/>
<path d="M20 10.2934L30 10.2934L20 0.293457L20 10.2934Z" fill="#DDE4EE"/>
<rect y="14.9595" width="24" height="12" rx="0.666666" fill="#9543FF"/>
<path d="M5.816 19.3035H4.104V18.2475H8.784V19.3035H7.072V23.9595H5.816V19.3035ZM10.8426 20.9675L9.00263 18.2475H10.4586L11.5786 20.0715L12.7386 18.2475H14.1146L12.2826 20.9755L14.2746 23.9595H12.7786L11.5306 21.9835L10.2586 23.9595H8.85062L10.8426 20.9675ZM16.0426 19.3035H14.3306V18.2475H19.0106V19.3035H17.2986V23.9595H16.0426V19.3035Z" fill="white"/>
</svg>
