<svg width="20" height="21" viewBox="0 0 20 21" fill="none" xmlns="http://www.w3.org/2000/svg">
<path d="M10 20.7695C4.477 20.7695 0 16.2925 0 10.7695C0 5.24653 4.477 0.769531 10 0.769531C15.523 0.769531 20 5.24653 20 10.7695C20 16.2925 15.523 20.7695 10 20.7695ZM10 18.7695C12.1217 18.7695 14.1566 17.9267 15.6569 16.4264C17.1571 14.9261 18 12.8913 18 10.7695C18 8.6478 17.1571 6.61297 15.6569 5.11268C14.1566 3.61239 12.1217 2.76953 10 2.76953C7.87827 2.76953 5.84344 3.61239 4.34315 5.11268C2.84285 6.61297 2 8.6478 2 10.7695C2 12.8913 2.84285 14.9261 4.34315 16.4264C5.84344 17.9267 7.87827 18.7695 10 18.7695ZM11 10.7695H15V12.7695H9V5.76953H11V10.7695Z" fill="#AFB1B6"/>
</svg>
