<svg width="20" height="20" viewBox="0 0 20 20" fill="none" xmlns="http://www.w3.org/2000/svg">
<path d="M9.99991 11.5282V13.056C8.78433 13.056 7.61854 13.5389 6.759 14.3984C5.89946 15.258 5.41657 16.4237 5.41657 17.6393H3.88879C3.88879 16.0186 4.53264 14.4642 5.6787 13.3181C6.82475 12.1721 8.37914 11.5282 9.99991 11.5282ZM9.99991 10.7643C7.46761 10.7643 5.41657 8.71328 5.41657 6.18099C5.41657 3.6487 7.46761 1.59766 9.99991 1.59766C12.5322 1.59766 14.5832 3.6487 14.5832 6.18099C14.5832 8.71328 12.5322 10.7643 9.99991 10.7643ZM9.99991 9.23655C11.6881 9.23655 13.0555 7.86918 13.0555 6.18099C13.0555 4.4928 11.6881 3.12543 9.99991 3.12543C8.31171 3.12543 6.94435 4.4928 6.94435 6.18099C6.94435 7.86918 8.31171 9.23655 9.99991 9.23655ZM11.9822 15.204C11.8853 14.7965 11.8853 14.3718 11.9822 13.9643L11.2244 13.5265L11.9883 12.2035L12.7461 12.6412C13.0502 12.3531 13.4179 12.1406 13.8193 12.0209V11.1463H15.3471V12.0209C15.7535 12.1416 16.1202 12.357 16.4204 12.6412L17.1782 12.2035L17.9421 13.5265L17.1843 13.9643C17.281 14.3716 17.281 14.7959 17.1843 15.2033L17.9421 15.641L17.1782 16.964L16.4204 16.5263C16.1162 16.8144 15.7486 17.0269 15.3471 17.1466V18.0213H13.8193V17.1466C13.4179 17.0269 13.0502 16.8144 12.7461 16.5263L11.9883 16.964L11.2244 15.641L11.9822 15.204ZM14.5832 15.7296C14.8871 15.7296 15.1786 15.6089 15.3935 15.394C15.6083 15.1791 15.7291 14.8877 15.7291 14.5838C15.7291 14.2799 15.6083 13.9884 15.3935 13.7735C15.1786 13.5587 14.8871 13.4379 14.5832 13.4379C14.2793 13.4379 13.9879 13.5587 13.773 13.7735C13.5581 13.9884 13.4374 14.2799 13.4374 14.5838C13.4374 14.8877 13.5581 15.1791 13.773 15.394C13.9879 15.6089 14.2793 15.7296 14.5832 15.7296Z" fill="#999BA0"/>
</svg>
