<svg width="46" height="50" viewBox="0 0 46 50" fill="none" xmlns="http://www.w3.org/2000/svg">
    <path fill-rule="evenodd" clip-rule="evenodd"
        d="M8 0C6.61929 0 5.5 1.11929 5.5 2.5V47.5C5.5 48.8807 6.61929 50 8 50H43C44.3807 50 45.5 48.8807 45.5 47.5V15L30.5 0H8Z"
        fill="#F1F5F9" />
    <path d="M30.5 15L45.5 15L30.5 0L30.5 15Z" fill="#E2E8F0" />
    <rect x="0.5" y="30" width="31.25" height="15" rx="1.25" fill="#D2D8E8" />
    <path
        d="M6.34233 41.5V34.2273H11.0014V35.3317H7.6598V37.3061H10.6818V38.4105H7.6598V41.5H6.34233ZM13.5192 34.2273V41.5H12.2017V34.2273H13.5192ZM14.9458 41.5V34.2273H16.2633V40.3956H19.4664V41.5H14.9458ZM20.6099 41.5V34.2273H25.34V35.3317H21.9274V37.3061H25.095V38.4105H21.9274V40.3956H25.3684V41.5H20.6099Z"
        fill="#78829D" />
</svg>
