<svg width="20" height="20" viewBox="0 0 20 20" fill="none" xmlns="http://www.w3.org/2000/svg">
<g clip-path="url(#clip0_4656_7724)">
<path d="M10 11.6673V13.334C8.67396 13.334 7.40219 13.8608 6.46451 14.7984C5.52682 15.7361 5.00004 17.0079 5.00004 18.334H3.33337C3.33337 16.5659 4.03575 14.8702 5.286 13.6199C6.53624 12.3697 8.23193 11.6673 10 11.6673ZM10 10.834C7.23754 10.834 5.00004 8.59648 5.00004 5.83398C5.00004 3.07148 7.23754 0.833984 10 0.833984C12.7625 0.833984 15 3.07148 15 5.83398C15 8.59648 12.7625 10.834 10 10.834ZM10 9.16732C11.8417 9.16732 13.3334 7.67565 13.3334 5.83398C13.3334 3.99232 11.8417 2.50065 10 2.50065C8.15837 2.50065 6.66671 3.99232 6.66671 5.83398C6.66671 7.67565 8.15837 9.16732 10 9.16732ZM12.1625 15.6773C12.0569 15.2327 12.0569 14.7695 12.1625 14.3248L11.3359 13.8473L12.1692 12.404L12.9959 12.8815C13.3277 12.5672 13.7288 12.3354 14.1667 12.2048V11.2507H15.8334V12.2048C16.2767 12.3365 16.6767 12.5715 17.0042 12.8815L17.8309 12.404L18.6642 13.8473L17.8375 14.3248C17.9431 14.7692 17.9431 15.2321 17.8375 15.6765L18.6642 16.154L17.8309 17.5973L17.0042 17.1198C16.6724 17.4341 16.2713 17.6659 15.8334 17.7965V18.7507H14.1667V17.7965C13.7288 17.6659 13.3277 17.4341 12.9959 17.1198L12.1692 17.5973L11.3359 16.154L12.1625 15.6773ZM15 16.2507C15.3316 16.2507 15.6495 16.119 15.8839 15.8845C16.1183 15.6501 16.25 15.3322 16.25 15.0007C16.25 14.6691 16.1183 14.3512 15.8839 14.1168C15.6495 13.8823 15.3316 13.7507 15 13.7507C14.6685 13.7507 14.3506 13.8823 14.1162 14.1168C13.8817 14.3512 13.75 14.6691 13.75 15.0007C13.75 15.3322 13.8817 15.6501 14.1162 15.8845C14.3506 16.119 14.6685 16.2507 15 16.2507Z" fill="#696A6F"/>
</g>
<defs>
<clipPath id="clip0_4656_7724">
<rect width="20" height="20" fill="white"/>
</clipPath>
</defs>
</svg>
