<svg width="30" height="34" viewBox="0 0 30 34" fill="none" xmlns="http://www.w3.org/2000/svg">
<path fill-rule="evenodd" clip-rule="evenodd" d="M20.0002 0.293457L29.9999 10.2932L29.9999 32.2934C29.9999 33.0297 29.403 33.6267 28.6666 33.6267H4.66658C3.9302 33.6267 3.33325 33.0297 3.33325 32.2934V1.62679C3.33325 0.89041 3.9302 0.293457 4.66658 0.293457H20.0002Z" fill="#F1F5F9"/>
<path d="M20 10.2934L30 10.2934L20 0.293457L20 10.2934Z" fill="#DDE4EE"/>
<rect y="14.9595" width="24" height="12" rx="0.666666" fill="#0A76B3"/>
<path d="M4.208 23.9595H2.792L0.944 18.2475H2.232L3.504 22.2635H3.52L4.808 18.2475H6.104L4.208 23.9595ZM7.44706 22.0635C7.44706 22.2555 7.48173 22.4181 7.55106 22.5515C7.6204 22.6848 7.71106 22.7941 7.82306 22.8795C7.9404 22.9595 8.0764 23.0208 8.23106 23.0635C8.38573 23.1008 8.54573 23.1195 8.71106 23.1195C8.82306 23.1195 8.94306 23.1115 9.07106 23.0955C9.19906 23.0741 9.31906 23.0368 9.43106 22.9835C9.54306 22.9301 9.6364 22.8581 9.71106 22.7675C9.78573 22.6715 9.82306 22.5515 9.82306 22.4075C9.82306 22.2528 9.7724 22.1275 9.67106 22.0315C9.57506 21.9355 9.44706 21.8555 9.28706 21.7915C9.12706 21.7275 8.94573 21.6715 8.74306 21.6235C8.5404 21.5755 8.33506 21.5221 8.12706 21.4635C7.91373 21.4101 7.70573 21.3461 7.50306 21.2715C7.3004 21.1915 7.11906 21.0901 6.95906 20.9675C6.79906 20.8448 6.6684 20.6928 6.56706 20.5115C6.47106 20.3248 6.42306 20.1008 6.42306 19.8395C6.42306 19.5461 6.4844 19.2928 6.60706 19.0795C6.73506 18.8608 6.9004 18.6795 7.10306 18.5355C7.30573 18.3915 7.53506 18.2848 7.79106 18.2155C8.04706 18.1461 8.30306 18.1115 8.55906 18.1115C8.85773 18.1115 9.14306 18.1461 9.41506 18.2155C9.6924 18.2795 9.93773 18.3861 10.1511 18.5355C10.3644 18.6848 10.5324 18.8768 10.6551 19.1115C10.7831 19.3408 10.8471 19.6208 10.8471 19.9515H9.63106C9.6204 19.7808 9.58306 19.6395 9.51906 19.5275C9.4604 19.4155 9.3804 19.3275 9.27906 19.2635C9.17773 19.1995 9.0604 19.1541 8.92706 19.1275C8.79906 19.1008 8.65773 19.0875 8.50306 19.0875C8.40173 19.0875 8.3004 19.0981 8.19906 19.1195C8.09773 19.1408 8.0044 19.1781 7.91906 19.2315C7.83906 19.2848 7.7724 19.3515 7.71906 19.4315C7.66573 19.5115 7.63906 19.6128 7.63906 19.7355C7.63906 19.8475 7.6604 19.9381 7.70306 20.0075C7.74573 20.0768 7.8284 20.1408 7.95106 20.1995C8.07906 20.2581 8.2524 20.3168 8.47106 20.3755C8.69506 20.4341 8.98573 20.5088 9.34306 20.5995C9.44973 20.6208 9.5964 20.6608 9.78306 20.7195C9.97506 20.7728 10.1644 20.8608 10.3511 20.9835C10.5377 21.1061 10.6977 21.2715 10.8311 21.4795C10.9697 21.6821 11.0391 21.9435 11.0391 22.2635C11.0391 22.5248 10.9884 22.7675 10.8871 22.9915C10.7857 23.2155 10.6337 23.4101 10.4311 23.5755C10.2337 23.7355 9.98573 23.8608 9.68706 23.9515C9.39373 24.0421 9.0524 24.0875 8.66306 24.0875C8.3484 24.0875 8.04173 24.0475 7.74306 23.9675C7.44973 23.8928 7.1884 23.7728 6.95906 23.6075C6.73506 23.4421 6.5564 23.2315 6.42306 22.9755C6.28973 22.7195 6.22573 22.4155 6.23106 22.0635H7.44706ZM13.0424 22.9035H14.1624C14.3437 22.9035 14.5197 22.8741 14.6904 22.8155C14.861 22.7568 15.013 22.6608 15.1464 22.5275C15.2797 22.3888 15.3864 22.2101 15.4664 21.9915C15.5464 21.7728 15.5864 21.5061 15.5864 21.1915C15.5864 20.9035 15.557 20.6448 15.4984 20.4155C15.445 20.1808 15.3544 19.9808 15.2264 19.8155C15.0984 19.6501 14.9277 19.5248 14.7144 19.4395C14.5064 19.3488 14.2477 19.3035 13.9384 19.3035H13.0424V22.9035ZM11.7864 18.2475H14.2504C14.6184 18.2475 14.9597 18.3061 15.2744 18.4235C15.5944 18.5408 15.869 18.7168 16.0984 18.9515C16.333 19.1861 16.5144 19.4795 16.6424 19.8315C16.7757 20.1835 16.8424 20.5968 16.8424 21.0715C16.8424 21.4875 16.789 21.8715 16.6824 22.2235C16.5757 22.5755 16.413 22.8795 16.1944 23.1355C15.981 23.3915 15.7117 23.5941 15.3864 23.7435C15.0664 23.8875 14.6877 23.9595 14.2504 23.9595H11.7864V18.2475ZM19.1161 20.9675L17.2761 18.2475H18.7321L19.8521 20.0715L21.0121 18.2475H22.3881L20.5561 20.9755L22.5481 23.9595H21.0521L19.8041 21.9835L18.5321 23.9595H17.1241L19.1161 20.9675Z" fill="white"/>
</svg>
