<svg width="42" height="43" viewBox="0 0 42 43" fill="none" xmlns="http://www.w3.org/2000/svg">
<rect y="0.5" width="42" height="42" rx="21" fill="#EEF6FF"/>
<path d="M7.80505 15.6632C11.5373 12.6396 16.1967 10.9929 21.0001 11C25.9992 11 30.5901 12.7465 34.1951 15.6632L32.7297 17.4785C29.412 14.7906 25.27 13.3269 21.0001 13.3334C16.5562 13.3334 12.4764 14.885 9.27039 17.4785L7.80505 15.6632ZM11.4696 20.2015C14.1653 18.0175 17.5307 16.8282 21.0001 16.8334C24.6097 16.8334 27.9254 18.0945 30.5306 20.2004L29.0641 22.0157C26.783 20.1681 23.9355 19.162 21.0001 19.1667C17.9457 19.1667 15.1399 20.2342 12.9361 22.0157L11.4696 20.2004V20.2015ZM15.1352 24.7399C16.794 23.3957 18.865 22.6637 21.0001 22.6667C23.2214 22.6667 25.2619 23.4425 26.8649 24.7387L25.3984 26.554C24.1542 25.5463 22.6011 24.9975 21.0001 25C19.3341 25 17.8034 25.5822 16.6017 26.554L15.1352 24.7387V24.7399ZM18.8009 29.2782C19.4228 28.7739 20.1994 28.4991 21.0001 28.5C21.8331 28.5 22.5984 28.7917 23.1992 29.277L21.0001 32L18.8009 29.277V29.2782Z" fill="#3E97FF"/>
</svg>
