<svg width="30" height="34" viewBox="0 0 30 34" fill="none" xmlns="http://www.w3.org/2000/svg">
<path fill-rule="evenodd" clip-rule="evenodd" d="M20.0002 0.293457L29.9999 10.2932L29.9999 32.2934C29.9999 33.0297 29.403 33.6267 28.6666 33.6267H4.66658C3.9302 33.6267 3.33325 33.0297 3.33325 32.2934V1.62679C3.33325 0.89041 3.9302 0.293457 4.66658 0.293457H20.0002Z" fill="#F1F5F9"/>
<path d="M20 10.2934L30 10.2934L20 0.293457L20 10.2934Z" fill="#DDE4EE"/>
<rect y="14.9595" width="24" height="12" rx="0.666666" fill="#3B82F6"/>
<path d="M4.308 22.9035H5.428C5.60933 22.9035 5.78533 22.8741 5.956 22.8155C6.12667 22.7568 6.27867 22.6608 6.412 22.5275C6.54533 22.3888 6.652 22.2101 6.732 21.9915C6.812 21.7728 6.852 21.5061 6.852 21.1915C6.852 20.9035 6.82267 20.6448 6.764 20.4155C6.71067 20.1808 6.62 19.9808 6.492 19.8155C6.364 19.6501 6.19333 19.5248 5.98 19.4395C5.772 19.3488 5.51333 19.3035 5.204 19.3035H4.308V22.9035ZM3.052 18.2475H5.516C5.884 18.2475 6.22533 18.3061 6.54 18.4235C6.86 18.5408 7.13467 18.7168 7.364 18.9515C7.59867 19.1861 7.78 19.4795 7.908 19.8315C8.04133 20.1835 8.108 20.5968 8.108 21.0715C8.108 21.4875 8.05467 21.8715 7.948 22.2235C7.84133 22.5755 7.67867 22.8795 7.46 23.1355C7.24667 23.3915 6.97733 23.5941 6.652 23.7435C6.332 23.8875 5.95333 23.9595 5.516 23.9595H3.052V18.2475ZM9.98969 21.1275C9.98969 21.3675 10.0164 21.6021 10.0697 21.8315C10.1284 22.0555 10.219 22.2581 10.3417 22.4395C10.4644 22.6208 10.6244 22.7675 10.8217 22.8795C11.019 22.9861 11.259 23.0395 11.5417 23.0395C11.8244 23.0395 12.0644 22.9861 12.2617 22.8795C12.459 22.7675 12.619 22.6208 12.7417 22.4395C12.8644 22.2581 12.9524 22.0555 13.0057 21.8315C13.0644 21.6021 13.0937 21.3675 13.0937 21.1275C13.0937 20.8768 13.0644 20.6341 13.0057 20.3995C12.9524 20.1648 12.8644 19.9568 12.7417 19.7755C12.619 19.5888 12.459 19.4421 12.2617 19.3355C12.0644 19.2235 11.8244 19.1675 11.5417 19.1675C11.259 19.1675 11.019 19.2235 10.8217 19.3355C10.6244 19.4421 10.4644 19.5888 10.3417 19.7755C10.219 19.9568 10.1284 20.1648 10.0697 20.3995C10.0164 20.6341 9.98969 20.8768 9.98969 21.1275ZM8.73369 21.1275C8.73369 20.7008 8.79769 20.3061 8.92569 19.9435C9.05369 19.5755 9.23769 19.2555 9.47769 18.9835C9.71769 18.7115 10.011 18.4981 10.3577 18.3435C10.7097 18.1888 11.1044 18.1115 11.5417 18.1115C11.9844 18.1115 12.379 18.1888 12.7257 18.3435C13.0724 18.4981 13.3657 18.7115 13.6057 18.9835C13.8457 19.2555 14.0297 19.5755 14.1577 19.9435C14.2857 20.3061 14.3497 20.7008 14.3497 21.1275C14.3497 21.5435 14.2857 21.9328 14.1577 22.2955C14.0297 22.6528 13.8457 22.9648 13.6057 23.2315C13.3657 23.4981 13.0724 23.7088 12.7257 23.8635C12.379 24.0128 11.9844 24.0875 11.5417 24.0875C11.1044 24.0875 10.7097 24.0128 10.3577 23.8635C10.011 23.7088 9.71769 23.4981 9.47769 23.2315C9.23769 22.9648 9.05369 22.6528 8.92569 22.2955C8.79769 21.9328 8.73369 21.5435 8.73369 21.1275ZM19.0163 20.1675C18.9949 20.0235 18.9469 19.8928 18.8723 19.7755C18.7976 19.6528 18.7043 19.5461 18.5923 19.4555C18.4803 19.3648 18.3523 19.2955 18.2083 19.2475C18.0696 19.1941 17.9229 19.1675 17.7683 19.1675C17.4856 19.1675 17.2456 19.2235 17.0483 19.3355C16.8509 19.4421 16.6909 19.5888 16.5683 19.7755C16.4456 19.9568 16.3549 20.1648 16.2963 20.3995C16.2429 20.6341 16.2163 20.8768 16.2163 21.1275C16.2163 21.3675 16.2429 21.6021 16.2963 21.8315C16.3549 22.0555 16.4456 22.2581 16.5683 22.4395C16.6909 22.6208 16.8509 22.7675 17.0483 22.8795C17.2456 22.9861 17.4856 23.0395 17.7683 23.0395C18.1523 23.0395 18.4509 22.9221 18.6643 22.6875C18.8829 22.4528 19.0163 22.1435 19.0642 21.7595H20.2803C20.2483 22.1168 20.1656 22.4395 20.0323 22.7275C19.8989 23.0155 19.7229 23.2608 19.5043 23.4635C19.2856 23.6661 19.0296 23.8208 18.7363 23.9275C18.4429 24.0341 18.1203 24.0875 17.7683 24.0875C17.3309 24.0875 16.9363 24.0128 16.5843 23.8635C16.2376 23.7088 15.9443 23.4981 15.7043 23.2315C15.4643 22.9648 15.2803 22.6528 15.1523 22.2955C15.0243 21.9328 14.9603 21.5435 14.9603 21.1275C14.9603 20.7008 15.0243 20.3061 15.1523 19.9435C15.2803 19.5755 15.4643 19.2555 15.7043 18.9835C15.9443 18.7115 16.2376 18.4981 16.5843 18.3435C16.9363 18.1888 17.3309 18.1115 17.7683 18.1115C18.0829 18.1115 18.3789 18.1568 18.6562 18.2475C18.9389 18.3381 19.1896 18.4715 19.4083 18.6475C19.6323 18.8181 19.8163 19.0315 19.9603 19.2875C20.1043 19.5435 20.1949 19.8368 20.2323 20.1675H19.0163Z" fill="white"/>
</svg>
