<svg width="42" height="43" viewBox="0 0 42 43" fill="none" xmlns="http://www.w3.org/2000/svg">
<rect y="0.5" width="42" height="42" rx="21" fill="#FFECF1"/>
<path d="M21.0001 28.4998C21.8331 28.4998 22.5985 28.7915 23.2005 29.2768L21.0001 31.9998L18.7998 29.2768C19.4221 28.7727 20.1992 28.4983 21.0001 28.4998ZM10.2761 9.125L30.8993 29.7493L29.2496 31.399L23.2063 25.3557C22.4947 25.1196 21.7498 24.9994 21.0001 24.9998C19.3341 24.9998 17.8035 25.582 16.6018 26.5538L15.1365 24.7385C16.6695 23.4965 18.5582 22.7749 20.5288 22.6782L17.5001 19.6495C15.8343 20.1217 14.2817 20.927 12.9361 22.0167L11.4685 20.2013C12.7259 19.1831 14.1383 18.3729 15.6521 17.8015L12.9875 15.1357C11.6611 15.7673 10.4138 16.5532 9.27162 17.4772L7.80396 15.663C8.87146 14.7997 10.0241 14.0402 11.248 13.3973L8.62529 10.7758L10.2761 9.125ZM23.9168 19.499L21.2521 16.8355L21.0001 16.8332C24.611 16.8332 27.9266 18.0943 30.5318 20.2013L29.0641 22.0167C27.5609 20.7989 25.8009 19.938 23.9168 19.499ZM21.0001 10.9998C25.9993 10.9998 30.5901 12.7463 34.1951 15.663L32.7286 17.4772C29.411 14.7899 25.2695 13.3266 21.0001 13.3332C19.9758 13.3332 18.9701 13.4148 17.9901 13.5747L16.0126 11.5948C17.6098 11.2063 19.2816 10.9998 21.0001 10.9998Z" fill="#F14156"/>
</svg>
