<svg width="20" height="20" viewBox="0 0 20 20" fill="none" xmlns="http://www.w3.org/2000/svg">
<g clip-path="url(#clip0_6448_12609)">
<path d="M10.0001 14.9993C10.5951 14.9993 11.1417 15.2077 11.5717 15.5543L10.0001 17.4993L8.42839 15.5543C8.87293 15.1942 9.42795 14.9982 10.0001 14.9993ZM2.34005 1.16016L17.0709 15.8918L15.8926 17.0702L11.5759 12.7535C11.0676 12.5848 10.5356 12.499 10.0001 12.4993C8.81005 12.4993 7.71672 12.9152 6.85839 13.6093L5.81172 12.3127C6.90676 11.4255 8.2558 10.9101 9.66339 10.841L7.50005 8.67766C6.31019 9.01493 5.20115 9.59015 4.24005 10.3685L3.19172 9.07182C4.08989 8.3445 5.09879 7.76578 6.18005 7.35766L4.27672 5.45349C3.3293 5.90466 2.43842 6.46604 1.62255 7.12599L0.574219 5.83016C1.33672 5.21349 2.16005 4.67099 3.03422 4.21182L1.16089 2.33932L2.34005 1.16016ZM12.0834 8.57016L10.1801 6.66766L10.0001 6.66599C12.5792 6.66599 14.9476 7.56682 16.8084 9.07182L15.7601 10.3685C14.6863 9.49862 13.4292 8.88374 12.0834 8.57016ZM10.0001 2.49932C13.5709 2.49932 16.8501 3.74682 19.4251 5.83016L18.3776 7.12599C16.0078 5.20653 13.0496 4.16131 10.0001 4.16599C9.26839 4.16599 8.55005 4.22432 7.85005 4.33849L6.43755 2.92432C7.57839 2.64682 8.77255 2.49932 10.0001 2.49932Z" fill="#DB132B"/>
</g>
<defs>
<clipPath id="clip0_6448_12609">
<rect width="20" height="20" fill="white"/>
</clipPath>
</defs>
</svg>
