<svg width="64" height="65" viewBox="0 0 64 65" fill="none" xmlns="http://www.w3.org/2000/svg">
<g filter="url(#filter0_d_6352_29326)">
<rect x="8" y="8.5" width="48" height="48" rx="24" fill="white" shape-rendering="crispEdges"/>
<rect x="11" y="11.5" width="42" height="42" rx="21" fill="#FCF4ED"/>
<path d="M31.9997 20.8105C34.0277 20.8106 35.9849 21.556 37.4992 22.9048C39.0136 24.2536 39.9794 26.1119 40.2132 28.1264C41.6828 28.5271 42.9649 29.4316 43.8353 30.6817C44.7057 31.9319 45.1091 33.4481 44.975 34.9655C44.8409 36.4829 44.1778 37.9049 43.1017 38.983C42.0255 40.0611 40.6047 40.7267 39.0876 40.8635L39.0864 38.5273C39.0883 36.6695 38.3606 34.8854 37.06 33.5588C35.7595 32.2323 33.99 31.4695 32.1326 31.4347C30.2752 31.3999 28.4784 32.0958 27.129 33.3726C25.7796 34.6494 24.9856 36.405 24.9178 38.2615L24.913 38.5273V40.8635C23.3958 40.7269 21.9749 40.0614 20.8986 38.9834C19.8223 37.9054 19.159 36.4834 19.0248 34.966C18.8906 33.4486 19.2939 31.9323 20.1642 30.682C21.0346 29.4318 22.3166 28.5272 23.7863 28.1264C24.0198 26.1118 24.9856 24.2534 26.5 22.9045C28.0143 21.5556 29.9717 20.8104 31.9997 20.8105Z" fill="#FFA128"/>
<path fill-rule="evenodd" clip-rule="evenodd" d="M26.2163 38.4065C26.2163 41.6007 28.8056 44.19 31.9998 44.19C35.194 44.19 37.7832 41.6007 37.7832 38.4065C37.7832 35.2123 35.194 32.623 31.9998 32.623C28.8056 32.623 26.2163 35.2123 26.2163 38.4065ZM31.002 34.9727H32.998V39.3747H31.002V34.9727ZM31.002 39.9502H32.998V41.4265H31.002V39.9502Z" fill="#FFA128"/>
</g>
<defs>
<filter id="filter0_d_6352_29326" x="2" y="4" width="60" height="60" filterUnits="userSpaceOnUse" color-interpolation-filters="sRGB">
<feFlood flood-opacity="0" result="BackgroundImageFix"/>
<feColorMatrix in="SourceAlpha" type="matrix" values="0 0 0 0 0 0 0 0 0 0 0 0 0 0 0 0 0 0 127 0" result="hardAlpha"/>
<feOffset dy="1.5"/>
<feGaussianBlur stdDeviation="3"/>
<feComposite in2="hardAlpha" operator="out"/>
<feColorMatrix type="matrix" values="0 0 0 0 0.319531 0 0 0 0 0.319531 0 0 0 0 0.319531 0 0 0 0.16 0"/>
<feBlend mode="normal" in2="BackgroundImageFix" result="effect1_dropShadow_6352_29326"/>
<feBlend mode="normal" in="SourceGraphic" in2="effect1_dropShadow_6352_29326" result="shape"/>
</filter>
</defs>
</svg>
