<svg width="30" height="34" viewBox="0 0 30 34" fill="none" xmlns="http://www.w3.org/2000/svg">
<path fill-rule="evenodd" clip-rule="evenodd" d="M20.0002 0.293457L29.9999 10.2932L29.9999 32.2934C29.9999 33.0297 29.403 33.6267 28.6666 33.6267H4.66658C3.9302 33.6267 3.33325 33.0297 3.33325 32.2934V1.62679C3.33325 0.89041 3.9302 0.293457 4.66658 0.293457H20.0002Z" fill="#F1F5F9"/>
<path d="M20 10.2934L30 10.2934L20 0.293457L20 10.2934Z" fill="#DDE4EE"/>
<rect y="14.9595" width="24" height="12" rx="0.666666" fill="#5B93B3"/>
<path d="M5.684 22.9675L8.748 19.3035H5.924V18.2475H10.42V19.2395L7.356 22.9035H10.5V23.9595H5.684V22.9675ZM11.2395 18.2475H12.4955V23.9595H11.2395V18.2475ZM14.8549 20.9355H15.8309C15.9749 20.9355 16.1135 20.9248 16.2469 20.9035C16.3802 20.8821 16.4975 20.8421 16.5989 20.7835C16.7002 20.7195 16.7802 20.6315 16.8389 20.5195C16.9029 20.4075 16.9349 20.2608 16.9349 20.0795C16.9349 19.8981 16.9029 19.7515 16.8389 19.6395C16.7802 19.5275 16.7002 19.4421 16.5989 19.3835C16.4975 19.3195 16.3802 19.2768 16.2469 19.2555C16.1135 19.2341 15.9749 19.2235 15.8309 19.2235H14.8549V20.9355ZM13.5989 18.2475H16.1749C16.5322 18.2475 16.8362 18.3008 17.0869 18.4075C17.3375 18.5088 17.5402 18.6448 17.6949 18.8155C17.8549 18.9861 17.9695 19.1808 18.0389 19.3995C18.1135 19.6181 18.1509 19.8448 18.1509 20.0795C18.1509 20.3088 18.1135 20.5355 18.0389 20.7595C17.9695 20.9781 17.8549 21.1728 17.6949 21.3435C17.5402 21.5141 17.3375 21.6528 17.0869 21.7595C16.8362 21.8608 16.5322 21.9115 16.1749 21.9115H14.8549V23.9595H13.5989V18.2475Z" fill="white"/>
</svg>
