<svg width="25" height="25" viewBox="0 0 25 25" fill="none" xmlns="http://www.w3.org/2000/svg">
<path fill-rule="evenodd" clip-rule="evenodd" d="M12.1419 1.39703C15.1162 1.38507 17.9331 3.1068 19.1777 5.97662C19.6062 6.96347 19.7664 8.00797 19.7664 9.01978V12.0756C19.7664 12.6554 19.9985 13.2061 20.4263 13.6256L21.0449 14.233C21.0452 14.2333 21.0455 14.2337 21.0459 14.234C21.667 14.8404 22.0217 15.6657 22.0217 16.5297V16.5374C22.0061 18.2648 20.5796 19.642 18.853 19.642C18.8063 19.642 18.7603 19.6381 18.7151 19.6307H5.45689C3.72338 19.6307 2.28827 18.256 2.28827 16.5185C2.28827 15.6544 2.64295 14.8292 3.26402 14.2227C3.26438 14.2224 3.26473 14.222 3.26508 14.2217L3.88336 13.6146C4.31113 13.1951 4.54351 12.6441 4.54351 12.0644V8.86187C4.54351 4.7262 7.95911 1.39799 12.1419 1.39703ZM18.9712 17.946C19.7349 17.8872 20.3216 17.2626 20.3303 16.526C20.3292 16.1289 20.1656 15.7382 19.8637 15.4436L19.8618 15.4418L19.2419 14.8332C18.4969 14.1025 18.075 13.1196 18.075 12.0756V9.01978C18.075 8.18232 17.942 7.37753 17.6263 6.65035C16.6609 4.42413 14.472 3.07856 12.1473 3.08846L12.1437 3.08847C8.86247 3.08847 6.23493 5.69117 6.23493 8.86187V12.0644C6.23493 13.1082 5.81308 14.091 5.06836 14.8215C5.06826 14.8217 5.06847 14.8215 5.06836 14.8215L4.44817 15.4305L4.44625 15.4323C4.14333 15.7279 3.9797 16.1201 3.9797 16.5185C3.9797 17.2842 4.61942 17.9393 5.45689 17.9393H18.8643C18.9004 17.9393 18.936 17.9416 18.9712 17.946Z" fill="#696A6F"/>
<path fill-rule="evenodd" clip-rule="evenodd" d="M9.53888 22.5513C9.53888 22.0842 9.91749 21.7056 10.3846 21.7056H13.914C14.3811 21.7056 14.7597 22.0842 14.7597 22.5513C14.7597 23.0184 14.3811 23.397 13.914 23.397H10.3846C9.91749 23.397 9.53888 23.0184 9.53888 22.5513Z" fill="#696A6F"/>
</svg>
