<svg width="20" height="20" viewBox="0 0 20 20" fill="none" xmlns="http://www.w3.org/2000/svg">
<rect width="20" height="20" rx="4" fill="#DFAE00"/>
<path d="M6.36548 13.8672H9.51652V14.7266H6.36548V13.8672Z" fill="white"/>
<path d="M9.51652 10.0003C9.51652 8.29338 10.5886 6.83235 12.0946 6.25454V5.6748C12.0946 4.96402 11.5164 4.38574 10.8056 4.38574H10.0894V3.95605C10.0894 3.24527 9.51116 2.66699 8.80037 2.66699H7.08162C6.37084 2.66699 5.79256 3.24527 5.79256 3.95605V4.38574H5.07642C4.36563 4.38574 3.78735 4.96402 3.78735 5.6748V16.0446C3.78735 16.7554 4.36563 17.3337 5.07642 17.3337H10.8056C11.5164 17.3337 12.0946 16.7554 12.0946 16.0446V13.7461C10.5886 13.1683 9.51652 11.7073 9.51652 10.0003ZM10.3759 15.1566C10.3759 15.3939 10.1835 15.5863 9.94621 15.5863H5.93579C5.69849 15.5863 5.5061 15.3939 5.5061 15.1566V13.4378C5.5061 13.2005 5.69849 13.0081 5.93579 13.0081H9.94621C10.1835 13.0081 10.3759 13.2005 10.3759 13.4378V15.1566Z" fill="white"/>
<path d="M13.527 6.84961C11.7868 6.84961 10.376 8.26039 10.376 10.0007C10.376 11.7409 11.7868 13.1517 13.527 13.1517C15.2673 13.1517 16.6781 11.7409 16.6781 10.0007C16.6781 8.26039 15.2673 6.84961 13.527 6.84961ZM13.527 12.0059C13.2897 12.0059 13.0973 11.8135 13.0973 11.5762C13.0973 11.3389 13.2897 11.1465 13.527 11.1465C13.7643 11.1465 13.9567 11.3389 13.9567 11.5762C13.9567 11.8135 13.7643 12.0059 13.527 12.0059ZM13.9567 10.1439C13.9567 10.3812 13.7643 10.5736 13.527 10.5736C13.2897 10.5736 13.0973 10.3812 13.0973 10.1439V8.42513C13.0973 8.18783 13.2897 7.99544 13.527 7.99544C13.7643 7.99544 13.9567 8.18783 13.9567 8.42513V10.1439Z" fill="white"/>
</svg>
