<svg width="21" height="20" viewBox="0 0 21 20" fill="none" xmlns="http://www.w3.org/2000/svg">
<rect x="0.230469" width="20" height="20" rx="4" fill="#50CD89"/>
<g clip-path="url(#clip0_2652_13680)">
<path d="M9.74412 8.11024C9.03365 7.0474 7.83362 6.38714 6.52427 6.38281H6.51107C4.48234 6.38281 2.84268 7.9196 2.62549 9.82905H7.83044C8.01755 8.90854 8.79202 8.19893 9.74412 8.11024Z" fill="white"/>
<path d="M7.20496 4.35761C7.93609 4.0161 8.71164 3.81815 9.51568 3.76608V2.90332C8.58469 2.95649 7.6867 3.18247 6.84067 3.57764C6.62528 3.67825 6.53224 3.9344 6.63282 4.14979C6.73362 4.36549 6.98992 4.45807 7.20496 4.35761Z" fill="white"/>
<path d="M16.4168 9.82965H17.2795C17.2264 8.89866 17.0004 8.00067 16.6052 7.15464C16.5045 6.93922 16.2484 6.84621 16.0331 6.94679C15.8177 7.04739 15.7246 7.30357 15.8252 7.51893C16.1667 8.25006 16.3647 9.02559 16.4168 9.82965Z" fill="white"/>
<path d="M12.095 10.0565C13.1642 9.34259 13.8285 8.13568 13.8328 6.81915C13.8395 4.78804 12.3079 3.14489 10.3765 2.92383V8.14427C11.2965 8.33136 12.0058 9.10528 12.095 10.0565Z" fill="white"/>
<path d="M12.6872 16.1158C11.9561 16.4573 11.1805 16.6552 10.3765 16.7073V17.57C11.3075 17.5169 12.2054 17.2909 13.0515 16.8957C13.2669 16.7951 13.3599 16.539 13.2593 16.3236C13.1586 16.1082 12.9025 16.0151 12.6872 16.1158Z" fill="white"/>
<path d="M10.1523 12.4087C10.8666 13.4776 12.0729 14.1415 13.3897 14.1459H13.4032C15.4145 14.1459 17.0509 12.6367 17.2672 10.6904H12.0617C11.8749 11.6095 11.1024 12.3183 10.1523 12.4087Z" fill="white"/>
<path d="M7.79679 10.4619C6.73394 11.1727 6.07365 12.3727 6.06936 13.6818C6.06268 15.6935 7.57828 17.3402 9.51559 17.5579V12.3756C8.59506 12.1885 7.88545 11.414 7.79679 10.4619Z" fill="white"/>
<path d="M3.47555 10.6904H2.61279C2.66596 11.6214 2.89195 12.5194 3.28712 13.3654C3.38792 13.5812 3.64419 13.6738 3.85926 13.5733C4.07465 13.4727 4.16769 13.2165 4.06711 13.0011C3.72557 12.27 3.52763 11.4945 3.47555 10.6904Z" fill="white"/>
<path d="M11.2442 10.2598C11.2442 9.54414 10.6619 8.96191 9.94629 8.96191C9.23066 8.96191 8.64844 9.54414 8.64844 10.2598C8.64844 10.9754 9.23066 11.5577 9.94629 11.5577C10.6619 11.5577 11.2442 10.9754 11.2442 10.2598Z" fill="white"/>
</g>
<defs>
<clipPath id="clip0_2652_13680">
<rect width="16" height="16" fill="white" transform="translate(2.23047 2)"/>
</clipPath>
</defs>
</svg>
