<svg width="295" height="280" viewBox="0 0 295 280" fill="none" xmlns="http://www.w3.org/2000/svg">
<path d="M141.148 239.855C205.522 239.855 257.707 187.669 257.707 123.295C257.707 58.9213 205.522 6.73596 141.148 6.73596C76.774 6.73596 24.5886 58.9213 24.5886 123.295C24.5886 187.669 76.774 239.855 141.148 239.855Z" fill="#F2F6F9"/>
<path d="M90.7232 64.7058C95.9236 42.6822 82.2857 20.6128 60.2621 15.4124C38.2385 10.212 16.1691 23.8499 10.9687 45.8735C5.7683 67.8971 19.4062 89.9665 41.4298 95.1669C63.4534 100.367 85.5228 86.7294 90.7232 64.7058Z" fill="#D2DFEE"/>
<path d="M50.8458 96.2586C63.604 96.2586 73.9465 77.9133 73.9465 55.2832C73.9465 32.6531 63.604 14.3078 50.8458 14.3078C38.0877 14.3078 27.7452 32.6531 27.7452 55.2832C27.7452 77.9133 38.0877 96.2586 50.8458 96.2586Z" stroke="white" stroke-miterlimit="10"/>
<path d="M50.8458 81.9449C73.4759 81.9449 91.8212 70.0077 91.8212 55.2824C91.8212 40.5571 73.4759 28.6199 50.8458 28.6199C28.2157 28.6199 9.87042 40.5571 9.87042 55.2824C9.87042 70.0077 28.2157 81.9449 50.8458 81.9449Z" stroke="white" stroke-miterlimit="10"/>
<path d="M9.87042 55.2823H91.7137" stroke="white" stroke-miterlimit="10"/>
<path d="M50.8458 14.3069V96.2583" stroke="white" stroke-miterlimit="10"/>
<path d="M286.977 279.927H7.09589C3.17725 279.927 0 276.75 0 272.831C0 268.911 3.17661 265.735 7.09589 265.735H286.976C290.895 265.735 294.072 268.911 294.072 272.831C294.072 276.749 290.895 279.927 286.977 279.927Z" fill="#E1E8EF"/>
<path d="M231.826 148.744C213.439 148.744 198.533 163.65 198.533 182.037C198.533 200.424 213.439 215.33 231.826 215.33C250.213 215.33 265.119 200.424 265.119 182.037C265.119 163.649 250.214 148.744 231.826 148.744ZM231.826 202.73C220.398 202.73 211.133 193.465 211.133 182.037C211.133 170.609 220.398 161.344 231.826 161.344C243.255 161.344 252.519 170.609 252.519 182.037C252.519 193.465 243.255 202.73 231.826 202.73Z" fill="#E2EAF2"/>
<path d="M242.911 151.681L246.088 146.711C246.088 146.711 255.13 149.236 259.204 156.405L255.375 160.234L242.911 151.681Z" fill="#E2EAF2"/>
<path d="M262.625 172.318L267.893 170.634C267.893 170.634 271.26 178.509 270.174 185.189L263.657 186.926L262.625 172.318Z" fill="#E2EAF2"/>
<path d="M261.267 195.344L266.806 198.766C266.806 198.766 263.059 206.695 258.443 209.899L253.881 205.988L261.267 195.344Z" fill="#E2EAF2"/>
<path d="M231.099 214.08L233.462 220.597C233.462 220.597 242.911 220.108 247.799 217.338L245.763 210.332L231.099 214.08Z" fill="#E2EAF2"/>
<path d="M215.702 154.695L214.806 148.341C214.806 148.341 221.975 144.349 230.284 144.594L231.987 149.639L215.702 154.695Z" fill="#E2EAF2"/>
<path d="M207.393 161.021L202.016 157.329C202.016 157.329 196.151 162.434 194.522 171.123L200.278 174.273L207.393 161.021Z" fill="#E2EAF2"/>
<path d="M225.303 60.483C209.278 60.483 196.288 73.4737 196.288 89.4979C196.288 105.523 209.279 118.513 225.303 118.513C241.328 118.513 254.318 105.522 254.318 89.4979C254.318 73.4737 241.328 60.483 225.303 60.483ZM225.303 107.533C215.342 107.533 207.268 99.4583 207.268 89.4985C207.268 79.5388 215.342 71.4639 225.303 71.4639C235.263 71.4639 243.337 79.5381 243.337 89.4985C243.337 99.4583 235.263 107.533 225.303 107.533Z" fill="#E2EAF2"/>
<path d="M234.963 63.0425L237.731 58.712C237.731 58.712 245.612 60.9129 249.162 67.1605L245.825 70.4971L234.963 63.0425Z" fill="#E2EAF2"/>
<path d="M252.144 81.028L256.735 79.5608C256.735 79.5608 259.67 86.4236 258.723 92.2452L253.043 93.7597L252.144 81.028Z" fill="#E2EAF2"/>
<path d="M250.96 101.096L255.788 104.078C255.788 104.078 252.522 110.988 248.499 113.78L244.524 110.372L250.96 101.096Z" fill="#E2EAF2"/>
<path d="M209.69 111.695L206.575 116.438C206.575 116.438 212.455 121.321 217.281 122.151L219.444 117.382L209.69 111.695Z" fill="#E2EAF2"/>
<path d="M224.669 117.425L226.728 123.105C226.728 123.105 234.963 122.679 239.223 120.265L237.448 114.159L224.669 117.425Z" fill="#E2EAF2"/>
<path d="M211.251 65.6687L210.47 60.1313C210.47 60.1313 216.718 56.6523 223.959 56.8654L225.444 61.2625L211.251 65.6687Z" fill="#E2EAF2"/>
<path d="M204.009 71.1828L199.323 67.9641C199.323 67.9641 194.211 72.413 192.792 79.9861L197.809 82.7315L204.009 71.1828Z" fill="#E2EAF2"/>
<path d="M148.776 9.4372C130.174 18.5151 122.454 40.954 131.532 59.5552C140.61 78.1571 163.049 85.8771 181.65 76.7993C200.252 67.7214 207.972 45.2825 198.894 26.6813C189.817 8.07941 167.378 0.359334 148.776 9.4372ZM175.43 64.0527C163.868 69.695 149.921 64.8964 144.279 53.3347C138.636 41.7731 143.435 27.826 154.997 22.1838C166.559 16.5415 180.505 21.3401 186.148 32.9017C191.79 44.4634 186.992 58.4104 175.43 64.0527Z" fill="#E2EAF2"/>
<path d="M161.44 6.93526L162.201 0.339233C162.201 0.339233 172.595 -1.57023 180.255 3.67124L178.272 9.43523L161.44 6.93526Z" fill="#E2EAF2"/>
<path d="M191.572 18.0798L196.07 13.7759C196.07 13.7759 203.364 20.0799 205.564 27.3739L199.829 32.3493L191.572 18.0798Z" fill="#E2EAF2"/>
<path d="M201.567 42.0455L208.86 42.772C208.86 42.772 208.984 52.6437 205.896 58.1643L199.351 56.4607L201.567 42.0455Z" fill="#E2EAF2"/>
<path d="M159.664 77.7297L158.735 84.9998C158.735 84.9998 168.327 87.3366 174.399 85.5664L174.209 78.8052L159.664 77.7297Z" fill="#E2EAF2"/>
<path d="M180.297 75.8946L185.905 81.3212C185.905 81.3212 195.223 76.1613 198.801 70.9464L193.282 64.8645L180.297 75.8946Z" fill="#E2EAF2"/>
<path d="M135.402 23.4171L131.358 17.431C131.358 17.431 136.64 9.85335 145.167 5.99817L149.381 10.2613L135.402 23.4171Z" fill="#E2EAF2"/>
<path d="M130.119 33.9201L122.857 32.8381C122.857 32.8381 119.444 40.8981 122.085 50.4934L129.464 50.8378L130.119 33.9201Z" fill="#E2EAF2"/>
<path d="M34.628 63.3549C34.628 63.3549 34.6196 63.3607 34.604 63.3717C31.2811 65.6968 29.3159 69.5099 29.3159 73.5658V73.8902C29.3159 74.3713 29.393 74.8498 29.5432 75.307L93.6879 269.812C94.4105 272.004 96.5407 273.415 98.8406 273.226L225.64 262.795C225.64 262.795 231.079 258.539 231.754 254.313L34.628 63.3549Z" fill="#433E51"/>
<path d="M33.5525 66.4284L97.7762 261.357C98.9028 264.778 102.234 266.974 105.822 266.663L229.509 255.927C231.267 255.775 232.413 254.009 231.837 252.341L164.255 56.7199C163.323 54.0231 160.679 52.3027 157.836 52.5449L35.8673 62.9248C34.1456 63.0712 33.0119 64.787 33.5525 66.4284Z" fill="#5A5368"/>
<path d="M44.8221 73.2707L100.837 242.616C101.38 244.258 102.979 245.314 104.703 245.169L213.068 236.046C215.504 235.84 217.092 233.394 216.287 231.086L157.458 62.3041C156.898 60.6957 155.321 59.6688 153.623 59.8067L48.0719 68.3666C45.6561 68.5627 44.0613 70.9695 44.8221 73.2707Z" fill="#E2ECF7"/>
<path d="M141.819 108.167C143.562 120.31 136.165 133.195 123.161 135.062C110.157 136.929 95.7372 126.788 93.6711 114.697C91.4715 101.826 98.3958 91.2352 110.507 89.2804C123.741 87.1437 140.076 96.0241 141.819 108.167Z" fill="#3396FF"/>
<path d="M123.056 104.684C123.802 100.087 120.681 95.7561 116.084 95.0102C111.488 94.2642 107.157 97.3858 106.411 101.982C105.665 106.579 108.787 110.91 113.383 111.656C117.979 112.402 122.31 109.28 123.056 104.684Z" fill="#8ACDFF"/>
<path d="M137.885 125.664C135.027 121.335 127.782 112.311 117.678 113.556C106.769 114.9 106.836 127.546 107.193 131.935C112.117 134.555 117.782 135.835 123.162 135.063C129.576 134.141 134.623 130.535 137.885 125.664Z" fill="#8ACDFF"/>
<path d="M68.6143 66.7011L74.8264 71.6299L131.551 66.7963L134.156 61.3859L68.6143 66.7011Z" fill="#433E51"/>
<path d="M138.052 62.5047L149.695 61.6222L151.663 65.0604L139.924 65.9824L138.052 62.5047Z" fill="white"/>
<path d="M146.679 61.8831L146.383 61.8734L138.052 62.5047L139.924 65.9824L148.634 65.298L146.679 61.8831Z" fill="#A4BFD8"/>
<path d="M56.0044 70.8108L56.8079 73.3023" stroke="#433E51" stroke-miterlimit="10" stroke-linecap="round" stroke-linejoin="round"/>
<path d="M58.4467 69.7209L59.508 73.0115" stroke="#433E51" stroke-miterlimit="10" stroke-linecap="round" stroke-linejoin="round"/>
<path d="M61.3695 68.8113L62.6127 72.6645" stroke="#433E51" stroke-miterlimit="10" stroke-linecap="round" stroke-linejoin="round"/>
<path d="M123.142 256.903L115.8 257.584L114.484 251.27L121.589 250.611L123.142 256.903Z" stroke="#433E51" stroke-miterlimit="10" stroke-linecap="round" stroke-linejoin="round"/>
<path d="M208.868 249.248L200.65 247.347L207.315 242.956L208.868 249.248Z" stroke="#433E51" stroke-miterlimit="10" stroke-linecap="round" stroke-linejoin="round"/>
<path d="M168.492 250.054C168.467 252.091 166.796 253.721 164.759 253.696C162.723 253.672 161.093 252.001 161.117 249.964C161.142 247.928 162.813 246.297 164.85 246.322C166.886 246.347 168.516 248.018 168.492 250.054Z" stroke="#433E51" stroke-miterlimit="10" stroke-linecap="round" stroke-linejoin="round"/>
<path d="M36.0505 74.0087L92.4473 245.183" stroke="#302D3D" stroke-miterlimit="10" stroke-linecap="round" stroke-linejoin="round"/>
<path d="M220.439 202.73H119.674C118.15 202.73 116.915 201.496 116.915 199.972V189.413C116.915 187.89 118.15 186.655 119.674 186.655H220.439C221.962 186.655 223.197 187.89 223.197 189.413V199.972C223.197 201.495 221.962 202.73 220.439 202.73Z" fill="white"/>
<path d="M167.064 195.561H131.669C131.103 195.561 130.644 195.102 130.644 194.536C130.644 193.97 131.103 193.511 131.669 193.511H167.064C167.63 193.511 168.089 193.97 168.089 194.536C168.089 195.102 167.63 195.561 167.064 195.561Z" fill="#433E51"/>
<path d="M208.444 195.561H173.049C172.483 195.561 172.024 195.102 172.024 194.536C172.024 193.97 172.483 193.511 173.049 193.511H208.444C209.01 193.511 209.469 193.97 209.469 194.536C209.469 195.102 209.01 195.561 208.444 195.561Z" fill="#433E51"/>
<path d="M220.439 228.147H119.674C118.15 228.147 116.915 226.912 116.915 225.388V214.83C116.915 213.306 118.15 212.071 119.674 212.071H220.439C221.962 212.071 223.197 213.306 223.197 214.83V225.388C223.197 226.912 221.962 228.147 220.439 228.147Z" fill="white"/>
<path d="M131.75 221.698C132.627 221.698 133.339 220.986 133.339 220.109C133.339 219.232 132.627 218.521 131.75 218.521C130.873 218.521 130.162 219.232 130.162 220.109C130.162 220.986 130.873 221.698 131.75 221.698Z" fill="#433E51"/>
<path d="M142.626 221.698C143.503 221.698 144.214 220.986 144.214 220.109C144.214 219.232 143.503 218.521 142.626 218.521C141.748 218.521 141.037 219.232 141.037 220.109C141.037 220.986 141.748 221.698 142.626 221.698Z" fill="#433E51"/>
<path d="M153.582 221.698C154.46 221.698 155.171 220.986 155.171 220.109C155.171 219.232 154.46 218.521 153.582 218.521C152.705 218.521 151.994 219.232 151.994 220.109C151.994 220.986 152.705 221.698 153.582 221.698Z" fill="#433E51"/>
<path d="M164.458 221.698C165.335 221.698 166.046 220.986 166.046 220.109C166.046 219.232 165.335 218.521 164.458 218.521C163.581 218.521 162.869 219.232 162.869 220.109C162.869 220.986 163.581 221.698 164.458 221.698Z" fill="#433E51"/>
<path d="M175.655 221.698C176.532 221.698 177.243 220.986 177.243 220.109C177.243 219.232 176.532 218.521 175.655 218.521C174.778 218.521 174.067 219.232 174.067 220.109C174.067 220.986 174.778 221.698 175.655 221.698Z" fill="#433E51"/>
<path d="M186.53 221.698C187.407 221.698 188.119 220.986 188.119 220.109C188.119 219.232 187.407 218.521 186.53 218.521C185.653 218.521 184.942 219.232 184.942 220.109C184.942 220.986 185.653 221.698 186.53 221.698Z" fill="#433E51"/>
<path d="M197.486 221.698C198.364 221.698 199.075 220.986 199.075 220.109C199.075 219.232 198.364 218.521 197.486 218.521C196.609 218.521 195.898 219.232 195.898 220.109C195.898 220.986 196.609 221.698 197.486 221.698Z" fill="#433E51"/>
<path d="M208.362 221.698C209.239 221.698 209.95 220.986 209.95 220.109C209.95 219.232 209.239 218.521 208.362 218.521C207.485 218.521 206.773 219.232 206.773 220.109C206.773 220.986 207.485 221.698 208.362 221.698Z" fill="#433E51"/>
<path d="M249.162 58.7117V132.286H208.861" stroke="#83A8C6" stroke-miterlimit="10"/>
<path opacity="0.55" d="M272.003 24.7757H257.862V23.2074C257.862 20.486 255.655 18.2794 252.933 18.2794H228.74C226.018 18.2794 223.812 20.486 223.812 23.2074V42.7417C223.812 45.4638 226.018 47.6704 228.74 47.6704H246.652H252.934H272.003C274.405 47.6704 276.353 45.7228 276.353 43.3206V29.1255C276.353 26.7227 274.405 24.7757 272.003 24.7757Z" fill="#4C94FF"/>
<path d="M274.131 30.824H226.182C224.874 30.824 223.812 31.8852 223.812 33.1938V58.0246C223.812 59.3331 224.874 60.3944 226.182 60.3944H274.131C275.44 60.3944 276.501 59.3331 276.501 58.0246V33.1938C276.501 31.8852 275.44 30.824 274.131 30.824Z" fill="#3396FF"/>
<path d="M215.07 135.524V127.145H208.861V135.524H215.07Z" fill="#433E51"/>
<path d="M220.698 78.2553C184.203 71.3038 169.431 58.0529 169.431 58.0529C169.431 58.0529 154.659 71.3038 118.164 78.2553C118.164 78.2553 114.037 148.747 169.431 175.793C224.826 148.747 220.698 78.2553 220.698 78.2553Z" fill="#3396FF"/>
<path opacity="0.35" d="M169.432 175.793V58.0529C169.432 58.0529 154.66 71.3038 118.165 78.2553C118.165 78.2553 114.037 148.747 169.432 175.793Z" fill="#3396FF"/>
<path d="M169.432 75.9198C169.432 75.9198 157.864 75.9198 157.864 85.3279V94.7373H161.449V85.1246C161.449 85.1246 161.286 79.178 169.432 79.178C177.578 79.178 177.415 85.1246 177.415 85.1246V94.7373H181V85.3279C180.999 75.9198 169.432 75.9198 169.432 75.9198Z" fill="#E2E8EB"/>
<path d="M182.858 94.005H156.007C154.483 94.005 153.248 95.2398 153.248 96.7633V122.854C153.248 124.378 154.483 125.612 156.007 125.612H182.858C184.381 125.612 185.616 124.378 185.616 122.854V96.7633C185.616 95.2398 184.38 94.005 182.858 94.005Z" fill="#FFD41F"/>
<path opacity="0.55" d="M161.333 121.621C159.203 121.621 157.477 119.894 157.477 117.765V94.005H157.103C154.974 94.005 153.248 95.7312 153.248 97.8608V121.757C153.248 123.886 154.974 125.612 157.103 125.612H181.759C183.889 125.612 185.615 123.886 185.615 121.757V121.621H161.333Z" fill="#FFD41F"/>
<path d="M172.69 107.229C172.642 106.571 172.454 106.03 172.191 105.586C170.986 103.55 167.878 103.55 166.672 105.586C166.409 106.03 166.221 106.571 166.174 107.229C165.973 109.964 167.803 110.352 167.803 110.352L167.561 114.527C167.541 114.872 167.722 115.204 168.034 115.353C168.367 115.512 168.85 115.675 169.432 115.675C170.001 115.675 170.475 115.519 170.808 115.363C171.129 115.212 171.323 114.882 171.302 114.527L171.061 110.352C171.061 110.352 172.891 109.964 172.69 107.229Z" fill="#823D00"/>
<path d="M253.352 60.483H244.972V64.6037H253.352V60.483Z" fill="#433E51"/>
<path d="M165.659 144.636C165.659 145.577 165.483 146.382 165.131 147.053C164.781 147.72 164.304 148.232 163.699 148.587C163.097 148.942 162.413 149.119 161.649 149.119C160.885 149.119 160.2 148.942 159.595 148.587C158.993 148.229 158.516 147.716 158.163 147.048C157.814 146.378 157.639 145.574 157.639 144.636C157.639 143.696 157.814 142.892 158.163 142.224C158.516 141.554 158.993 141.041 159.595 140.686C160.2 140.331 160.885 140.153 161.649 140.153C162.413 140.153 163.097 140.331 163.699 140.686C164.304 141.041 164.781 141.554 165.131 142.224C165.483 142.892 165.659 143.696 165.659 144.636ZM164.07 144.636C164.07 143.974 163.966 143.416 163.759 142.962C163.554 142.504 163.27 142.159 162.906 141.926C162.543 141.69 162.124 141.572 161.649 141.572C161.175 141.572 160.756 141.69 160.392 141.926C160.028 142.159 159.743 142.504 159.536 142.962C159.331 143.416 159.229 143.974 159.229 144.636C159.229 145.298 159.331 145.858 159.536 146.315C159.743 146.77 160.028 147.115 160.392 147.351C160.756 147.584 161.175 147.7 161.649 147.7C162.124 147.7 162.543 147.584 162.906 147.351C163.27 147.115 163.554 146.77 163.759 146.315C163.966 145.858 164.07 145.298 164.07 144.636ZM166.384 141.598V140.273H173.347V141.598H170.649V149H169.081V141.598H166.384ZM174.689 149V140.273H177.962C178.632 140.273 179.195 140.398 179.649 140.648C180.107 140.898 180.452 141.241 180.685 141.679C180.92 142.114 181.038 142.608 181.038 143.162C181.038 143.722 180.92 144.219 180.685 144.653C180.449 145.088 180.101 145.43 179.641 145.68C179.18 145.928 178.614 146.051 177.94 146.051H175.771V144.751H177.727C178.119 144.751 178.44 144.683 178.69 144.547C178.94 144.411 179.125 144.223 179.244 143.984C179.366 143.746 179.428 143.472 179.428 143.162C179.428 142.852 179.366 142.58 179.244 142.344C179.125 142.108 178.939 141.925 178.686 141.794C178.436 141.661 178.114 141.594 177.719 141.594H176.27V149H174.689Z" fill="white"/>
</svg>
