<svg width="16" height="16" viewBox="0 0 16 16" fill="none" xmlns="http://www.w3.org/2000/svg">
<path d="M16 8C16 12.4183 12.4183 16 8 16C3.58172 16 0 12.4183 0 8C0 3.58172 3.58172 0 8 0C12.4183 0 16 3.58172 16 8Z" fill="#FF3F3F"/>
<path fill-rule="evenodd" clip-rule="evenodd" d="M8 14C11.3137 14 14 11.3137 14 8C14 4.68629 11.3137 2 8 2C4.68629 2 2 4.68629 2 8C2 11.3137 4.68629 14 8 14ZM8 16C12.4183 16 16 12.4183 16 8C16 3.58172 12.4183 0 8 0C3.58172 0 0 3.58172 0 8C0 12.4183 3.58172 16 8 16Z" fill="#FF3F3F"/>
<path d="M7.2002 9.92139L7.04785 3.84033H8.95215L8.7998 9.92139H7.2002ZM8 13.0762C7.42236 13.0762 6.96533 12.6382 6.96533 12.0796C6.96533 11.521 7.42236 11.083 8 11.083C8.57764 11.083 9.03467 11.521 9.03467 12.0796C9.03467 12.6382 8.57764 13.0762 8 13.0762Z" fill="white"/>
</svg>
